M48
; DRILL file {KiCad 7.0.9} date Mon 13 Nov 2023 03:47:54 PM GMT
; FORMAT={-:-/ absolute / metric / decimal}
; #@! TF.CreationDate,2023-11-13T15:47:54+00:00
; #@! TF.GenerationSoftware,Kicad,Pcbnew,7.0.9
; #@! TF.FileFunction,NonPlated,1,2,NPTH
FMAT,2
METRIC
; #@! TA.AperFunction,NonPlated,NPTH,ComponentDrill
T1C1.200
; #@! TA.AperFunction,NonPlated,NPTH,ComponentDrill
T2C1.500
; #@! TA.AperFunction,NonPlated,NPTH,ComponentDrill
T3C1.700
; #@! TA.AperFunction,NonPlated,NPTH,ComponentDrill
T4C4.000
%
G90
G05
T1
X155.55Y-131.865
T3
X150.33Y-144.925
X150.33Y-163.975
X160.49Y-144.925
X160.49Y-163.975
X169.38Y-142.905
X169.38Y-161.955
X179.54Y-142.905
X179.54Y-161.955
X188.43Y-140.415
X188.43Y-159.465
X198.59Y-140.415
X198.59Y-159.465
X207.48Y-142.915
X207.48Y-161.965
X217.64Y-142.915
X217.64Y-161.965
X226.53Y-143.915
X226.53Y-162.965
X236.69Y-143.915
X236.69Y-162.965
X245.58Y-162.955
X255.74Y-162.955
T4
X155.41Y-144.925
X155.41Y-163.975
X174.46Y-142.905
X174.46Y-161.955
X193.51Y-140.415
X193.51Y-159.465
X212.56Y-142.915
X212.56Y-161.965
X231.61Y-143.915
X231.61Y-162.965
X250.66Y-162.955
T2
X245.1Y-144.675G85X245.1Y-143.375
G05
X256.3Y-144.675G85X256.3Y-143.375
G05
T0
M30
