G04 #@! TF.GenerationSoftware,KiCad,Pcbnew,7.0.9*
G04 #@! TF.CreationDate,2023-11-13T15:47:58+00:00*
G04 #@! TF.ProjectId,Nixie-12R-pcb,4e697869-652d-4313-9252-2d7063622e6b,rev?*
G04 #@! TF.SameCoordinates,Original*
G04 #@! TF.FileFunction,Legend,Bot*
G04 #@! TF.FilePolarity,Positive*
%FSLAX46Y46*%
G04 Gerber Fmt 4.6, Leading zero omitted, Abs format (unit mm)*
G04 Created by KiCad (PCBNEW 7.0.9) date 2023-11-13 15:47:58*
%MOMM*%
%LPD*%
G01*
G04 APERTURE LIST*
G04 Aperture macros list*
%AMRoundRect*
0 Rectangle with rounded corners*
0 $1 Rounding radius*
0 $2 $3 $4 $5 $6 $7 $8 $9 X,Y pos of 4 corners*
0 Add a 4 corners polygon primitive as box body*
4,1,4,$2,$3,$4,$5,$6,$7,$8,$9,$2,$3,0*
0 Add four circle primitives for the rounded corners*
1,1,$1+$1,$2,$3*
1,1,$1+$1,$4,$5*
1,1,$1+$1,$6,$7*
1,1,$1+$1,$8,$9*
0 Add four rect primitives between the rounded corners*
20,1,$1+$1,$2,$3,$4,$5,0*
20,1,$1+$1,$4,$5,$6,$7,0*
20,1,$1+$1,$6,$7,$8,$9,0*
20,1,$1+$1,$8,$9,$2,$3,0*%
G04 Aperture macros list end*
%ADD10C,0.150000*%
%ADD11C,1.651000*%
%ADD12R,1.651000X1.651000*%
%ADD13R,1.752600X1.752600*%
%ADD14C,1.752600*%
%ADD15C,1.753000*%
%ADD16RoundRect,0.051000X0.825500X-0.825500X0.825500X0.825500X-0.825500X0.825500X-0.825500X-0.825500X0*%
%ADD17C,1.802000*%
%ADD18C,4.102000*%
%ADD19C,2.302000*%
%ADD20O,2.102000X3.302000*%
%ADD21C,2.102000*%
%ADD22RoundRect,0.051000X1.000000X-1.000000X1.000000X1.000000X-1.000000X1.000000X-1.000000X-1.000000X0*%
%ADD23C,2.202000*%
%ADD24C,1.302000*%
%ADD25C,1.852000*%
%ADD26C,1.626000*%
%ADD27RoundRect,0.051000X0.876300X0.876300X-0.876300X0.876300X-0.876300X-0.876300X0.876300X-0.876300X0*%
%ADD28C,1.854600*%
G04 APERTURE END LIST*
D10*
X250576190Y-121334819D02*
X250576190Y-120334819D01*
X250576190Y-120334819D02*
X250338095Y-120334819D01*
X250338095Y-120334819D02*
X250195238Y-120382438D01*
X250195238Y-120382438D02*
X250100000Y-120477676D01*
X250100000Y-120477676D02*
X250052381Y-120572914D01*
X250052381Y-120572914D02*
X250004762Y-120763390D01*
X250004762Y-120763390D02*
X250004762Y-120906247D01*
X250004762Y-120906247D02*
X250052381Y-121096723D01*
X250052381Y-121096723D02*
X250100000Y-121191961D01*
X250100000Y-121191961D02*
X250195238Y-121287200D01*
X250195238Y-121287200D02*
X250338095Y-121334819D01*
X250338095Y-121334819D02*
X250576190Y-121334819D01*
X249195238Y-121287200D02*
X249290476Y-121334819D01*
X249290476Y-121334819D02*
X249480952Y-121334819D01*
X249480952Y-121334819D02*
X249576190Y-121287200D01*
X249576190Y-121287200D02*
X249623809Y-121191961D01*
X249623809Y-121191961D02*
X249623809Y-120811009D01*
X249623809Y-120811009D02*
X249576190Y-120715771D01*
X249576190Y-120715771D02*
X249480952Y-120668152D01*
X249480952Y-120668152D02*
X249290476Y-120668152D01*
X249290476Y-120668152D02*
X249195238Y-120715771D01*
X249195238Y-120715771D02*
X249147619Y-120811009D01*
X249147619Y-120811009D02*
X249147619Y-120906247D01*
X249147619Y-120906247D02*
X249623809Y-121001485D01*
X248766666Y-121287200D02*
X248671428Y-121334819D01*
X248671428Y-121334819D02*
X248480952Y-121334819D01*
X248480952Y-121334819D02*
X248385714Y-121287200D01*
X248385714Y-121287200D02*
X248338095Y-121191961D01*
X248338095Y-121191961D02*
X248338095Y-121144342D01*
X248338095Y-121144342D02*
X248385714Y-121049104D01*
X248385714Y-121049104D02*
X248480952Y-121001485D01*
X248480952Y-121001485D02*
X248623809Y-121001485D01*
X248623809Y-121001485D02*
X248719047Y-120953866D01*
X248719047Y-120953866D02*
X248766666Y-120858628D01*
X248766666Y-120858628D02*
X248766666Y-120811009D01*
X248766666Y-120811009D02*
X248719047Y-120715771D01*
X248719047Y-120715771D02*
X248623809Y-120668152D01*
X248623809Y-120668152D02*
X248480952Y-120668152D01*
X248480952Y-120668152D02*
X248385714Y-120715771D01*
X247909523Y-121334819D02*
X247909523Y-120668152D01*
X247909523Y-120334819D02*
X247957142Y-120382438D01*
X247957142Y-120382438D02*
X247909523Y-120430057D01*
X247909523Y-120430057D02*
X247861904Y-120382438D01*
X247861904Y-120382438D02*
X247909523Y-120334819D01*
X247909523Y-120334819D02*
X247909523Y-120430057D01*
X247004762Y-120668152D02*
X247004762Y-121477676D01*
X247004762Y-121477676D02*
X247052381Y-121572914D01*
X247052381Y-121572914D02*
X247100000Y-121620533D01*
X247100000Y-121620533D02*
X247195238Y-121668152D01*
X247195238Y-121668152D02*
X247338095Y-121668152D01*
X247338095Y-121668152D02*
X247433333Y-121620533D01*
X247004762Y-121287200D02*
X247100000Y-121334819D01*
X247100000Y-121334819D02*
X247290476Y-121334819D01*
X247290476Y-121334819D02*
X247385714Y-121287200D01*
X247385714Y-121287200D02*
X247433333Y-121239580D01*
X247433333Y-121239580D02*
X247480952Y-121144342D01*
X247480952Y-121144342D02*
X247480952Y-120858628D01*
X247480952Y-120858628D02*
X247433333Y-120763390D01*
X247433333Y-120763390D02*
X247385714Y-120715771D01*
X247385714Y-120715771D02*
X247290476Y-120668152D01*
X247290476Y-120668152D02*
X247100000Y-120668152D01*
X247100000Y-120668152D02*
X247004762Y-120715771D01*
X246528571Y-120668152D02*
X246528571Y-121334819D01*
X246528571Y-120763390D02*
X246480952Y-120715771D01*
X246480952Y-120715771D02*
X246385714Y-120668152D01*
X246385714Y-120668152D02*
X246242857Y-120668152D01*
X246242857Y-120668152D02*
X246147619Y-120715771D01*
X246147619Y-120715771D02*
X246100000Y-120811009D01*
X246100000Y-120811009D02*
X246100000Y-121334819D01*
X245242857Y-121287200D02*
X245338095Y-121334819D01*
X245338095Y-121334819D02*
X245528571Y-121334819D01*
X245528571Y-121334819D02*
X245623809Y-121287200D01*
X245623809Y-121287200D02*
X245671428Y-121191961D01*
X245671428Y-121191961D02*
X245671428Y-120811009D01*
X245671428Y-120811009D02*
X245623809Y-120715771D01*
X245623809Y-120715771D02*
X245528571Y-120668152D01*
X245528571Y-120668152D02*
X245338095Y-120668152D01*
X245338095Y-120668152D02*
X245242857Y-120715771D01*
X245242857Y-120715771D02*
X245195238Y-120811009D01*
X245195238Y-120811009D02*
X245195238Y-120906247D01*
X245195238Y-120906247D02*
X245671428Y-121001485D01*
X244338095Y-121334819D02*
X244338095Y-120334819D01*
X244338095Y-121287200D02*
X244433333Y-121334819D01*
X244433333Y-121334819D02*
X244623809Y-121334819D01*
X244623809Y-121334819D02*
X244719047Y-121287200D01*
X244719047Y-121287200D02*
X244766666Y-121239580D01*
X244766666Y-121239580D02*
X244814285Y-121144342D01*
X244814285Y-121144342D02*
X244814285Y-120858628D01*
X244814285Y-120858628D02*
X244766666Y-120763390D01*
X244766666Y-120763390D02*
X244719047Y-120715771D01*
X244719047Y-120715771D02*
X244623809Y-120668152D01*
X244623809Y-120668152D02*
X244433333Y-120668152D01*
X244433333Y-120668152D02*
X244338095Y-120715771D01*
X243099999Y-121334819D02*
X243099999Y-120334819D01*
X243099999Y-120715771D02*
X243004761Y-120668152D01*
X243004761Y-120668152D02*
X242814285Y-120668152D01*
X242814285Y-120668152D02*
X242719047Y-120715771D01*
X242719047Y-120715771D02*
X242671428Y-120763390D01*
X242671428Y-120763390D02*
X242623809Y-120858628D01*
X242623809Y-120858628D02*
X242623809Y-121144342D01*
X242623809Y-121144342D02*
X242671428Y-121239580D01*
X242671428Y-121239580D02*
X242719047Y-121287200D01*
X242719047Y-121287200D02*
X242814285Y-121334819D01*
X242814285Y-121334819D02*
X243004761Y-121334819D01*
X243004761Y-121334819D02*
X243099999Y-121287200D01*
X242290475Y-120668152D02*
X242052380Y-121334819D01*
X241814285Y-120668152D02*
X242052380Y-121334819D01*
X242052380Y-121334819D02*
X242147618Y-121572914D01*
X242147618Y-121572914D02*
X242195237Y-121620533D01*
X242195237Y-121620533D02*
X242290475Y-121668152D01*
X241433332Y-121239580D02*
X241385713Y-121287200D01*
X241385713Y-121287200D02*
X241433332Y-121334819D01*
X241433332Y-121334819D02*
X241480951Y-121287200D01*
X241480951Y-121287200D02*
X241433332Y-121239580D01*
X241433332Y-121239580D02*
X241433332Y-121334819D01*
X241433332Y-120715771D02*
X241385713Y-120763390D01*
X241385713Y-120763390D02*
X241433332Y-120811009D01*
X241433332Y-120811009D02*
X241480951Y-120763390D01*
X241480951Y-120763390D02*
X241433332Y-120715771D01*
X241433332Y-120715771D02*
X241433332Y-120811009D01*
X239766666Y-120668152D02*
X239766666Y-121477676D01*
X239766666Y-121477676D02*
X239814285Y-121572914D01*
X239814285Y-121572914D02*
X239861904Y-121620533D01*
X239861904Y-121620533D02*
X239957142Y-121668152D01*
X239957142Y-121668152D02*
X240099999Y-121668152D01*
X240099999Y-121668152D02*
X240195237Y-121620533D01*
X239766666Y-121287200D02*
X239861904Y-121334819D01*
X239861904Y-121334819D02*
X240052380Y-121334819D01*
X240052380Y-121334819D02*
X240147618Y-121287200D01*
X240147618Y-121287200D02*
X240195237Y-121239580D01*
X240195237Y-121239580D02*
X240242856Y-121144342D01*
X240242856Y-121144342D02*
X240242856Y-120858628D01*
X240242856Y-120858628D02*
X240195237Y-120763390D01*
X240195237Y-120763390D02*
X240147618Y-120715771D01*
X240147618Y-120715771D02*
X240052380Y-120668152D01*
X240052380Y-120668152D02*
X239861904Y-120668152D01*
X239861904Y-120668152D02*
X239766666Y-120715771D01*
X239290475Y-121334819D02*
X239290475Y-120668152D01*
X239290475Y-120334819D02*
X239338094Y-120382438D01*
X239338094Y-120382438D02*
X239290475Y-120430057D01*
X239290475Y-120430057D02*
X239242856Y-120382438D01*
X239242856Y-120382438D02*
X239290475Y-120334819D01*
X239290475Y-120334819D02*
X239290475Y-120430057D01*
X238957142Y-120668152D02*
X238576190Y-120668152D01*
X238814285Y-120334819D02*
X238814285Y-121191961D01*
X238814285Y-121191961D02*
X238766666Y-121287200D01*
X238766666Y-121287200D02*
X238671428Y-121334819D01*
X238671428Y-121334819D02*
X238576190Y-121334819D01*
X238242856Y-121334819D02*
X238242856Y-120334819D01*
X237814285Y-121334819D02*
X237814285Y-120811009D01*
X237814285Y-120811009D02*
X237861904Y-120715771D01*
X237861904Y-120715771D02*
X237957142Y-120668152D01*
X237957142Y-120668152D02*
X238099999Y-120668152D01*
X238099999Y-120668152D02*
X238195237Y-120715771D01*
X238195237Y-120715771D02*
X238242856Y-120763390D01*
X236909523Y-120668152D02*
X236909523Y-121334819D01*
X237338094Y-120668152D02*
X237338094Y-121191961D01*
X237338094Y-121191961D02*
X237290475Y-121287200D01*
X237290475Y-121287200D02*
X237195237Y-121334819D01*
X237195237Y-121334819D02*
X237052380Y-121334819D01*
X237052380Y-121334819D02*
X236957142Y-121287200D01*
X236957142Y-121287200D02*
X236909523Y-121239580D01*
X236433332Y-121334819D02*
X236433332Y-120334819D01*
X236433332Y-120715771D02*
X236338094Y-120668152D01*
X236338094Y-120668152D02*
X236147618Y-120668152D01*
X236147618Y-120668152D02*
X236052380Y-120715771D01*
X236052380Y-120715771D02*
X236004761Y-120763390D01*
X236004761Y-120763390D02*
X235957142Y-120858628D01*
X235957142Y-120858628D02*
X235957142Y-121144342D01*
X235957142Y-121144342D02*
X236004761Y-121239580D01*
X236004761Y-121239580D02*
X236052380Y-121287200D01*
X236052380Y-121287200D02*
X236147618Y-121334819D01*
X236147618Y-121334819D02*
X236338094Y-121334819D01*
X236338094Y-121334819D02*
X236433332Y-121287200D01*
X235528570Y-121239580D02*
X235480951Y-121287200D01*
X235480951Y-121287200D02*
X235528570Y-121334819D01*
X235528570Y-121334819D02*
X235576189Y-121287200D01*
X235576189Y-121287200D02*
X235528570Y-121239580D01*
X235528570Y-121239580D02*
X235528570Y-121334819D01*
X234623809Y-121287200D02*
X234719047Y-121334819D01*
X234719047Y-121334819D02*
X234909523Y-121334819D01*
X234909523Y-121334819D02*
X235004761Y-121287200D01*
X235004761Y-121287200D02*
X235052380Y-121239580D01*
X235052380Y-121239580D02*
X235099999Y-121144342D01*
X235099999Y-121144342D02*
X235099999Y-120858628D01*
X235099999Y-120858628D02*
X235052380Y-120763390D01*
X235052380Y-120763390D02*
X235004761Y-120715771D01*
X235004761Y-120715771D02*
X234909523Y-120668152D01*
X234909523Y-120668152D02*
X234719047Y-120668152D01*
X234719047Y-120668152D02*
X234623809Y-120715771D01*
X234052380Y-121334819D02*
X234147618Y-121287200D01*
X234147618Y-121287200D02*
X234195237Y-121239580D01*
X234195237Y-121239580D02*
X234242856Y-121144342D01*
X234242856Y-121144342D02*
X234242856Y-120858628D01*
X234242856Y-120858628D02*
X234195237Y-120763390D01*
X234195237Y-120763390D02*
X234147618Y-120715771D01*
X234147618Y-120715771D02*
X234052380Y-120668152D01*
X234052380Y-120668152D02*
X233909523Y-120668152D01*
X233909523Y-120668152D02*
X233814285Y-120715771D01*
X233814285Y-120715771D02*
X233766666Y-120763390D01*
X233766666Y-120763390D02*
X233719047Y-120858628D01*
X233719047Y-120858628D02*
X233719047Y-121144342D01*
X233719047Y-121144342D02*
X233766666Y-121239580D01*
X233766666Y-121239580D02*
X233814285Y-121287200D01*
X233814285Y-121287200D02*
X233909523Y-121334819D01*
X233909523Y-121334819D02*
X234052380Y-121334819D01*
X233290475Y-121334819D02*
X233290475Y-120668152D01*
X233290475Y-120763390D02*
X233242856Y-120715771D01*
X233242856Y-120715771D02*
X233147618Y-120668152D01*
X233147618Y-120668152D02*
X233004761Y-120668152D01*
X233004761Y-120668152D02*
X232909523Y-120715771D01*
X232909523Y-120715771D02*
X232861904Y-120811009D01*
X232861904Y-120811009D02*
X232861904Y-121334819D01*
X232861904Y-120811009D02*
X232814285Y-120715771D01*
X232814285Y-120715771D02*
X232719047Y-120668152D01*
X232719047Y-120668152D02*
X232576190Y-120668152D01*
X232576190Y-120668152D02*
X232480951Y-120715771D01*
X232480951Y-120715771D02*
X232433332Y-120811009D01*
X232433332Y-120811009D02*
X232433332Y-121334819D01*
X231242857Y-120287200D02*
X232099999Y-121572914D01*
X230480952Y-120668152D02*
X230480952Y-121477676D01*
X230480952Y-121477676D02*
X230528571Y-121572914D01*
X230528571Y-121572914D02*
X230576190Y-121620533D01*
X230576190Y-121620533D02*
X230671428Y-121668152D01*
X230671428Y-121668152D02*
X230814285Y-121668152D01*
X230814285Y-121668152D02*
X230909523Y-121620533D01*
X230480952Y-121287200D02*
X230576190Y-121334819D01*
X230576190Y-121334819D02*
X230766666Y-121334819D01*
X230766666Y-121334819D02*
X230861904Y-121287200D01*
X230861904Y-121287200D02*
X230909523Y-121239580D01*
X230909523Y-121239580D02*
X230957142Y-121144342D01*
X230957142Y-121144342D02*
X230957142Y-120858628D01*
X230957142Y-120858628D02*
X230909523Y-120763390D01*
X230909523Y-120763390D02*
X230861904Y-120715771D01*
X230861904Y-120715771D02*
X230766666Y-120668152D01*
X230766666Y-120668152D02*
X230576190Y-120668152D01*
X230576190Y-120668152D02*
X230480952Y-120715771D01*
X230099999Y-120668152D02*
X229576190Y-120668152D01*
X229576190Y-120668152D02*
X230099999Y-121334819D01*
X230099999Y-121334819D02*
X229576190Y-121334819D01*
X229052380Y-121334819D02*
X229147618Y-121287200D01*
X229147618Y-121287200D02*
X229195237Y-121239580D01*
X229195237Y-121239580D02*
X229242856Y-121144342D01*
X229242856Y-121144342D02*
X229242856Y-120858628D01*
X229242856Y-120858628D02*
X229195237Y-120763390D01*
X229195237Y-120763390D02*
X229147618Y-120715771D01*
X229147618Y-120715771D02*
X229052380Y-120668152D01*
X229052380Y-120668152D02*
X228909523Y-120668152D01*
X228909523Y-120668152D02*
X228814285Y-120715771D01*
X228814285Y-120715771D02*
X228766666Y-120763390D01*
X228766666Y-120763390D02*
X228719047Y-120858628D01*
X228719047Y-120858628D02*
X228719047Y-121144342D01*
X228719047Y-121144342D02*
X228766666Y-121239580D01*
X228766666Y-121239580D02*
X228814285Y-121287200D01*
X228814285Y-121287200D02*
X228909523Y-121334819D01*
X228909523Y-121334819D02*
X229052380Y-121334819D01*
X228385713Y-120668152D02*
X228195237Y-121334819D01*
X228195237Y-121334819D02*
X228004761Y-120858628D01*
X228004761Y-120858628D02*
X227814285Y-121334819D01*
X227814285Y-121334819D02*
X227623809Y-120668152D01*
X227290475Y-121287200D02*
X227195237Y-121334819D01*
X227195237Y-121334819D02*
X227004761Y-121334819D01*
X227004761Y-121334819D02*
X226909523Y-121287200D01*
X226909523Y-121287200D02*
X226861904Y-121191961D01*
X226861904Y-121191961D02*
X226861904Y-121144342D01*
X226861904Y-121144342D02*
X226909523Y-121049104D01*
X226909523Y-121049104D02*
X227004761Y-121001485D01*
X227004761Y-121001485D02*
X227147618Y-121001485D01*
X227147618Y-121001485D02*
X227242856Y-120953866D01*
X227242856Y-120953866D02*
X227290475Y-120858628D01*
X227290475Y-120858628D02*
X227290475Y-120811009D01*
X227290475Y-120811009D02*
X227242856Y-120715771D01*
X227242856Y-120715771D02*
X227147618Y-120668152D01*
X227147618Y-120668152D02*
X227004761Y-120668152D01*
X227004761Y-120668152D02*
X226909523Y-120715771D01*
X226433332Y-121334819D02*
X226433332Y-120334819D01*
X226338094Y-120953866D02*
X226052380Y-121334819D01*
X226052380Y-120668152D02*
X226433332Y-121049104D01*
X225623808Y-121334819D02*
X225623808Y-120668152D01*
X225623808Y-120334819D02*
X225671427Y-120382438D01*
X225671427Y-120382438D02*
X225623808Y-120430057D01*
X225623808Y-120430057D02*
X225576189Y-120382438D01*
X225576189Y-120382438D02*
X225623808Y-120334819D01*
X225623808Y-120334819D02*
X225623808Y-120430057D01*
X247671429Y-122944819D02*
X248004762Y-122468628D01*
X248242857Y-122944819D02*
X248242857Y-121944819D01*
X248242857Y-121944819D02*
X247861905Y-121944819D01*
X247861905Y-121944819D02*
X247766667Y-121992438D01*
X247766667Y-121992438D02*
X247719048Y-122040057D01*
X247719048Y-122040057D02*
X247671429Y-122135295D01*
X247671429Y-122135295D02*
X247671429Y-122278152D01*
X247671429Y-122278152D02*
X247719048Y-122373390D01*
X247719048Y-122373390D02*
X247766667Y-122421009D01*
X247766667Y-122421009D02*
X247861905Y-122468628D01*
X247861905Y-122468628D02*
X248242857Y-122468628D01*
X246861905Y-122897200D02*
X246957143Y-122944819D01*
X246957143Y-122944819D02*
X247147619Y-122944819D01*
X247147619Y-122944819D02*
X247242857Y-122897200D01*
X247242857Y-122897200D02*
X247290476Y-122801961D01*
X247290476Y-122801961D02*
X247290476Y-122421009D01*
X247290476Y-122421009D02*
X247242857Y-122325771D01*
X247242857Y-122325771D02*
X247147619Y-122278152D01*
X247147619Y-122278152D02*
X246957143Y-122278152D01*
X246957143Y-122278152D02*
X246861905Y-122325771D01*
X246861905Y-122325771D02*
X246814286Y-122421009D01*
X246814286Y-122421009D02*
X246814286Y-122516247D01*
X246814286Y-122516247D02*
X247290476Y-122611485D01*
X246480952Y-122278152D02*
X246242857Y-122944819D01*
X246242857Y-122944819D02*
X246004762Y-122278152D01*
X245623809Y-122944819D02*
X245623809Y-122278152D01*
X245623809Y-121944819D02*
X245671428Y-121992438D01*
X245671428Y-121992438D02*
X245623809Y-122040057D01*
X245623809Y-122040057D02*
X245576190Y-121992438D01*
X245576190Y-121992438D02*
X245623809Y-121944819D01*
X245623809Y-121944819D02*
X245623809Y-122040057D01*
X245195238Y-122897200D02*
X245100000Y-122944819D01*
X245100000Y-122944819D02*
X244909524Y-122944819D01*
X244909524Y-122944819D02*
X244814286Y-122897200D01*
X244814286Y-122897200D02*
X244766667Y-122801961D01*
X244766667Y-122801961D02*
X244766667Y-122754342D01*
X244766667Y-122754342D02*
X244814286Y-122659104D01*
X244814286Y-122659104D02*
X244909524Y-122611485D01*
X244909524Y-122611485D02*
X245052381Y-122611485D01*
X245052381Y-122611485D02*
X245147619Y-122563866D01*
X245147619Y-122563866D02*
X245195238Y-122468628D01*
X245195238Y-122468628D02*
X245195238Y-122421009D01*
X245195238Y-122421009D02*
X245147619Y-122325771D01*
X245147619Y-122325771D02*
X245052381Y-122278152D01*
X245052381Y-122278152D02*
X244909524Y-122278152D01*
X244909524Y-122278152D02*
X244814286Y-122325771D01*
X244338095Y-122944819D02*
X244338095Y-122278152D01*
X244338095Y-121944819D02*
X244385714Y-121992438D01*
X244385714Y-121992438D02*
X244338095Y-122040057D01*
X244338095Y-122040057D02*
X244290476Y-121992438D01*
X244290476Y-121992438D02*
X244338095Y-121944819D01*
X244338095Y-121944819D02*
X244338095Y-122040057D01*
X243719048Y-122944819D02*
X243814286Y-122897200D01*
X243814286Y-122897200D02*
X243861905Y-122849580D01*
X243861905Y-122849580D02*
X243909524Y-122754342D01*
X243909524Y-122754342D02*
X243909524Y-122468628D01*
X243909524Y-122468628D02*
X243861905Y-122373390D01*
X243861905Y-122373390D02*
X243814286Y-122325771D01*
X243814286Y-122325771D02*
X243719048Y-122278152D01*
X243719048Y-122278152D02*
X243576191Y-122278152D01*
X243576191Y-122278152D02*
X243480953Y-122325771D01*
X243480953Y-122325771D02*
X243433334Y-122373390D01*
X243433334Y-122373390D02*
X243385715Y-122468628D01*
X243385715Y-122468628D02*
X243385715Y-122754342D01*
X243385715Y-122754342D02*
X243433334Y-122849580D01*
X243433334Y-122849580D02*
X243480953Y-122897200D01*
X243480953Y-122897200D02*
X243576191Y-122944819D01*
X243576191Y-122944819D02*
X243719048Y-122944819D01*
X242957143Y-122278152D02*
X242957143Y-122944819D01*
X242957143Y-122373390D02*
X242909524Y-122325771D01*
X242909524Y-122325771D02*
X242814286Y-122278152D01*
X242814286Y-122278152D02*
X242671429Y-122278152D01*
X242671429Y-122278152D02*
X242576191Y-122325771D01*
X242576191Y-122325771D02*
X242528572Y-122421009D01*
X242528572Y-122421009D02*
X242528572Y-122944819D01*
X242052381Y-122849580D02*
X242004762Y-122897200D01*
X242004762Y-122897200D02*
X242052381Y-122944819D01*
X242052381Y-122944819D02*
X242100000Y-122897200D01*
X242100000Y-122897200D02*
X242052381Y-122849580D01*
X242052381Y-122849580D02*
X242052381Y-122944819D01*
X242052381Y-122325771D02*
X242004762Y-122373390D01*
X242004762Y-122373390D02*
X242052381Y-122421009D01*
X242052381Y-122421009D02*
X242100000Y-122373390D01*
X242100000Y-122373390D02*
X242052381Y-122325771D01*
X242052381Y-122325771D02*
X242052381Y-122421009D01*
X240290477Y-122944819D02*
X240861905Y-122944819D01*
X240576191Y-122944819D02*
X240576191Y-121944819D01*
X240576191Y-121944819D02*
X240671429Y-122087676D01*
X240671429Y-122087676D02*
X240766667Y-122182914D01*
X240766667Y-122182914D02*
X240861905Y-122230533D01*
X238814286Y-123325771D02*
X238861905Y-123278152D01*
X238861905Y-123278152D02*
X238957143Y-123135295D01*
X238957143Y-123135295D02*
X239004762Y-123040057D01*
X239004762Y-123040057D02*
X239052381Y-122897200D01*
X239052381Y-122897200D02*
X239100000Y-122659104D01*
X239100000Y-122659104D02*
X239100000Y-122468628D01*
X239100000Y-122468628D02*
X239052381Y-122230533D01*
X239052381Y-122230533D02*
X239004762Y-122087676D01*
X239004762Y-122087676D02*
X238957143Y-121992438D01*
X238957143Y-121992438D02*
X238861905Y-121849580D01*
X238861905Y-121849580D02*
X238814286Y-121801961D01*
X238433333Y-122944819D02*
X238433333Y-121944819D01*
X238433333Y-121944819D02*
X237861905Y-122944819D01*
X237861905Y-122944819D02*
X237861905Y-121944819D01*
X237242857Y-122944819D02*
X237338095Y-122897200D01*
X237338095Y-122897200D02*
X237385714Y-122849580D01*
X237385714Y-122849580D02*
X237433333Y-122754342D01*
X237433333Y-122754342D02*
X237433333Y-122468628D01*
X237433333Y-122468628D02*
X237385714Y-122373390D01*
X237385714Y-122373390D02*
X237338095Y-122325771D01*
X237338095Y-122325771D02*
X237242857Y-122278152D01*
X237242857Y-122278152D02*
X237100000Y-122278152D01*
X237100000Y-122278152D02*
X237004762Y-122325771D01*
X237004762Y-122325771D02*
X236957143Y-122373390D01*
X236957143Y-122373390D02*
X236909524Y-122468628D01*
X236909524Y-122468628D02*
X236909524Y-122754342D01*
X236909524Y-122754342D02*
X236957143Y-122849580D01*
X236957143Y-122849580D02*
X237004762Y-122897200D01*
X237004762Y-122897200D02*
X237100000Y-122944819D01*
X237100000Y-122944819D02*
X237242857Y-122944819D01*
X236480952Y-122278152D02*
X236480952Y-122944819D01*
X236480952Y-122373390D02*
X236433333Y-122325771D01*
X236433333Y-122325771D02*
X236338095Y-122278152D01*
X236338095Y-122278152D02*
X236195238Y-122278152D01*
X236195238Y-122278152D02*
X236100000Y-122325771D01*
X236100000Y-122325771D02*
X236052381Y-122421009D01*
X236052381Y-122421009D02*
X236052381Y-122944819D01*
X235576190Y-122563866D02*
X234814286Y-122563866D01*
X234338095Y-122944819D02*
X234338095Y-121944819D01*
X234338095Y-122421009D02*
X233766667Y-122421009D01*
X233766667Y-122944819D02*
X233766667Y-121944819D01*
X233147619Y-122944819D02*
X233242857Y-122897200D01*
X233242857Y-122897200D02*
X233290476Y-122849580D01*
X233290476Y-122849580D02*
X233338095Y-122754342D01*
X233338095Y-122754342D02*
X233338095Y-122468628D01*
X233338095Y-122468628D02*
X233290476Y-122373390D01*
X233290476Y-122373390D02*
X233242857Y-122325771D01*
X233242857Y-122325771D02*
X233147619Y-122278152D01*
X233147619Y-122278152D02*
X233004762Y-122278152D01*
X233004762Y-122278152D02*
X232909524Y-122325771D01*
X232909524Y-122325771D02*
X232861905Y-122373390D01*
X232861905Y-122373390D02*
X232814286Y-122468628D01*
X232814286Y-122468628D02*
X232814286Y-122754342D01*
X232814286Y-122754342D02*
X232861905Y-122849580D01*
X232861905Y-122849580D02*
X232909524Y-122897200D01*
X232909524Y-122897200D02*
X233004762Y-122944819D01*
X233004762Y-122944819D02*
X233147619Y-122944819D01*
X232528571Y-122278152D02*
X232147619Y-122278152D01*
X232385714Y-121944819D02*
X232385714Y-122801961D01*
X232385714Y-122801961D02*
X232338095Y-122897200D01*
X232338095Y-122897200D02*
X232242857Y-122944819D01*
X232242857Y-122944819D02*
X232147619Y-122944819D01*
X231861904Y-122897200D02*
X231766666Y-122944819D01*
X231766666Y-122944819D02*
X231576190Y-122944819D01*
X231576190Y-122944819D02*
X231480952Y-122897200D01*
X231480952Y-122897200D02*
X231433333Y-122801961D01*
X231433333Y-122801961D02*
X231433333Y-122754342D01*
X231433333Y-122754342D02*
X231480952Y-122659104D01*
X231480952Y-122659104D02*
X231576190Y-122611485D01*
X231576190Y-122611485D02*
X231719047Y-122611485D01*
X231719047Y-122611485D02*
X231814285Y-122563866D01*
X231814285Y-122563866D02*
X231861904Y-122468628D01*
X231861904Y-122468628D02*
X231861904Y-122421009D01*
X231861904Y-122421009D02*
X231814285Y-122325771D01*
X231814285Y-122325771D02*
X231719047Y-122278152D01*
X231719047Y-122278152D02*
X231576190Y-122278152D01*
X231576190Y-122278152D02*
X231480952Y-122325771D01*
X231099999Y-122278152D02*
X230909523Y-122944819D01*
X230909523Y-122944819D02*
X230719047Y-122468628D01*
X230719047Y-122468628D02*
X230528571Y-122944819D01*
X230528571Y-122944819D02*
X230338095Y-122278152D01*
X229528571Y-122944819D02*
X229528571Y-122421009D01*
X229528571Y-122421009D02*
X229576190Y-122325771D01*
X229576190Y-122325771D02*
X229671428Y-122278152D01*
X229671428Y-122278152D02*
X229861904Y-122278152D01*
X229861904Y-122278152D02*
X229957142Y-122325771D01*
X229528571Y-122897200D02*
X229623809Y-122944819D01*
X229623809Y-122944819D02*
X229861904Y-122944819D01*
X229861904Y-122944819D02*
X229957142Y-122897200D01*
X229957142Y-122897200D02*
X230004761Y-122801961D01*
X230004761Y-122801961D02*
X230004761Y-122706723D01*
X230004761Y-122706723D02*
X229957142Y-122611485D01*
X229957142Y-122611485D02*
X229861904Y-122563866D01*
X229861904Y-122563866D02*
X229623809Y-122563866D01*
X229623809Y-122563866D02*
X229528571Y-122516247D01*
X229052380Y-122278152D02*
X229052380Y-123278152D01*
X229052380Y-122325771D02*
X228957142Y-122278152D01*
X228957142Y-122278152D02*
X228766666Y-122278152D01*
X228766666Y-122278152D02*
X228671428Y-122325771D01*
X228671428Y-122325771D02*
X228623809Y-122373390D01*
X228623809Y-122373390D02*
X228576190Y-122468628D01*
X228576190Y-122468628D02*
X228576190Y-122754342D01*
X228576190Y-122754342D02*
X228623809Y-122849580D01*
X228623809Y-122849580D02*
X228671428Y-122897200D01*
X228671428Y-122897200D02*
X228766666Y-122944819D01*
X228766666Y-122944819D02*
X228957142Y-122944819D01*
X228957142Y-122944819D02*
X229052380Y-122897200D01*
X228242856Y-123325771D02*
X228195237Y-123278152D01*
X228195237Y-123278152D02*
X228099999Y-123135295D01*
X228099999Y-123135295D02*
X228052380Y-123040057D01*
X228052380Y-123040057D02*
X228004761Y-122897200D01*
X228004761Y-122897200D02*
X227957142Y-122659104D01*
X227957142Y-122659104D02*
X227957142Y-122468628D01*
X227957142Y-122468628D02*
X228004761Y-122230533D01*
X228004761Y-122230533D02*
X228052380Y-122087676D01*
X228052380Y-122087676D02*
X228099999Y-121992438D01*
X228099999Y-121992438D02*
X228195237Y-121849580D01*
X228195237Y-121849580D02*
X228242856Y-121801961D01*
D11*
X174100000Y-125465000D03*
D12*
X174100000Y-117845000D03*
D11*
X213700000Y-125505000D03*
D12*
X213700000Y-117885000D03*
D11*
X206500000Y-125505000D03*
D12*
X206500000Y-117885000D03*
D11*
X199300000Y-125485000D03*
D12*
X199300000Y-117865000D03*
D11*
X210100000Y-125495000D03*
D12*
X210100000Y-117875000D03*
D11*
X188500000Y-125475000D03*
D12*
X188500000Y-117855000D03*
D11*
X181300000Y-125475000D03*
D12*
X181300000Y-117855000D03*
D11*
X177700000Y-125465000D03*
D12*
X177700000Y-117845000D03*
D11*
X202900000Y-125495000D03*
D12*
X202900000Y-117875000D03*
D11*
X192100000Y-125485000D03*
D12*
X192100000Y-117865000D03*
D11*
X195700000Y-125495000D03*
D12*
X195700000Y-117875000D03*
D11*
X184900000Y-125485000D03*
D12*
X184900000Y-117865000D03*
D13*
X252300000Y-129265000D03*
D14*
X249760000Y-129265000D03*
X247220000Y-129265000D03*
X244680000Y-129265000D03*
X242140000Y-129265000D03*
X239600000Y-129265000D03*
X237060000Y-129265000D03*
X234520000Y-129265000D03*
X231980000Y-129265000D03*
X229440000Y-129265000D03*
X226900000Y-129265000D03*
X224360000Y-129265000D03*
X224360000Y-114025000D03*
X226900000Y-114025000D03*
X229440000Y-114025000D03*
X231980000Y-114025000D03*
X234520000Y-114025000D03*
X237060000Y-114025000D03*
X239600000Y-114025000D03*
X242140000Y-114025000D03*
X244680000Y-114025000D03*
X247220000Y-114025000D03*
X249760000Y-114025000D03*
X252300000Y-114025000D03*
%LPC*%
D15*
X174100000Y-125465000D03*
D16*
X174100000Y-117845000D03*
D15*
X213700000Y-125505000D03*
D16*
X213700000Y-117885000D03*
D15*
X206500000Y-125505000D03*
D16*
X206500000Y-117885000D03*
D15*
X199300000Y-125485000D03*
D16*
X199300000Y-117865000D03*
D15*
X210100000Y-125495000D03*
D16*
X210100000Y-117875000D03*
D17*
X150330000Y-144925000D03*
D18*
X155410000Y-144925000D03*
D17*
X160490000Y-144925000D03*
D19*
X157950000Y-139845000D03*
X151600000Y-142385000D03*
D15*
X188500000Y-125475000D03*
D16*
X188500000Y-117855000D03*
D17*
X207480000Y-161965000D03*
D18*
X212560000Y-161965000D03*
D17*
X217640000Y-161965000D03*
D19*
X215100000Y-156885000D03*
X208750000Y-159425000D03*
D20*
X245100000Y-144025000D03*
X256300000Y-144025000D03*
D21*
X248200000Y-137025000D03*
D22*
X248200000Y-151525000D03*
D21*
X253200000Y-151525000D03*
X250700000Y-151525000D03*
X253200000Y-137025000D03*
D17*
X245580000Y-162955000D03*
D18*
X250660000Y-162955000D03*
D17*
X255740000Y-162955000D03*
D19*
X253200000Y-157875000D03*
X246850000Y-160415000D03*
D15*
X181300000Y-125475000D03*
D16*
X181300000Y-117855000D03*
D17*
X150330000Y-163975000D03*
D18*
X155410000Y-163975000D03*
D17*
X160490000Y-163975000D03*
D19*
X157950000Y-158895000D03*
X151600000Y-161435000D03*
D17*
X188430000Y-159465000D03*
D18*
X193510000Y-159465000D03*
D17*
X198590000Y-159465000D03*
D19*
X196050000Y-154385000D03*
X189700000Y-156925000D03*
D17*
X169380000Y-161955000D03*
D18*
X174460000Y-161955000D03*
D17*
X179540000Y-161955000D03*
D19*
X177000000Y-156875000D03*
X170650000Y-159415000D03*
D17*
X226530000Y-162965000D03*
D18*
X231610000Y-162965000D03*
D17*
X236690000Y-162965000D03*
D19*
X234150000Y-157885000D03*
X227800000Y-160425000D03*
D15*
X177700000Y-125465000D03*
D16*
X177700000Y-117845000D03*
D15*
X202900000Y-125495000D03*
D16*
X202900000Y-117875000D03*
D15*
X192100000Y-125485000D03*
D16*
X192100000Y-117865000D03*
D15*
X195700000Y-125495000D03*
D16*
X195700000Y-117875000D03*
D23*
X152050000Y-135565000D03*
D24*
X155550000Y-131865000D03*
D25*
X158050000Y-133075000D03*
D23*
X159060000Y-135565000D03*
D25*
X153050000Y-133075000D03*
D15*
X184900000Y-125485000D03*
D16*
X184900000Y-117865000D03*
D17*
X188430000Y-140415000D03*
D18*
X193510000Y-140415000D03*
D17*
X198590000Y-140415000D03*
D19*
X196050000Y-135335000D03*
X189700000Y-137875000D03*
D17*
X226530000Y-143915000D03*
D18*
X231610000Y-143915000D03*
D17*
X236690000Y-143915000D03*
D19*
X234150000Y-138835000D03*
X227800000Y-141375000D03*
D17*
X169380000Y-142905000D03*
D18*
X174460000Y-142905000D03*
D17*
X179540000Y-142905000D03*
D19*
X177000000Y-137825000D03*
X170650000Y-140365000D03*
D17*
X207480000Y-142915000D03*
D18*
X212560000Y-142915000D03*
D17*
X217640000Y-142915000D03*
D19*
X215100000Y-137835000D03*
X208750000Y-140375000D03*
D26*
X219750000Y-117925000D03*
X219750000Y-120465000D03*
X219750000Y-123005000D03*
X219750000Y-125545000D03*
D27*
X252300000Y-129265000D03*
D28*
X249760000Y-129265000D03*
X247220000Y-129265000D03*
X244680000Y-129265000D03*
X242140000Y-129265000D03*
X239600000Y-129265000D03*
X237060000Y-129265000D03*
X234520000Y-129265000D03*
X231980000Y-129265000D03*
X229440000Y-129265000D03*
X226900000Y-129265000D03*
X224360000Y-129265000D03*
X224360000Y-114025000D03*
X226900000Y-114025000D03*
X229440000Y-114025000D03*
X231980000Y-114025000D03*
X234520000Y-114025000D03*
X237060000Y-114025000D03*
X239600000Y-114025000D03*
X242140000Y-114025000D03*
X244680000Y-114025000D03*
X247220000Y-114025000D03*
X249760000Y-114025000D03*
X252300000Y-114025000D03*
%LPD*%
M02*
