M48
; DRILL file {KiCad 7.0.9} date Mon 13 Nov 2023 03:47:54 PM GMT
; FORMAT={-:-/ absolute / metric / decimal}
; #@! TF.CreationDate,2023-11-13T15:47:54+00:00
; #@! TF.GenerationSoftware,Kicad,Pcbnew,7.0.9
; #@! TF.FileFunction,Plated,1,2,PTH
FMAT,2
METRIC
; #@! TA.AperFunction,Plated,PTH,ViaDrill
T1C0.400
; #@! TA.AperFunction,Plated,PTH,ComponentDrill
T2C0.813
; #@! TA.AperFunction,Plated,PTH,ComponentDrill
T3C0.990
; #@! TA.AperFunction,Plated,PTH,ComponentDrill
T4C0.991
; #@! TA.AperFunction,Plated,PTH,ComponentDrill
T5C1.000
; #@! TA.AperFunction,Plated,PTH,ComponentDrill
T6C1.092
; #@! TA.AperFunction,Plated,PTH,ComponentDrill
T7C1.300
; #@! TA.AperFunction,Plated,PTH,ComponentDrill
T8C1.500
%
G90
G05
T1
X200.9Y-131.175
X200.9Y-132.225
X200.9Y-133.275
X205.275Y-132.275
X205.275Y-133.275
X206.35Y-131.225
X242.05Y-137.025
X243.35Y-116.275
X244.6Y-135.2
T2
X219.75Y-117.925
X219.75Y-120.465
X219.75Y-123.005
X219.75Y-125.545
T3
X153.05Y-133.075
X158.05Y-133.075
T4
X174.1Y-117.845
X174.1Y-125.465
X177.7Y-117.845
X177.7Y-125.465
X181.3Y-117.855
X181.3Y-125.475
X184.9Y-117.865
X184.9Y-125.485
X188.5Y-117.855
X188.5Y-125.475
X192.1Y-117.865
X192.1Y-125.485
X195.7Y-117.875
X195.7Y-125.495
X199.3Y-117.865
X199.3Y-125.485
X202.9Y-117.875
X202.9Y-125.495
X206.5Y-117.885
X206.5Y-125.505
X210.1Y-117.875
X210.1Y-125.495
X213.7Y-117.885
X213.7Y-125.505
T5
X248.2Y-137.025
X248.2Y-151.525
X250.7Y-151.525
X253.2Y-137.025
X253.2Y-151.525
T6
X224.36Y-114.025
X224.36Y-129.265
X226.9Y-114.025
X226.9Y-129.265
X229.44Y-114.025
X229.44Y-129.265
X231.98Y-114.025
X231.98Y-129.265
X234.52Y-114.025
X234.52Y-129.265
X237.06Y-114.025
X237.06Y-129.265
X239.6Y-114.025
X239.6Y-129.265
X242.14Y-114.025
X242.14Y-129.265
X244.68Y-114.025
X244.68Y-129.265
X247.22Y-114.025
X247.22Y-129.265
X249.76Y-114.025
X249.76Y-129.265
X252.3Y-114.025
X252.3Y-129.265
T7
X152.05Y-135.565
X159.06Y-135.565
T8
X151.6Y-142.385
X151.6Y-161.435
X157.95Y-139.845
X157.95Y-158.895
X170.65Y-140.365
X170.65Y-159.415
X177.0Y-137.825
X177.0Y-156.875
X189.7Y-137.875
X189.7Y-156.925
X196.05Y-135.335
X196.05Y-154.385
X208.75Y-140.375
X208.75Y-159.425
X215.1Y-137.835
X215.1Y-156.885
X227.8Y-141.375
X227.8Y-160.425
X234.15Y-138.835
X234.15Y-157.885
X246.85Y-160.415
X253.2Y-157.875
T0
M30
