G04 #@! TF.GenerationSoftware,KiCad,Pcbnew,7.0.9*
G04 #@! TF.CreationDate,2023-11-13T15:49:31+00:00*
G04 #@! TF.ProjectId,Nixie-12R-base,4e697869-652d-4313-9252-2d626173652e,rev?*
G04 #@! TF.SameCoordinates,Original*
G04 #@! TF.FileFunction,Legend,Top*
G04 #@! TF.FilePolarity,Positive*
%FSLAX46Y46*%
G04 Gerber Fmt 4.6, Leading zero omitted, Abs format (unit mm)*
G04 Created by KiCad (PCBNEW 7.0.9) date 2023-11-13 15:49:31*
%MOMM*%
%LPD*%
G01*
G04 APERTURE LIST*
G04 Aperture macros list*
%AMRoundRect*
0 Rectangle with rounded corners*
0 $1 Rounding radius*
0 $2 $3 $4 $5 $6 $7 $8 $9 X,Y pos of 4 corners*
0 Add a 4 corners polygon primitive as box body*
4,1,4,$2,$3,$4,$5,$6,$7,$8,$9,$2,$3,0*
0 Add four circle primitives for the rounded corners*
1,1,$1+$1,$2,$3*
1,1,$1+$1,$4,$5*
1,1,$1+$1,$6,$7*
1,1,$1+$1,$8,$9*
0 Add four rect primitives between the rounded corners*
20,1,$1+$1,$2,$3,$4,$5,0*
20,1,$1+$1,$4,$5,$6,$7,0*
20,1,$1+$1,$6,$7,$8,$9,0*
20,1,$1+$1,$8,$9,$2,$3,0*%
G04 Aperture macros list end*
%ADD10C,0.400000*%
%ADD11C,0.100000*%
%ADD12RoundRect,1.059000X6.992000X6.992000X-6.992000X6.992000X-6.992000X-6.992000X6.992000X-6.992000X0*%
G04 APERTURE END LIST*
D10*
X250425000Y-125675000D02*
X254825000Y-125675000D01*
X256425000Y-125675000D02*
X260825000Y-125675000D01*
X262425000Y-125675000D02*
X264425000Y-125675000D01*
X264425000Y-125675000D02*
X264425000Y-130075000D01*
X264425000Y-131675000D02*
X264425000Y-136075000D01*
X264425000Y-137675000D02*
X264425000Y-139675000D01*
X264425000Y-139675000D02*
X260025000Y-139675000D01*
X258425000Y-139675000D02*
X254025000Y-139675000D01*
X252425000Y-139675000D02*
X250425000Y-139675000D01*
X250425000Y-139675000D02*
X250425000Y-135275000D01*
X250425000Y-133675000D02*
X250425000Y-129275000D01*
X250425000Y-127675000D02*
X250425000Y-125675000D01*
D11*
X194697931Y-160936228D02*
X194697931Y-159436228D01*
X194697931Y-159436228D02*
X195555074Y-160936228D01*
X195555074Y-160936228D02*
X195555074Y-159436228D01*
X196269360Y-160936228D02*
X196269360Y-159936228D01*
X196269360Y-159436228D02*
X196197932Y-159507657D01*
X196197932Y-159507657D02*
X196269360Y-159579085D01*
X196269360Y-159579085D02*
X196340789Y-159507657D01*
X196340789Y-159507657D02*
X196269360Y-159436228D01*
X196269360Y-159436228D02*
X196269360Y-159579085D01*
X196840789Y-160936228D02*
X197626504Y-159936228D01*
X196840789Y-159936228D02*
X197626504Y-160936228D01*
X198197932Y-160936228D02*
X198197932Y-159936228D01*
X198197932Y-159436228D02*
X198126504Y-159507657D01*
X198126504Y-159507657D02*
X198197932Y-159579085D01*
X198197932Y-159579085D02*
X198269361Y-159507657D01*
X198269361Y-159507657D02*
X198197932Y-159436228D01*
X198197932Y-159436228D02*
X198197932Y-159579085D01*
X199483647Y-160864800D02*
X199340790Y-160936228D01*
X199340790Y-160936228D02*
X199055076Y-160936228D01*
X199055076Y-160936228D02*
X198912218Y-160864800D01*
X198912218Y-160864800D02*
X198840790Y-160721942D01*
X198840790Y-160721942D02*
X198840790Y-160150514D01*
X198840790Y-160150514D02*
X198912218Y-160007657D01*
X198912218Y-160007657D02*
X199055076Y-159936228D01*
X199055076Y-159936228D02*
X199340790Y-159936228D01*
X199340790Y-159936228D02*
X199483647Y-160007657D01*
X199483647Y-160007657D02*
X199555076Y-160150514D01*
X199555076Y-160150514D02*
X199555076Y-160293371D01*
X199555076Y-160293371D02*
X198840790Y-160436228D01*
X200197932Y-160364800D02*
X201340790Y-160364800D01*
X202840790Y-160936228D02*
X201983647Y-160936228D01*
X202412218Y-160936228D02*
X202412218Y-159436228D01*
X202412218Y-159436228D02*
X202269361Y-159650514D01*
X202269361Y-159650514D02*
X202126504Y-159793371D01*
X202126504Y-159793371D02*
X201983647Y-159864800D01*
X203412218Y-159579085D02*
X203483646Y-159507657D01*
X203483646Y-159507657D02*
X203626504Y-159436228D01*
X203626504Y-159436228D02*
X203983646Y-159436228D01*
X203983646Y-159436228D02*
X204126504Y-159507657D01*
X204126504Y-159507657D02*
X204197932Y-159579085D01*
X204197932Y-159579085D02*
X204269361Y-159721942D01*
X204269361Y-159721942D02*
X204269361Y-159864800D01*
X204269361Y-159864800D02*
X204197932Y-160079085D01*
X204197932Y-160079085D02*
X203340789Y-160936228D01*
X203340789Y-160936228D02*
X204269361Y-160936228D01*
X205769360Y-160936228D02*
X205269360Y-160221942D01*
X204912217Y-160936228D02*
X204912217Y-159436228D01*
X204912217Y-159436228D02*
X205483646Y-159436228D01*
X205483646Y-159436228D02*
X205626503Y-159507657D01*
X205626503Y-159507657D02*
X205697932Y-159579085D01*
X205697932Y-159579085D02*
X205769360Y-159721942D01*
X205769360Y-159721942D02*
X205769360Y-159936228D01*
X205769360Y-159936228D02*
X205697932Y-160079085D01*
X205697932Y-160079085D02*
X205626503Y-160150514D01*
X205626503Y-160150514D02*
X205483646Y-160221942D01*
X205483646Y-160221942D02*
X204912217Y-160221942D01*
%LPC*%
D12*
X200175000Y-129025000D03*
X238275000Y-151575000D03*
X238275000Y-132525000D03*
X162075000Y-133535000D03*
X257325000Y-151565000D03*
X181125000Y-150565000D03*
X162075000Y-152585000D03*
X219225000Y-150575000D03*
X219225000Y-131525000D03*
X200175000Y-148075000D03*
X181125000Y-131515000D03*
%LPD*%
M02*
