G04 #@! TF.GenerationSoftware,KiCad,Pcbnew,7.0.9*
G04 #@! TF.CreationDate,2023-11-13T15:49:31+00:00*
G04 #@! TF.ProjectId,Nixie-12R-base,4e697869-652d-4313-9252-2d626173652e,rev?*
G04 #@! TF.SameCoordinates,Original*
G04 #@! TF.FileFunction,Soldermask,Top*
G04 #@! TF.FilePolarity,Negative*
%FSLAX46Y46*%
G04 Gerber Fmt 4.6, Leading zero omitted, Abs format (unit mm)*
G04 Created by KiCad (PCBNEW 7.0.9) date 2023-11-13 15:49:31*
%MOMM*%
%LPD*%
G01*
G04 APERTURE LIST*
G04 APERTURE END LIST*
G36*
X169077341Y-144535018D02*
G01*
X169211815Y-144544352D01*
X169240421Y-144551080D01*
X169273601Y-144554348D01*
X169340155Y-144574537D01*
X169403373Y-144589406D01*
X169434550Y-144603172D01*
X169472262Y-144614612D01*
X169528319Y-144644575D01*
X169582053Y-144668301D01*
X169615245Y-144691038D01*
X169655349Y-144712474D01*
X169699838Y-144748985D01*
X169743193Y-144778684D01*
X169775992Y-144811483D01*
X169815826Y-144844174D01*
X169848516Y-144884007D01*
X169881315Y-144916806D01*
X169911012Y-144960158D01*
X169947526Y-145004651D01*
X169968963Y-145044756D01*
X169991698Y-145077946D01*
X170015421Y-145131674D01*
X170045388Y-145187738D01*
X170056829Y-145225453D01*
X170070593Y-145256626D01*
X170085459Y-145319834D01*
X170105652Y-145386399D01*
X170108920Y-145419582D01*
X170115647Y-145448183D01*
X170124978Y-145582624D01*
X170126000Y-145593000D01*
X170126000Y-159577000D01*
X170124978Y-159587375D01*
X170115647Y-159721815D01*
X170108920Y-159750414D01*
X170105652Y-159783601D01*
X170085458Y-159850170D01*
X170070593Y-159913373D01*
X170056830Y-159944542D01*
X170045388Y-159982262D01*
X170015419Y-160038329D01*
X169991698Y-160092053D01*
X169968965Y-160125238D01*
X169947526Y-160165349D01*
X169911008Y-160209846D01*
X169881315Y-160253193D01*
X169848521Y-160285986D01*
X169815826Y-160325826D01*
X169775986Y-160358521D01*
X169743193Y-160391315D01*
X169699846Y-160421008D01*
X169655349Y-160457526D01*
X169615238Y-160478965D01*
X169582053Y-160501698D01*
X169528329Y-160525419D01*
X169472262Y-160555388D01*
X169434542Y-160566830D01*
X169403373Y-160580593D01*
X169340169Y-160595458D01*
X169273601Y-160615652D01*
X169240415Y-160618920D01*
X169211816Y-160625647D01*
X169077377Y-160634977D01*
X169067000Y-160636000D01*
X155083000Y-160636000D01*
X155072626Y-160634978D01*
X154938184Y-160625647D01*
X154909584Y-160618920D01*
X154876399Y-160615652D01*
X154809832Y-160595459D01*
X154746626Y-160580593D01*
X154715453Y-160566829D01*
X154677738Y-160555388D01*
X154621674Y-160525421D01*
X154567946Y-160501698D01*
X154534756Y-160478963D01*
X154494651Y-160457526D01*
X154450158Y-160421012D01*
X154406806Y-160391315D01*
X154374007Y-160358516D01*
X154334174Y-160325826D01*
X154301483Y-160285992D01*
X154268684Y-160253193D01*
X154238985Y-160209838D01*
X154202474Y-160165349D01*
X154181038Y-160125245D01*
X154158301Y-160092053D01*
X154134575Y-160038319D01*
X154104612Y-159982262D01*
X154093172Y-159944550D01*
X154079406Y-159913373D01*
X154064537Y-159850154D01*
X154044348Y-159783601D01*
X154041080Y-159750422D01*
X154034352Y-159721816D01*
X154025018Y-159587343D01*
X154024000Y-159577000D01*
X154024000Y-145593000D01*
X154025018Y-145582661D01*
X154034352Y-145448184D01*
X154041080Y-145419576D01*
X154044348Y-145386399D01*
X154064536Y-145319847D01*
X154079406Y-145256626D01*
X154093173Y-145225446D01*
X154104612Y-145187738D01*
X154134572Y-145131685D01*
X154158301Y-145077946D01*
X154181040Y-145044750D01*
X154202474Y-145004651D01*
X154238981Y-144960166D01*
X154268684Y-144916806D01*
X154301488Y-144884001D01*
X154334174Y-144844174D01*
X154374001Y-144811488D01*
X154406806Y-144778684D01*
X154450166Y-144748981D01*
X154494651Y-144712474D01*
X154534750Y-144691040D01*
X154567946Y-144668301D01*
X154621685Y-144644572D01*
X154677738Y-144614612D01*
X154715446Y-144603173D01*
X154746626Y-144589406D01*
X154809848Y-144574536D01*
X154876399Y-144554348D01*
X154909575Y-144551080D01*
X154938183Y-144544352D01*
X155072659Y-144535018D01*
X155083000Y-144534000D01*
X169067000Y-144534000D01*
X169077341Y-144535018D01*
G37*
G36*
X245277341Y-143525018D02*
G01*
X245411815Y-143534352D01*
X245440421Y-143541080D01*
X245473601Y-143544348D01*
X245540155Y-143564537D01*
X245603373Y-143579406D01*
X245634550Y-143593172D01*
X245672262Y-143604612D01*
X245728319Y-143634575D01*
X245782053Y-143658301D01*
X245815245Y-143681038D01*
X245855349Y-143702474D01*
X245899838Y-143738985D01*
X245943193Y-143768684D01*
X245975992Y-143801483D01*
X246015826Y-143834174D01*
X246048516Y-143874007D01*
X246081315Y-143906806D01*
X246111012Y-143950158D01*
X246147526Y-143994651D01*
X246168963Y-144034756D01*
X246191698Y-144067946D01*
X246215421Y-144121674D01*
X246245388Y-144177738D01*
X246256829Y-144215453D01*
X246270593Y-144246626D01*
X246285459Y-144309834D01*
X246305652Y-144376399D01*
X246308920Y-144409582D01*
X246315647Y-144438183D01*
X246324978Y-144572624D01*
X246326000Y-144583000D01*
X246326000Y-158567000D01*
X246324978Y-158577375D01*
X246315647Y-158711815D01*
X246308920Y-158740414D01*
X246305652Y-158773601D01*
X246285458Y-158840170D01*
X246270593Y-158903373D01*
X246256830Y-158934542D01*
X246245388Y-158972262D01*
X246215419Y-159028329D01*
X246191698Y-159082053D01*
X246168965Y-159115238D01*
X246147526Y-159155349D01*
X246111008Y-159199846D01*
X246081315Y-159243193D01*
X246048521Y-159275986D01*
X246015826Y-159315826D01*
X245975986Y-159348521D01*
X245943193Y-159381315D01*
X245899846Y-159411008D01*
X245855349Y-159447526D01*
X245815238Y-159468965D01*
X245782053Y-159491698D01*
X245728329Y-159515419D01*
X245672262Y-159545388D01*
X245634542Y-159556830D01*
X245603373Y-159570593D01*
X245540169Y-159585458D01*
X245473601Y-159605652D01*
X245440415Y-159608920D01*
X245411816Y-159615647D01*
X245277377Y-159624977D01*
X245267000Y-159626000D01*
X231283000Y-159626000D01*
X231272626Y-159624978D01*
X231138184Y-159615647D01*
X231109584Y-159608920D01*
X231076399Y-159605652D01*
X231009832Y-159585459D01*
X230946626Y-159570593D01*
X230915453Y-159556829D01*
X230877738Y-159545388D01*
X230821674Y-159515421D01*
X230767946Y-159491698D01*
X230734756Y-159468963D01*
X230694651Y-159447526D01*
X230650158Y-159411012D01*
X230606806Y-159381315D01*
X230574007Y-159348516D01*
X230534174Y-159315826D01*
X230501483Y-159275992D01*
X230468684Y-159243193D01*
X230438985Y-159199838D01*
X230402474Y-159155349D01*
X230381038Y-159115245D01*
X230358301Y-159082053D01*
X230334575Y-159028319D01*
X230304612Y-158972262D01*
X230293172Y-158934550D01*
X230279406Y-158903373D01*
X230264537Y-158840154D01*
X230244348Y-158773601D01*
X230241080Y-158740422D01*
X230234352Y-158711816D01*
X230225018Y-158577343D01*
X230224000Y-158567000D01*
X230224000Y-144583000D01*
X230225018Y-144572661D01*
X230234352Y-144438184D01*
X230241080Y-144409576D01*
X230244348Y-144376399D01*
X230264536Y-144309847D01*
X230279406Y-144246626D01*
X230293173Y-144215446D01*
X230304612Y-144177738D01*
X230334572Y-144121685D01*
X230358301Y-144067946D01*
X230381040Y-144034750D01*
X230402474Y-143994651D01*
X230438981Y-143950166D01*
X230468684Y-143906806D01*
X230501488Y-143874001D01*
X230534174Y-143834174D01*
X230574001Y-143801488D01*
X230606806Y-143768684D01*
X230650166Y-143738981D01*
X230694651Y-143702474D01*
X230734750Y-143681040D01*
X230767946Y-143658301D01*
X230821685Y-143634572D01*
X230877738Y-143604612D01*
X230915446Y-143593173D01*
X230946626Y-143579406D01*
X231009848Y-143564536D01*
X231076399Y-143544348D01*
X231109575Y-143541080D01*
X231138183Y-143534352D01*
X231272659Y-143525018D01*
X231283000Y-143524000D01*
X245267000Y-143524000D01*
X245277341Y-143525018D01*
G37*
G36*
X264327341Y-143515018D02*
G01*
X264461815Y-143524352D01*
X264490421Y-143531080D01*
X264523601Y-143534348D01*
X264590155Y-143554537D01*
X264653373Y-143569406D01*
X264684550Y-143583172D01*
X264722262Y-143594612D01*
X264778319Y-143624575D01*
X264832053Y-143648301D01*
X264865245Y-143671038D01*
X264905349Y-143692474D01*
X264949838Y-143728985D01*
X264993193Y-143758684D01*
X265025992Y-143791483D01*
X265065826Y-143824174D01*
X265098516Y-143864007D01*
X265131315Y-143896806D01*
X265161012Y-143940158D01*
X265197526Y-143984651D01*
X265218963Y-144024756D01*
X265241698Y-144057946D01*
X265265421Y-144111674D01*
X265295388Y-144167738D01*
X265306829Y-144205453D01*
X265320593Y-144236626D01*
X265335459Y-144299834D01*
X265355652Y-144366399D01*
X265358920Y-144399582D01*
X265365647Y-144428183D01*
X265374978Y-144562624D01*
X265376000Y-144573000D01*
X265376000Y-158557000D01*
X265374978Y-158567375D01*
X265365647Y-158701815D01*
X265358920Y-158730414D01*
X265355652Y-158763601D01*
X265335458Y-158830170D01*
X265320593Y-158893373D01*
X265306830Y-158924542D01*
X265295388Y-158962262D01*
X265265419Y-159018329D01*
X265241698Y-159072053D01*
X265218965Y-159105238D01*
X265197526Y-159145349D01*
X265161008Y-159189846D01*
X265131315Y-159233193D01*
X265098521Y-159265986D01*
X265065826Y-159305826D01*
X265025986Y-159338521D01*
X264993193Y-159371315D01*
X264949846Y-159401008D01*
X264905349Y-159437526D01*
X264865238Y-159458965D01*
X264832053Y-159481698D01*
X264778329Y-159505419D01*
X264722262Y-159535388D01*
X264684542Y-159546830D01*
X264653373Y-159560593D01*
X264590169Y-159575458D01*
X264523601Y-159595652D01*
X264490415Y-159598920D01*
X264461816Y-159605647D01*
X264327377Y-159614977D01*
X264317000Y-159616000D01*
X250333000Y-159616000D01*
X250322626Y-159614978D01*
X250188184Y-159605647D01*
X250159584Y-159598920D01*
X250126399Y-159595652D01*
X250059832Y-159575459D01*
X249996626Y-159560593D01*
X249965453Y-159546829D01*
X249927738Y-159535388D01*
X249871674Y-159505421D01*
X249817946Y-159481698D01*
X249784756Y-159458963D01*
X249744651Y-159437526D01*
X249700158Y-159401012D01*
X249656806Y-159371315D01*
X249624007Y-159338516D01*
X249584174Y-159305826D01*
X249551483Y-159265992D01*
X249518684Y-159233193D01*
X249488985Y-159189838D01*
X249452474Y-159145349D01*
X249431038Y-159105245D01*
X249408301Y-159072053D01*
X249384575Y-159018319D01*
X249354612Y-158962262D01*
X249343172Y-158924550D01*
X249329406Y-158893373D01*
X249314537Y-158830154D01*
X249294348Y-158763601D01*
X249291080Y-158730422D01*
X249284352Y-158701816D01*
X249275018Y-158567343D01*
X249274000Y-158557000D01*
X249274000Y-144573000D01*
X249275018Y-144562661D01*
X249284352Y-144428184D01*
X249291080Y-144399576D01*
X249294348Y-144366399D01*
X249314536Y-144299847D01*
X249329406Y-144236626D01*
X249343173Y-144205446D01*
X249354612Y-144167738D01*
X249384572Y-144111685D01*
X249408301Y-144057946D01*
X249431040Y-144024750D01*
X249452474Y-143984651D01*
X249488981Y-143940166D01*
X249518684Y-143896806D01*
X249551488Y-143864001D01*
X249584174Y-143824174D01*
X249624001Y-143791488D01*
X249656806Y-143758684D01*
X249700166Y-143728981D01*
X249744651Y-143692474D01*
X249784750Y-143671040D01*
X249817946Y-143648301D01*
X249871685Y-143624572D01*
X249927738Y-143594612D01*
X249965446Y-143583173D01*
X249996626Y-143569406D01*
X250059848Y-143554536D01*
X250126399Y-143534348D01*
X250159575Y-143531080D01*
X250188183Y-143524352D01*
X250322659Y-143515018D01*
X250333000Y-143514000D01*
X264317000Y-143514000D01*
X264327341Y-143515018D01*
G37*
G36*
X226227341Y-142525018D02*
G01*
X226361815Y-142534352D01*
X226390421Y-142541080D01*
X226423601Y-142544348D01*
X226490155Y-142564537D01*
X226553373Y-142579406D01*
X226584550Y-142593172D01*
X226622262Y-142604612D01*
X226678319Y-142634575D01*
X226732053Y-142658301D01*
X226765245Y-142681038D01*
X226805349Y-142702474D01*
X226849838Y-142738985D01*
X226893193Y-142768684D01*
X226925992Y-142801483D01*
X226965826Y-142834174D01*
X226998516Y-142874007D01*
X227031315Y-142906806D01*
X227061012Y-142950158D01*
X227097526Y-142994651D01*
X227118963Y-143034756D01*
X227141698Y-143067946D01*
X227165421Y-143121674D01*
X227195388Y-143177738D01*
X227206829Y-143215453D01*
X227220593Y-143246626D01*
X227235459Y-143309834D01*
X227255652Y-143376399D01*
X227258920Y-143409582D01*
X227265647Y-143438183D01*
X227274978Y-143572624D01*
X227276000Y-143583000D01*
X227276000Y-157567000D01*
X227274978Y-157577375D01*
X227265647Y-157711815D01*
X227258920Y-157740414D01*
X227255652Y-157773601D01*
X227235458Y-157840170D01*
X227220593Y-157903373D01*
X227206830Y-157934542D01*
X227195388Y-157972262D01*
X227165419Y-158028329D01*
X227141698Y-158082053D01*
X227118965Y-158115238D01*
X227097526Y-158155349D01*
X227061008Y-158199846D01*
X227031315Y-158243193D01*
X226998521Y-158275986D01*
X226965826Y-158315826D01*
X226925986Y-158348521D01*
X226893193Y-158381315D01*
X226849846Y-158411008D01*
X226805349Y-158447526D01*
X226765238Y-158468965D01*
X226732053Y-158491698D01*
X226678329Y-158515419D01*
X226622262Y-158545388D01*
X226584542Y-158556830D01*
X226553373Y-158570593D01*
X226490169Y-158585458D01*
X226423601Y-158605652D01*
X226390415Y-158608920D01*
X226361816Y-158615647D01*
X226227377Y-158624977D01*
X226217000Y-158626000D01*
X212233000Y-158626000D01*
X212222626Y-158624978D01*
X212088184Y-158615647D01*
X212059584Y-158608920D01*
X212026399Y-158605652D01*
X211959832Y-158585459D01*
X211896626Y-158570593D01*
X211865453Y-158556829D01*
X211827738Y-158545388D01*
X211771674Y-158515421D01*
X211717946Y-158491698D01*
X211684756Y-158468963D01*
X211644651Y-158447526D01*
X211600158Y-158411012D01*
X211556806Y-158381315D01*
X211524007Y-158348516D01*
X211484174Y-158315826D01*
X211451483Y-158275992D01*
X211418684Y-158243193D01*
X211388985Y-158199838D01*
X211352474Y-158155349D01*
X211331038Y-158115245D01*
X211308301Y-158082053D01*
X211284575Y-158028319D01*
X211254612Y-157972262D01*
X211243172Y-157934550D01*
X211229406Y-157903373D01*
X211214537Y-157840154D01*
X211194348Y-157773601D01*
X211191080Y-157740422D01*
X211184352Y-157711816D01*
X211175018Y-157577343D01*
X211174000Y-157567000D01*
X211174000Y-143583000D01*
X211175018Y-143572661D01*
X211184352Y-143438184D01*
X211191080Y-143409576D01*
X211194348Y-143376399D01*
X211214536Y-143309847D01*
X211229406Y-143246626D01*
X211243173Y-143215446D01*
X211254612Y-143177738D01*
X211284572Y-143121685D01*
X211308301Y-143067946D01*
X211331040Y-143034750D01*
X211352474Y-142994651D01*
X211388981Y-142950166D01*
X211418684Y-142906806D01*
X211451488Y-142874001D01*
X211484174Y-142834174D01*
X211524001Y-142801488D01*
X211556806Y-142768684D01*
X211600166Y-142738981D01*
X211644651Y-142702474D01*
X211684750Y-142681040D01*
X211717946Y-142658301D01*
X211771685Y-142634572D01*
X211827738Y-142604612D01*
X211865446Y-142593173D01*
X211896626Y-142579406D01*
X211959848Y-142564536D01*
X212026399Y-142544348D01*
X212059575Y-142541080D01*
X212088183Y-142534352D01*
X212222659Y-142525018D01*
X212233000Y-142524000D01*
X226217000Y-142524000D01*
X226227341Y-142525018D01*
G37*
G36*
X188127341Y-142515018D02*
G01*
X188261815Y-142524352D01*
X188290421Y-142531080D01*
X188323601Y-142534348D01*
X188390155Y-142554537D01*
X188453373Y-142569406D01*
X188484550Y-142583172D01*
X188522262Y-142594612D01*
X188578319Y-142624575D01*
X188632053Y-142648301D01*
X188665245Y-142671038D01*
X188705349Y-142692474D01*
X188749838Y-142728985D01*
X188793193Y-142758684D01*
X188825992Y-142791483D01*
X188865826Y-142824174D01*
X188898516Y-142864007D01*
X188931315Y-142896806D01*
X188961012Y-142940158D01*
X188997526Y-142984651D01*
X189018963Y-143024756D01*
X189041698Y-143057946D01*
X189065421Y-143111674D01*
X189095388Y-143167738D01*
X189106829Y-143205453D01*
X189120593Y-143236626D01*
X189135459Y-143299834D01*
X189155652Y-143366399D01*
X189158920Y-143399582D01*
X189165647Y-143428183D01*
X189174978Y-143562624D01*
X189176000Y-143573000D01*
X189176000Y-157557000D01*
X189174978Y-157567375D01*
X189165647Y-157701815D01*
X189158920Y-157730414D01*
X189155652Y-157763601D01*
X189135458Y-157830170D01*
X189120593Y-157893373D01*
X189106830Y-157924542D01*
X189095388Y-157962262D01*
X189065419Y-158018329D01*
X189041698Y-158072053D01*
X189018965Y-158105238D01*
X188997526Y-158145349D01*
X188961008Y-158189846D01*
X188931315Y-158233193D01*
X188898521Y-158265986D01*
X188865826Y-158305826D01*
X188825986Y-158338521D01*
X188793193Y-158371315D01*
X188749846Y-158401008D01*
X188705349Y-158437526D01*
X188665238Y-158458965D01*
X188632053Y-158481698D01*
X188578329Y-158505419D01*
X188522262Y-158535388D01*
X188484542Y-158546830D01*
X188453373Y-158560593D01*
X188390169Y-158575458D01*
X188323601Y-158595652D01*
X188290415Y-158598920D01*
X188261816Y-158605647D01*
X188127377Y-158614977D01*
X188117000Y-158616000D01*
X174133000Y-158616000D01*
X174122626Y-158614978D01*
X173988184Y-158605647D01*
X173959584Y-158598920D01*
X173926399Y-158595652D01*
X173859832Y-158575459D01*
X173796626Y-158560593D01*
X173765453Y-158546829D01*
X173727738Y-158535388D01*
X173671674Y-158505421D01*
X173617946Y-158481698D01*
X173584756Y-158458963D01*
X173544651Y-158437526D01*
X173500158Y-158401012D01*
X173456806Y-158371315D01*
X173424007Y-158338516D01*
X173384174Y-158305826D01*
X173351483Y-158265992D01*
X173318684Y-158233193D01*
X173288985Y-158189838D01*
X173252474Y-158145349D01*
X173231038Y-158105245D01*
X173208301Y-158072053D01*
X173184575Y-158018319D01*
X173154612Y-157962262D01*
X173143172Y-157924550D01*
X173129406Y-157893373D01*
X173114537Y-157830154D01*
X173094348Y-157763601D01*
X173091080Y-157730422D01*
X173084352Y-157701816D01*
X173075018Y-157567343D01*
X173074000Y-157557000D01*
X173074000Y-143573000D01*
X173075018Y-143562661D01*
X173084352Y-143428184D01*
X173091080Y-143399576D01*
X173094348Y-143366399D01*
X173114536Y-143299847D01*
X173129406Y-143236626D01*
X173143173Y-143205446D01*
X173154612Y-143167738D01*
X173184572Y-143111685D01*
X173208301Y-143057946D01*
X173231040Y-143024750D01*
X173252474Y-142984651D01*
X173288981Y-142940166D01*
X173318684Y-142896806D01*
X173351488Y-142864001D01*
X173384174Y-142824174D01*
X173424001Y-142791488D01*
X173456806Y-142758684D01*
X173500166Y-142728981D01*
X173544651Y-142692474D01*
X173584750Y-142671040D01*
X173617946Y-142648301D01*
X173671685Y-142624572D01*
X173727738Y-142594612D01*
X173765446Y-142583173D01*
X173796626Y-142569406D01*
X173859848Y-142554536D01*
X173926399Y-142534348D01*
X173959575Y-142531080D01*
X173988183Y-142524352D01*
X174122659Y-142515018D01*
X174133000Y-142514000D01*
X188117000Y-142514000D01*
X188127341Y-142515018D01*
G37*
G36*
X207177341Y-140025018D02*
G01*
X207311815Y-140034352D01*
X207340421Y-140041080D01*
X207373601Y-140044348D01*
X207440155Y-140064537D01*
X207503373Y-140079406D01*
X207534550Y-140093172D01*
X207572262Y-140104612D01*
X207628319Y-140134575D01*
X207682053Y-140158301D01*
X207715245Y-140181038D01*
X207755349Y-140202474D01*
X207799838Y-140238985D01*
X207843193Y-140268684D01*
X207875992Y-140301483D01*
X207915826Y-140334174D01*
X207948516Y-140374007D01*
X207981315Y-140406806D01*
X208011012Y-140450158D01*
X208047526Y-140494651D01*
X208068963Y-140534756D01*
X208091698Y-140567946D01*
X208115421Y-140621674D01*
X208145388Y-140677738D01*
X208156829Y-140715453D01*
X208170593Y-140746626D01*
X208185459Y-140809834D01*
X208205652Y-140876399D01*
X208208920Y-140909582D01*
X208215647Y-140938183D01*
X208224978Y-141072624D01*
X208226000Y-141083000D01*
X208226000Y-155067000D01*
X208224978Y-155077375D01*
X208215647Y-155211815D01*
X208208920Y-155240414D01*
X208205652Y-155273601D01*
X208185458Y-155340170D01*
X208170593Y-155403373D01*
X208156830Y-155434542D01*
X208145388Y-155472262D01*
X208115419Y-155528329D01*
X208091698Y-155582053D01*
X208068965Y-155615238D01*
X208047526Y-155655349D01*
X208011008Y-155699846D01*
X207981315Y-155743193D01*
X207948521Y-155775986D01*
X207915826Y-155815826D01*
X207875986Y-155848521D01*
X207843193Y-155881315D01*
X207799846Y-155911008D01*
X207755349Y-155947526D01*
X207715238Y-155968965D01*
X207682053Y-155991698D01*
X207628329Y-156015419D01*
X207572262Y-156045388D01*
X207534542Y-156056830D01*
X207503373Y-156070593D01*
X207440169Y-156085458D01*
X207373601Y-156105652D01*
X207340415Y-156108920D01*
X207311816Y-156115647D01*
X207177377Y-156124977D01*
X207167000Y-156126000D01*
X193183000Y-156126000D01*
X193172626Y-156124978D01*
X193038184Y-156115647D01*
X193009584Y-156108920D01*
X192976399Y-156105652D01*
X192909832Y-156085459D01*
X192846626Y-156070593D01*
X192815453Y-156056829D01*
X192777738Y-156045388D01*
X192721674Y-156015421D01*
X192667946Y-155991698D01*
X192634756Y-155968963D01*
X192594651Y-155947526D01*
X192550158Y-155911012D01*
X192506806Y-155881315D01*
X192474007Y-155848516D01*
X192434174Y-155815826D01*
X192401483Y-155775992D01*
X192368684Y-155743193D01*
X192338985Y-155699838D01*
X192302474Y-155655349D01*
X192281038Y-155615245D01*
X192258301Y-155582053D01*
X192234575Y-155528319D01*
X192204612Y-155472262D01*
X192193172Y-155434550D01*
X192179406Y-155403373D01*
X192164537Y-155340154D01*
X192144348Y-155273601D01*
X192141080Y-155240422D01*
X192134352Y-155211816D01*
X192125018Y-155077343D01*
X192124000Y-155067000D01*
X192124000Y-141083000D01*
X192125018Y-141072661D01*
X192134352Y-140938184D01*
X192141080Y-140909576D01*
X192144348Y-140876399D01*
X192164536Y-140809847D01*
X192179406Y-140746626D01*
X192193173Y-140715446D01*
X192204612Y-140677738D01*
X192234572Y-140621685D01*
X192258301Y-140567946D01*
X192281040Y-140534750D01*
X192302474Y-140494651D01*
X192338981Y-140450166D01*
X192368684Y-140406806D01*
X192401488Y-140374001D01*
X192434174Y-140334174D01*
X192474001Y-140301488D01*
X192506806Y-140268684D01*
X192550166Y-140238981D01*
X192594651Y-140202474D01*
X192634750Y-140181040D01*
X192667946Y-140158301D01*
X192721685Y-140134572D01*
X192777738Y-140104612D01*
X192815446Y-140093173D01*
X192846626Y-140079406D01*
X192909848Y-140064536D01*
X192976399Y-140044348D01*
X193009575Y-140041080D01*
X193038183Y-140034352D01*
X193172659Y-140025018D01*
X193183000Y-140024000D01*
X207167000Y-140024000D01*
X207177341Y-140025018D01*
G37*
G36*
X169077341Y-125485018D02*
G01*
X169211815Y-125494352D01*
X169240421Y-125501080D01*
X169273601Y-125504348D01*
X169340155Y-125524537D01*
X169403373Y-125539406D01*
X169434550Y-125553172D01*
X169472262Y-125564612D01*
X169528319Y-125594575D01*
X169582053Y-125618301D01*
X169615245Y-125641038D01*
X169655349Y-125662474D01*
X169699838Y-125698985D01*
X169743193Y-125728684D01*
X169775992Y-125761483D01*
X169815826Y-125794174D01*
X169848516Y-125834007D01*
X169881315Y-125866806D01*
X169911012Y-125910158D01*
X169947526Y-125954651D01*
X169968963Y-125994756D01*
X169991698Y-126027946D01*
X170015421Y-126081674D01*
X170045388Y-126137738D01*
X170056829Y-126175453D01*
X170070593Y-126206626D01*
X170085459Y-126269834D01*
X170105652Y-126336399D01*
X170108920Y-126369582D01*
X170115647Y-126398183D01*
X170124978Y-126532624D01*
X170126000Y-126543000D01*
X170126000Y-140527000D01*
X170124978Y-140537375D01*
X170115647Y-140671815D01*
X170108920Y-140700414D01*
X170105652Y-140733601D01*
X170085458Y-140800170D01*
X170070593Y-140863373D01*
X170056830Y-140894542D01*
X170045388Y-140932262D01*
X170015419Y-140988329D01*
X169991698Y-141042053D01*
X169968965Y-141075238D01*
X169947526Y-141115349D01*
X169911008Y-141159846D01*
X169881315Y-141203193D01*
X169848521Y-141235986D01*
X169815826Y-141275826D01*
X169775986Y-141308521D01*
X169743193Y-141341315D01*
X169699846Y-141371008D01*
X169655349Y-141407526D01*
X169615238Y-141428965D01*
X169582053Y-141451698D01*
X169528329Y-141475419D01*
X169472262Y-141505388D01*
X169434542Y-141516830D01*
X169403373Y-141530593D01*
X169340169Y-141545458D01*
X169273601Y-141565652D01*
X169240415Y-141568920D01*
X169211816Y-141575647D01*
X169077377Y-141584977D01*
X169067000Y-141586000D01*
X155083000Y-141586000D01*
X155072626Y-141584978D01*
X154938184Y-141575647D01*
X154909584Y-141568920D01*
X154876399Y-141565652D01*
X154809832Y-141545459D01*
X154746626Y-141530593D01*
X154715453Y-141516829D01*
X154677738Y-141505388D01*
X154621674Y-141475421D01*
X154567946Y-141451698D01*
X154534756Y-141428963D01*
X154494651Y-141407526D01*
X154450158Y-141371012D01*
X154406806Y-141341315D01*
X154374007Y-141308516D01*
X154334174Y-141275826D01*
X154301483Y-141235992D01*
X154268684Y-141203193D01*
X154238985Y-141159838D01*
X154202474Y-141115349D01*
X154181038Y-141075245D01*
X154158301Y-141042053D01*
X154134575Y-140988319D01*
X154104612Y-140932262D01*
X154093172Y-140894550D01*
X154079406Y-140863373D01*
X154064537Y-140800154D01*
X154044348Y-140733601D01*
X154041080Y-140700422D01*
X154034352Y-140671816D01*
X154025018Y-140537343D01*
X154024000Y-140527000D01*
X154024000Y-126543000D01*
X154025018Y-126532661D01*
X154034352Y-126398184D01*
X154041080Y-126369576D01*
X154044348Y-126336399D01*
X154064536Y-126269847D01*
X154079406Y-126206626D01*
X154093173Y-126175446D01*
X154104612Y-126137738D01*
X154134572Y-126081685D01*
X154158301Y-126027946D01*
X154181040Y-125994750D01*
X154202474Y-125954651D01*
X154238981Y-125910166D01*
X154268684Y-125866806D01*
X154301488Y-125834001D01*
X154334174Y-125794174D01*
X154374001Y-125761488D01*
X154406806Y-125728684D01*
X154450166Y-125698981D01*
X154494651Y-125662474D01*
X154534750Y-125641040D01*
X154567946Y-125618301D01*
X154621685Y-125594572D01*
X154677738Y-125564612D01*
X154715446Y-125553173D01*
X154746626Y-125539406D01*
X154809848Y-125524536D01*
X154876399Y-125504348D01*
X154909575Y-125501080D01*
X154938183Y-125494352D01*
X155072659Y-125485018D01*
X155083000Y-125484000D01*
X169067000Y-125484000D01*
X169077341Y-125485018D01*
G37*
G36*
X245277341Y-124475018D02*
G01*
X245411815Y-124484352D01*
X245440421Y-124491080D01*
X245473601Y-124494348D01*
X245540155Y-124514537D01*
X245603373Y-124529406D01*
X245634550Y-124543172D01*
X245672262Y-124554612D01*
X245728319Y-124584575D01*
X245782053Y-124608301D01*
X245815245Y-124631038D01*
X245855349Y-124652474D01*
X245899838Y-124688985D01*
X245943193Y-124718684D01*
X245975992Y-124751483D01*
X246015826Y-124784174D01*
X246048516Y-124824007D01*
X246081315Y-124856806D01*
X246111012Y-124900158D01*
X246147526Y-124944651D01*
X246168963Y-124984756D01*
X246191698Y-125017946D01*
X246215421Y-125071674D01*
X246245388Y-125127738D01*
X246256829Y-125165453D01*
X246270593Y-125196626D01*
X246285459Y-125259834D01*
X246305652Y-125326399D01*
X246308920Y-125359582D01*
X246315647Y-125388183D01*
X246324978Y-125522624D01*
X246326000Y-125533000D01*
X246326000Y-139517000D01*
X246324978Y-139527375D01*
X246315647Y-139661815D01*
X246308920Y-139690414D01*
X246305652Y-139723601D01*
X246285458Y-139790170D01*
X246270593Y-139853373D01*
X246256830Y-139884542D01*
X246245388Y-139922262D01*
X246215419Y-139978329D01*
X246191698Y-140032053D01*
X246168965Y-140065238D01*
X246147526Y-140105349D01*
X246111008Y-140149846D01*
X246081315Y-140193193D01*
X246048521Y-140225986D01*
X246015826Y-140265826D01*
X245975986Y-140298521D01*
X245943193Y-140331315D01*
X245899846Y-140361008D01*
X245855349Y-140397526D01*
X245815238Y-140418965D01*
X245782053Y-140441698D01*
X245728329Y-140465419D01*
X245672262Y-140495388D01*
X245634542Y-140506830D01*
X245603373Y-140520593D01*
X245540169Y-140535458D01*
X245473601Y-140555652D01*
X245440415Y-140558920D01*
X245411816Y-140565647D01*
X245277377Y-140574977D01*
X245267000Y-140576000D01*
X231283000Y-140576000D01*
X231272626Y-140574978D01*
X231138184Y-140565647D01*
X231109584Y-140558920D01*
X231076399Y-140555652D01*
X231009832Y-140535459D01*
X230946626Y-140520593D01*
X230915453Y-140506829D01*
X230877738Y-140495388D01*
X230821674Y-140465421D01*
X230767946Y-140441698D01*
X230734756Y-140418963D01*
X230694651Y-140397526D01*
X230650158Y-140361012D01*
X230606806Y-140331315D01*
X230574007Y-140298516D01*
X230534174Y-140265826D01*
X230501483Y-140225992D01*
X230468684Y-140193193D01*
X230438985Y-140149838D01*
X230402474Y-140105349D01*
X230381038Y-140065245D01*
X230358301Y-140032053D01*
X230334575Y-139978319D01*
X230304612Y-139922262D01*
X230293172Y-139884550D01*
X230279406Y-139853373D01*
X230264537Y-139790154D01*
X230244348Y-139723601D01*
X230241080Y-139690422D01*
X230234352Y-139661816D01*
X230225018Y-139527343D01*
X230224000Y-139517000D01*
X230224000Y-125533000D01*
X230225018Y-125522661D01*
X230234352Y-125388184D01*
X230241080Y-125359576D01*
X230244348Y-125326399D01*
X230264536Y-125259847D01*
X230279406Y-125196626D01*
X230293173Y-125165446D01*
X230304612Y-125127738D01*
X230334572Y-125071685D01*
X230358301Y-125017946D01*
X230381040Y-124984750D01*
X230402474Y-124944651D01*
X230438981Y-124900166D01*
X230468684Y-124856806D01*
X230501488Y-124824001D01*
X230534174Y-124784174D01*
X230574001Y-124751488D01*
X230606806Y-124718684D01*
X230650166Y-124688981D01*
X230694651Y-124652474D01*
X230734750Y-124631040D01*
X230767946Y-124608301D01*
X230821685Y-124584572D01*
X230877738Y-124554612D01*
X230915446Y-124543173D01*
X230946626Y-124529406D01*
X231009848Y-124514536D01*
X231076399Y-124494348D01*
X231109575Y-124491080D01*
X231138183Y-124484352D01*
X231272659Y-124475018D01*
X231283000Y-124474000D01*
X245267000Y-124474000D01*
X245277341Y-124475018D01*
G37*
G36*
X226227341Y-123475018D02*
G01*
X226361815Y-123484352D01*
X226390421Y-123491080D01*
X226423601Y-123494348D01*
X226490155Y-123514537D01*
X226553373Y-123529406D01*
X226584550Y-123543172D01*
X226622262Y-123554612D01*
X226678319Y-123584575D01*
X226732053Y-123608301D01*
X226765245Y-123631038D01*
X226805349Y-123652474D01*
X226849838Y-123688985D01*
X226893193Y-123718684D01*
X226925992Y-123751483D01*
X226965826Y-123784174D01*
X226998516Y-123824007D01*
X227031315Y-123856806D01*
X227061012Y-123900158D01*
X227097526Y-123944651D01*
X227118963Y-123984756D01*
X227141698Y-124017946D01*
X227165421Y-124071674D01*
X227195388Y-124127738D01*
X227206829Y-124165453D01*
X227220593Y-124196626D01*
X227235459Y-124259834D01*
X227255652Y-124326399D01*
X227258920Y-124359582D01*
X227265647Y-124388183D01*
X227274978Y-124522624D01*
X227276000Y-124533000D01*
X227276000Y-138517000D01*
X227274978Y-138527375D01*
X227265647Y-138661815D01*
X227258920Y-138690414D01*
X227255652Y-138723601D01*
X227235458Y-138790170D01*
X227220593Y-138853373D01*
X227206830Y-138884542D01*
X227195388Y-138922262D01*
X227165419Y-138978329D01*
X227141698Y-139032053D01*
X227118965Y-139065238D01*
X227097526Y-139105349D01*
X227061008Y-139149846D01*
X227031315Y-139193193D01*
X226998521Y-139225986D01*
X226965826Y-139265826D01*
X226925986Y-139298521D01*
X226893193Y-139331315D01*
X226849846Y-139361008D01*
X226805349Y-139397526D01*
X226765238Y-139418965D01*
X226732053Y-139441698D01*
X226678329Y-139465419D01*
X226622262Y-139495388D01*
X226584542Y-139506830D01*
X226553373Y-139520593D01*
X226490169Y-139535458D01*
X226423601Y-139555652D01*
X226390415Y-139558920D01*
X226361816Y-139565647D01*
X226227377Y-139574977D01*
X226217000Y-139576000D01*
X212233000Y-139576000D01*
X212222626Y-139574978D01*
X212088184Y-139565647D01*
X212059584Y-139558920D01*
X212026399Y-139555652D01*
X211959832Y-139535459D01*
X211896626Y-139520593D01*
X211865453Y-139506829D01*
X211827738Y-139495388D01*
X211771674Y-139465421D01*
X211717946Y-139441698D01*
X211684756Y-139418963D01*
X211644651Y-139397526D01*
X211600158Y-139361012D01*
X211556806Y-139331315D01*
X211524007Y-139298516D01*
X211484174Y-139265826D01*
X211451483Y-139225992D01*
X211418684Y-139193193D01*
X211388985Y-139149838D01*
X211352474Y-139105349D01*
X211331038Y-139065245D01*
X211308301Y-139032053D01*
X211284575Y-138978319D01*
X211254612Y-138922262D01*
X211243172Y-138884550D01*
X211229406Y-138853373D01*
X211214537Y-138790154D01*
X211194348Y-138723601D01*
X211191080Y-138690422D01*
X211184352Y-138661816D01*
X211175018Y-138527343D01*
X211174000Y-138517000D01*
X211174000Y-124533000D01*
X211175018Y-124522661D01*
X211184352Y-124388184D01*
X211191080Y-124359576D01*
X211194348Y-124326399D01*
X211214536Y-124259847D01*
X211229406Y-124196626D01*
X211243173Y-124165446D01*
X211254612Y-124127738D01*
X211284572Y-124071685D01*
X211308301Y-124017946D01*
X211331040Y-123984750D01*
X211352474Y-123944651D01*
X211388981Y-123900166D01*
X211418684Y-123856806D01*
X211451488Y-123824001D01*
X211484174Y-123784174D01*
X211524001Y-123751488D01*
X211556806Y-123718684D01*
X211600166Y-123688981D01*
X211644651Y-123652474D01*
X211684750Y-123631040D01*
X211717946Y-123608301D01*
X211771685Y-123584572D01*
X211827738Y-123554612D01*
X211865446Y-123543173D01*
X211896626Y-123529406D01*
X211959848Y-123514536D01*
X212026399Y-123494348D01*
X212059575Y-123491080D01*
X212088183Y-123484352D01*
X212222659Y-123475018D01*
X212233000Y-123474000D01*
X226217000Y-123474000D01*
X226227341Y-123475018D01*
G37*
G36*
X188127341Y-123465018D02*
G01*
X188261815Y-123474352D01*
X188290421Y-123481080D01*
X188323601Y-123484348D01*
X188390155Y-123504537D01*
X188453373Y-123519406D01*
X188484550Y-123533172D01*
X188522262Y-123544612D01*
X188578319Y-123574575D01*
X188632053Y-123598301D01*
X188665245Y-123621038D01*
X188705349Y-123642474D01*
X188749838Y-123678985D01*
X188793193Y-123708684D01*
X188825992Y-123741483D01*
X188865826Y-123774174D01*
X188898516Y-123814007D01*
X188931315Y-123846806D01*
X188961012Y-123890158D01*
X188997526Y-123934651D01*
X189018963Y-123974756D01*
X189041698Y-124007946D01*
X189065421Y-124061674D01*
X189095388Y-124117738D01*
X189106829Y-124155453D01*
X189120593Y-124186626D01*
X189135459Y-124249834D01*
X189155652Y-124316399D01*
X189158920Y-124349582D01*
X189165647Y-124378183D01*
X189174978Y-124512624D01*
X189176000Y-124523000D01*
X189176000Y-138507000D01*
X189174978Y-138517375D01*
X189165647Y-138651815D01*
X189158920Y-138680414D01*
X189155652Y-138713601D01*
X189135458Y-138780170D01*
X189120593Y-138843373D01*
X189106830Y-138874542D01*
X189095388Y-138912262D01*
X189065419Y-138968329D01*
X189041698Y-139022053D01*
X189018965Y-139055238D01*
X188997526Y-139095349D01*
X188961008Y-139139846D01*
X188931315Y-139183193D01*
X188898521Y-139215986D01*
X188865826Y-139255826D01*
X188825986Y-139288521D01*
X188793193Y-139321315D01*
X188749846Y-139351008D01*
X188705349Y-139387526D01*
X188665238Y-139408965D01*
X188632053Y-139431698D01*
X188578329Y-139455419D01*
X188522262Y-139485388D01*
X188484542Y-139496830D01*
X188453373Y-139510593D01*
X188390169Y-139525458D01*
X188323601Y-139545652D01*
X188290415Y-139548920D01*
X188261816Y-139555647D01*
X188127377Y-139564977D01*
X188117000Y-139566000D01*
X174133000Y-139566000D01*
X174122626Y-139564978D01*
X173988184Y-139555647D01*
X173959584Y-139548920D01*
X173926399Y-139545652D01*
X173859832Y-139525459D01*
X173796626Y-139510593D01*
X173765453Y-139496829D01*
X173727738Y-139485388D01*
X173671674Y-139455421D01*
X173617946Y-139431698D01*
X173584756Y-139408963D01*
X173544651Y-139387526D01*
X173500158Y-139351012D01*
X173456806Y-139321315D01*
X173424007Y-139288516D01*
X173384174Y-139255826D01*
X173351483Y-139215992D01*
X173318684Y-139183193D01*
X173288985Y-139139838D01*
X173252474Y-139095349D01*
X173231038Y-139055245D01*
X173208301Y-139022053D01*
X173184575Y-138968319D01*
X173154612Y-138912262D01*
X173143172Y-138874550D01*
X173129406Y-138843373D01*
X173114537Y-138780154D01*
X173094348Y-138713601D01*
X173091080Y-138680422D01*
X173084352Y-138651816D01*
X173075018Y-138517343D01*
X173074000Y-138507000D01*
X173074000Y-124523000D01*
X173075018Y-124512661D01*
X173084352Y-124378184D01*
X173091080Y-124349576D01*
X173094348Y-124316399D01*
X173114536Y-124249847D01*
X173129406Y-124186626D01*
X173143173Y-124155446D01*
X173154612Y-124117738D01*
X173184572Y-124061685D01*
X173208301Y-124007946D01*
X173231040Y-123974750D01*
X173252474Y-123934651D01*
X173288981Y-123890166D01*
X173318684Y-123846806D01*
X173351488Y-123814001D01*
X173384174Y-123774174D01*
X173424001Y-123741488D01*
X173456806Y-123708684D01*
X173500166Y-123678981D01*
X173544651Y-123642474D01*
X173584750Y-123621040D01*
X173617946Y-123598301D01*
X173671685Y-123574572D01*
X173727738Y-123544612D01*
X173765446Y-123533173D01*
X173796626Y-123519406D01*
X173859848Y-123504536D01*
X173926399Y-123484348D01*
X173959575Y-123481080D01*
X173988183Y-123474352D01*
X174122659Y-123465018D01*
X174133000Y-123464000D01*
X188117000Y-123464000D01*
X188127341Y-123465018D01*
G37*
G36*
X207177341Y-120975018D02*
G01*
X207311815Y-120984352D01*
X207340421Y-120991080D01*
X207373601Y-120994348D01*
X207440155Y-121014537D01*
X207503373Y-121029406D01*
X207534550Y-121043172D01*
X207572262Y-121054612D01*
X207628319Y-121084575D01*
X207682053Y-121108301D01*
X207715245Y-121131038D01*
X207755349Y-121152474D01*
X207799838Y-121188985D01*
X207843193Y-121218684D01*
X207875992Y-121251483D01*
X207915826Y-121284174D01*
X207948516Y-121324007D01*
X207981315Y-121356806D01*
X208011012Y-121400158D01*
X208047526Y-121444651D01*
X208068963Y-121484756D01*
X208091698Y-121517946D01*
X208115421Y-121571674D01*
X208145388Y-121627738D01*
X208156829Y-121665453D01*
X208170593Y-121696626D01*
X208185459Y-121759834D01*
X208205652Y-121826399D01*
X208208920Y-121859582D01*
X208215647Y-121888183D01*
X208224978Y-122022624D01*
X208226000Y-122033000D01*
X208226000Y-136017000D01*
X208224978Y-136027375D01*
X208215647Y-136161815D01*
X208208920Y-136190414D01*
X208205652Y-136223601D01*
X208185458Y-136290170D01*
X208170593Y-136353373D01*
X208156830Y-136384542D01*
X208145388Y-136422262D01*
X208115419Y-136478329D01*
X208091698Y-136532053D01*
X208068965Y-136565238D01*
X208047526Y-136605349D01*
X208011008Y-136649846D01*
X207981315Y-136693193D01*
X207948521Y-136725986D01*
X207915826Y-136765826D01*
X207875986Y-136798521D01*
X207843193Y-136831315D01*
X207799846Y-136861008D01*
X207755349Y-136897526D01*
X207715238Y-136918965D01*
X207682053Y-136941698D01*
X207628329Y-136965419D01*
X207572262Y-136995388D01*
X207534542Y-137006830D01*
X207503373Y-137020593D01*
X207440169Y-137035458D01*
X207373601Y-137055652D01*
X207340415Y-137058920D01*
X207311816Y-137065647D01*
X207177377Y-137074977D01*
X207167000Y-137076000D01*
X193183000Y-137076000D01*
X193172626Y-137074978D01*
X193038184Y-137065647D01*
X193009584Y-137058920D01*
X192976399Y-137055652D01*
X192909832Y-137035459D01*
X192846626Y-137020593D01*
X192815453Y-137006829D01*
X192777738Y-136995388D01*
X192721674Y-136965421D01*
X192667946Y-136941698D01*
X192634756Y-136918963D01*
X192594651Y-136897526D01*
X192550158Y-136861012D01*
X192506806Y-136831315D01*
X192474007Y-136798516D01*
X192434174Y-136765826D01*
X192401483Y-136725992D01*
X192368684Y-136693193D01*
X192338985Y-136649838D01*
X192302474Y-136605349D01*
X192281038Y-136565245D01*
X192258301Y-136532053D01*
X192234575Y-136478319D01*
X192204612Y-136422262D01*
X192193172Y-136384550D01*
X192179406Y-136353373D01*
X192164537Y-136290154D01*
X192144348Y-136223601D01*
X192141080Y-136190422D01*
X192134352Y-136161816D01*
X192125018Y-136027343D01*
X192124000Y-136017000D01*
X192124000Y-122033000D01*
X192125018Y-122022661D01*
X192134352Y-121888184D01*
X192141080Y-121859576D01*
X192144348Y-121826399D01*
X192164536Y-121759847D01*
X192179406Y-121696626D01*
X192193173Y-121665446D01*
X192204612Y-121627738D01*
X192234572Y-121571685D01*
X192258301Y-121517946D01*
X192281040Y-121484750D01*
X192302474Y-121444651D01*
X192338981Y-121400166D01*
X192368684Y-121356806D01*
X192401488Y-121324001D01*
X192434174Y-121284174D01*
X192474001Y-121251488D01*
X192506806Y-121218684D01*
X192550166Y-121188981D01*
X192594651Y-121152474D01*
X192634750Y-121131040D01*
X192667946Y-121108301D01*
X192721685Y-121084572D01*
X192777738Y-121054612D01*
X192815446Y-121043173D01*
X192846626Y-121029406D01*
X192909848Y-121014536D01*
X192976399Y-120994348D01*
X193009575Y-120991080D01*
X193038183Y-120984352D01*
X193172659Y-120975018D01*
X193183000Y-120974000D01*
X207167000Y-120974000D01*
X207177341Y-120975018D01*
G37*
M02*
