%TF.GenerationSoftware,KiCad,Pcbnew,7.0.8*%
%TF.CreationDate,2023-11-12T23:27:01+00:00*%
%TF.ProjectId,Nixie-12R-pcb,4e697869-652d-4313-9252-2d7063622e6b,rev?*%
%TF.SameCoordinates,Original*%
%TF.FileFunction,Drillmap*%
%TF.FilePolarity,Positive*%
%FSLAX45Y45*%
G04 Gerber Fmt 4.5, Leading zero omitted, Abs format (unit mm)*
G04 Created by KiCad (PCBNEW 7.0.8) date 2023-11-12 23:27:01*
%MOMM*%
%LPD*%
G01*
G04 APERTURE LIST*
%ADD10C,0.050000*%
%ADD11C,0.200000*%
%ADD12C,0.040000*%
%ADD13C,0.081280*%
%ADD14C,0.099000*%
%ADD15C,0.099060*%
%ADD16C,0.100000*%
%ADD17C,0.109220*%
%ADD18C,0.130000*%
%ADD19C,0.150000*%
G04 APERTURE END LIST*
D10*
X26250008Y-13273553D02*
X26250000Y-16975000D01*
X17246053Y-11115000D02*
X25500000Y-11115000D01*
X14693549Y-13024996D02*
X16746447Y-13025000D01*
X25750000Y-17475000D02*
X14695000Y-17474786D01*
X25750004Y-11363553D02*
G75*
G03*
X25500000Y-11115000I-248554J3D01*
G01*
X25750006Y-12776447D02*
G75*
G03*
X26000004Y-13025000I248554J-3D01*
G01*
X26250004Y-13273553D02*
G75*
G03*
X26000004Y-13025000I-248554J3D01*
G01*
X14444990Y-17226233D02*
G75*
G03*
X14695000Y-17474786I248560J3D01*
G01*
X14444996Y-17226233D02*
X14444996Y-13275000D01*
X17246053Y-11114996D02*
G75*
G03*
X16997500Y-11365004I7J-248564D01*
G01*
X14693549Y-13024992D02*
G75*
G03*
X14444996Y-13275000I1J-248558D01*
G01*
X25750004Y-11363553D02*
X25750000Y-12776447D01*
X19752500Y-11097500D02*
X19752500Y-11102500D01*
X25750000Y-17475000D02*
G75*
G03*
X26250000Y-16975000I0J500000D01*
G01*
X16995000Y-12774996D02*
X16995000Y-11365004D01*
X16746447Y-13025004D02*
G75*
G03*
X16995000Y-12774996I3J248554D01*
G01*
D11*
D12*
X20070000Y-13097500D02*
X20110000Y-13137500D01*
X20110000Y-13097500D02*
X20070000Y-13137500D01*
X20070000Y-13202500D02*
X20110000Y-13242500D01*
X20110000Y-13202500D02*
X20070000Y-13242500D01*
X20070000Y-13307500D02*
X20110000Y-13347500D01*
X20110000Y-13307500D02*
X20070000Y-13347500D01*
X20507500Y-13207500D02*
X20547500Y-13247500D01*
X20547500Y-13207500D02*
X20507500Y-13247500D01*
X20507500Y-13307500D02*
X20547500Y-13347500D01*
X20547500Y-13307500D02*
X20507500Y-13347500D01*
X20615000Y-13102500D02*
X20655000Y-13142500D01*
X20655000Y-13102500D02*
X20615000Y-13142500D01*
X24185000Y-13682500D02*
X24225000Y-13722500D01*
X24225000Y-13682500D02*
X24185000Y-13722500D01*
X24315000Y-11607500D02*
X24355000Y-11647500D01*
X24355000Y-11607500D02*
X24315000Y-11647500D01*
X24440000Y-13500000D02*
X24480000Y-13540000D01*
X24480000Y-13500000D02*
X24440000Y-13540000D01*
D13*
X22015640Y-11792500D02*
G75*
G03*
X22015640Y-11792500I-40640J0D01*
G01*
X22015640Y-12046500D02*
G75*
G03*
X22015640Y-12046500I-40640J0D01*
G01*
X22015640Y-12300500D02*
G75*
G03*
X22015640Y-12300500I-40640J0D01*
G01*
X22015640Y-12554500D02*
G75*
G03*
X22015640Y-12554500I-40640J0D01*
G01*
D14*
X15305000Y-13258000D02*
X15305000Y-13357000D01*
X15255500Y-13307500D02*
X15354500Y-13307500D01*
X15805000Y-13258000D02*
X15805000Y-13357000D01*
X15755500Y-13307500D02*
X15854500Y-13307500D01*
D15*
X17445023Y-11819523D02*
X17445023Y-11749477D01*
X17374977Y-11749477D01*
X17374977Y-11819523D01*
X17445023Y-11819523D01*
X17445023Y-12581523D02*
X17445023Y-12511477D01*
X17374977Y-12511477D01*
X17374977Y-12581523D01*
X17445023Y-12581523D01*
X17805023Y-11819523D02*
X17805023Y-11749477D01*
X17734977Y-11749477D01*
X17734977Y-11819523D01*
X17805023Y-11819523D01*
X17805023Y-12581523D02*
X17805023Y-12511477D01*
X17734977Y-12511477D01*
X17734977Y-12581523D01*
X17805023Y-12581523D01*
X18165023Y-11820523D02*
X18165023Y-11750477D01*
X18094977Y-11750477D01*
X18094977Y-11820523D01*
X18165023Y-11820523D01*
X18165023Y-12582523D02*
X18165023Y-12512477D01*
X18094977Y-12512477D01*
X18094977Y-12582523D01*
X18165023Y-12582523D01*
X18525023Y-11821523D02*
X18525023Y-11751477D01*
X18454977Y-11751477D01*
X18454977Y-11821523D01*
X18525023Y-11821523D01*
X18525023Y-12583523D02*
X18525023Y-12513477D01*
X18454977Y-12513477D01*
X18454977Y-12583523D01*
X18525023Y-12583523D01*
X18885023Y-11820523D02*
X18885023Y-11750477D01*
X18814977Y-11750477D01*
X18814977Y-11820523D01*
X18885023Y-11820523D01*
X18885023Y-12582523D02*
X18885023Y-12512477D01*
X18814977Y-12512477D01*
X18814977Y-12582523D01*
X18885023Y-12582523D01*
X19245023Y-11821523D02*
X19245023Y-11751477D01*
X19174977Y-11751477D01*
X19174977Y-11821523D01*
X19245023Y-11821523D01*
X19245023Y-12583523D02*
X19245023Y-12513477D01*
X19174977Y-12513477D01*
X19174977Y-12583523D01*
X19245023Y-12583523D01*
X19605023Y-11822523D02*
X19605023Y-11752477D01*
X19534977Y-11752477D01*
X19534977Y-11822523D01*
X19605023Y-11822523D01*
X19605023Y-12584523D02*
X19605023Y-12514477D01*
X19534977Y-12514477D01*
X19534977Y-12584523D01*
X19605023Y-12584523D01*
X19965023Y-11821523D02*
X19965023Y-11751477D01*
X19894977Y-11751477D01*
X19894977Y-11821523D01*
X19965023Y-11821523D01*
X19965023Y-12583523D02*
X19965023Y-12513477D01*
X19894977Y-12513477D01*
X19894977Y-12583523D01*
X19965023Y-12583523D01*
X20325023Y-11822523D02*
X20325023Y-11752477D01*
X20254977Y-11752477D01*
X20254977Y-11822523D01*
X20325023Y-11822523D01*
X20325023Y-12584523D02*
X20325023Y-12514477D01*
X20254977Y-12514477D01*
X20254977Y-12584523D01*
X20325023Y-12584523D01*
X20685023Y-11823523D02*
X20685023Y-11753477D01*
X20614977Y-11753477D01*
X20614977Y-11823523D01*
X20685023Y-11823523D01*
X20685023Y-12585523D02*
X20685023Y-12515477D01*
X20614977Y-12515477D01*
X20614977Y-12585523D01*
X20685023Y-12585523D01*
X21045023Y-11822523D02*
X21045023Y-11752477D01*
X20974977Y-11752477D01*
X20974977Y-11822523D01*
X21045023Y-11822523D01*
X21045023Y-12584523D02*
X21045023Y-12514477D01*
X20974977Y-12514477D01*
X20974977Y-12584523D01*
X21045023Y-12584523D01*
X21405023Y-11823523D02*
X21405023Y-11753477D01*
X21334977Y-11753477D01*
X21334977Y-11823523D01*
X21405023Y-11823523D01*
X21405023Y-12585523D02*
X21405023Y-12515477D01*
X21334977Y-12515477D01*
X21334977Y-12585523D01*
X21405023Y-12585523D01*
D16*
X24820000Y-13752500D02*
X24870000Y-13702500D01*
X24820000Y-13652500D01*
X24770000Y-13702500D01*
X24820000Y-13752500D01*
X24820000Y-15202500D02*
X24870000Y-15152500D01*
X24820000Y-15102500D01*
X24770000Y-15152500D01*
X24820000Y-15202500D01*
X25070000Y-15202500D02*
X25120000Y-15152500D01*
X25070000Y-15102500D01*
X25020000Y-15152500D01*
X25070000Y-15202500D01*
X25320000Y-13752500D02*
X25370000Y-13702500D01*
X25320000Y-13652500D01*
X25270000Y-13702500D01*
X25320000Y-13752500D01*
X25320000Y-15202500D02*
X25370000Y-15152500D01*
X25320000Y-15102500D01*
X25270000Y-15152500D01*
X25320000Y-15202500D01*
D17*
X22381390Y-11347890D02*
X22490610Y-11457110D01*
X22490610Y-11347890D02*
X22381390Y-11457110D01*
X22490610Y-11402500D02*
G75*
G03*
X22490610Y-11402500I-54610J0D01*
G01*
X22381390Y-12871890D02*
X22490610Y-12981110D01*
X22490610Y-12871890D02*
X22381390Y-12981110D01*
X22490610Y-12926500D02*
G75*
G03*
X22490610Y-12926500I-54610J0D01*
G01*
X22635390Y-11347890D02*
X22744610Y-11457110D01*
X22744610Y-11347890D02*
X22635390Y-11457110D01*
X22744610Y-11402500D02*
G75*
G03*
X22744610Y-11402500I-54610J0D01*
G01*
X22635390Y-12871890D02*
X22744610Y-12981110D01*
X22744610Y-12871890D02*
X22635390Y-12981110D01*
X22744610Y-12926500D02*
G75*
G03*
X22744610Y-12926500I-54610J0D01*
G01*
X22889390Y-11347890D02*
X22998610Y-11457110D01*
X22998610Y-11347890D02*
X22889390Y-11457110D01*
X22998610Y-11402500D02*
G75*
G03*
X22998610Y-11402500I-54610J0D01*
G01*
X22889390Y-12871890D02*
X22998610Y-12981110D01*
X22998610Y-12871890D02*
X22889390Y-12981110D01*
X22998610Y-12926500D02*
G75*
G03*
X22998610Y-12926500I-54610J0D01*
G01*
X23143390Y-11347890D02*
X23252610Y-11457110D01*
X23252610Y-11347890D02*
X23143390Y-11457110D01*
X23252610Y-11402500D02*
G75*
G03*
X23252610Y-11402500I-54610J0D01*
G01*
X23143390Y-12871890D02*
X23252610Y-12981110D01*
X23252610Y-12871890D02*
X23143390Y-12981110D01*
X23252610Y-12926500D02*
G75*
G03*
X23252610Y-12926500I-54610J0D01*
G01*
X23397390Y-11347890D02*
X23506610Y-11457110D01*
X23506610Y-11347890D02*
X23397390Y-11457110D01*
X23506610Y-11402500D02*
G75*
G03*
X23506610Y-11402500I-54610J0D01*
G01*
X23397390Y-12871890D02*
X23506610Y-12981110D01*
X23506610Y-12871890D02*
X23397390Y-12981110D01*
X23506610Y-12926500D02*
G75*
G03*
X23506610Y-12926500I-54610J0D01*
G01*
X23651390Y-11347890D02*
X23760610Y-11457110D01*
X23760610Y-11347890D02*
X23651390Y-11457110D01*
X23760610Y-11402500D02*
G75*
G03*
X23760610Y-11402500I-54610J0D01*
G01*
X23651390Y-12871890D02*
X23760610Y-12981110D01*
X23760610Y-12871890D02*
X23651390Y-12981110D01*
X23760610Y-12926500D02*
G75*
G03*
X23760610Y-12926500I-54610J0D01*
G01*
X23905390Y-11347890D02*
X24014610Y-11457110D01*
X24014610Y-11347890D02*
X23905390Y-11457110D01*
X24014610Y-11402500D02*
G75*
G03*
X24014610Y-11402500I-54610J0D01*
G01*
X23905390Y-12871890D02*
X24014610Y-12981110D01*
X24014610Y-12871890D02*
X23905390Y-12981110D01*
X24014610Y-12926500D02*
G75*
G03*
X24014610Y-12926500I-54610J0D01*
G01*
X24159390Y-11347890D02*
X24268610Y-11457110D01*
X24268610Y-11347890D02*
X24159390Y-11457110D01*
X24268610Y-11402500D02*
G75*
G03*
X24268610Y-11402500I-54610J0D01*
G01*
X24159390Y-12871890D02*
X24268610Y-12981110D01*
X24268610Y-12871890D02*
X24159390Y-12981110D01*
X24268610Y-12926500D02*
G75*
G03*
X24268610Y-12926500I-54610J0D01*
G01*
X24413390Y-11347890D02*
X24522610Y-11457110D01*
X24522610Y-11347890D02*
X24413390Y-11457110D01*
X24522610Y-11402500D02*
G75*
G03*
X24522610Y-11402500I-54610J0D01*
G01*
X24413390Y-12871890D02*
X24522610Y-12981110D01*
X24522610Y-12871890D02*
X24413390Y-12981110D01*
X24522610Y-12926500D02*
G75*
G03*
X24522610Y-12926500I-54610J0D01*
G01*
X24667390Y-11347890D02*
X24776610Y-11457110D01*
X24776610Y-11347890D02*
X24667390Y-11457110D01*
X24776610Y-11402500D02*
G75*
G03*
X24776610Y-11402500I-54610J0D01*
G01*
X24667390Y-12871890D02*
X24776610Y-12981110D01*
X24776610Y-12871890D02*
X24667390Y-12981110D01*
X24776610Y-12926500D02*
G75*
G03*
X24776610Y-12926500I-54610J0D01*
G01*
X24921390Y-11347890D02*
X25030610Y-11457110D01*
X25030610Y-11347890D02*
X24921390Y-11457110D01*
X25030610Y-11402500D02*
G75*
G03*
X25030610Y-11402500I-54610J0D01*
G01*
X24921390Y-12871890D02*
X25030610Y-12981110D01*
X25030610Y-12871890D02*
X24921390Y-12981110D01*
X25030610Y-12926500D02*
G75*
G03*
X25030610Y-12926500I-54610J0D01*
G01*
X25175390Y-11347890D02*
X25284610Y-11457110D01*
X25284610Y-11347890D02*
X25175390Y-11457110D01*
X25284610Y-11402500D02*
G75*
G03*
X25284610Y-11402500I-54610J0D01*
G01*
X25175390Y-12871890D02*
X25284610Y-12981110D01*
X25284610Y-12871890D02*
X25175390Y-12981110D01*
X25284610Y-12926500D02*
G75*
G03*
X25284610Y-12926500I-54610J0D01*
G01*
D18*
X15140000Y-13491500D02*
X15270000Y-13621500D01*
X15270000Y-13491500D02*
X15140000Y-13621500D01*
X15205000Y-13491500D02*
X15205000Y-13621500D01*
X15140000Y-13556500D02*
X15270000Y-13556500D01*
X15841000Y-13491500D02*
X15971000Y-13621500D01*
X15971000Y-13491500D02*
X15841000Y-13621500D01*
X15906000Y-13491500D02*
X15906000Y-13621500D01*
X15841000Y-13556500D02*
X15971000Y-13556500D01*
D19*
X15085000Y-14163500D02*
X15235000Y-14313500D01*
X15235000Y-14163500D02*
X15085000Y-14313500D01*
X15213033Y-14291533D02*
X15213033Y-14185466D01*
X15106966Y-14185466D01*
X15106966Y-14291533D01*
X15213033Y-14291533D01*
X15085000Y-16068500D02*
X15235000Y-16218500D01*
X15235000Y-16068500D02*
X15085000Y-16218500D01*
X15213033Y-16196533D02*
X15213033Y-16090466D01*
X15106966Y-16090466D01*
X15106966Y-16196533D01*
X15213033Y-16196533D01*
X15720000Y-13909500D02*
X15870000Y-14059500D01*
X15870000Y-13909500D02*
X15720000Y-14059500D01*
X15848033Y-14037533D02*
X15848033Y-13931466D01*
X15741966Y-13931466D01*
X15741966Y-14037533D01*
X15848033Y-14037533D01*
X15720000Y-15814500D02*
X15870000Y-15964500D01*
X15870000Y-15814500D02*
X15720000Y-15964500D01*
X15848033Y-15942533D02*
X15848033Y-15836466D01*
X15741966Y-15836466D01*
X15741966Y-15942533D01*
X15848033Y-15942533D01*
X16990000Y-13961500D02*
X17140000Y-14111500D01*
X17140000Y-13961500D02*
X16990000Y-14111500D01*
X17118034Y-14089533D02*
X17118034Y-13983466D01*
X17011967Y-13983466D01*
X17011967Y-14089533D01*
X17118034Y-14089533D01*
X16990000Y-15866500D02*
X17140000Y-16016500D01*
X17140000Y-15866500D02*
X16990000Y-16016500D01*
X17118034Y-15994533D02*
X17118034Y-15888466D01*
X17011967Y-15888466D01*
X17011967Y-15994533D01*
X17118034Y-15994533D01*
X17625000Y-13707500D02*
X17775000Y-13857500D01*
X17775000Y-13707500D02*
X17625000Y-13857500D01*
X17753034Y-13835533D02*
X17753034Y-13729466D01*
X17646967Y-13729466D01*
X17646967Y-13835533D01*
X17753034Y-13835533D01*
X17625000Y-15612500D02*
X17775000Y-15762500D01*
X17775000Y-15612500D02*
X17625000Y-15762500D01*
X17753034Y-15740533D02*
X17753034Y-15634466D01*
X17646967Y-15634466D01*
X17646967Y-15740533D01*
X17753034Y-15740533D01*
X18895000Y-13712500D02*
X19045000Y-13862500D01*
X19045000Y-13712500D02*
X18895000Y-13862500D01*
X19023034Y-13840533D02*
X19023034Y-13734466D01*
X18916967Y-13734466D01*
X18916967Y-13840533D01*
X19023034Y-13840533D01*
X18895000Y-15617500D02*
X19045000Y-15767500D01*
X19045000Y-15617500D02*
X18895000Y-15767500D01*
X19023034Y-15745533D02*
X19023034Y-15639466D01*
X18916967Y-15639466D01*
X18916967Y-15745533D01*
X19023034Y-15745533D01*
X19530000Y-13458500D02*
X19680000Y-13608500D01*
X19680000Y-13458500D02*
X19530000Y-13608500D01*
X19658034Y-13586533D02*
X19658034Y-13480466D01*
X19551967Y-13480466D01*
X19551967Y-13586533D01*
X19658034Y-13586533D01*
X19530000Y-15363500D02*
X19680000Y-15513500D01*
X19680000Y-15363500D02*
X19530000Y-15513500D01*
X19658034Y-15491533D02*
X19658034Y-15385466D01*
X19551967Y-15385466D01*
X19551967Y-15491533D01*
X19658034Y-15491533D01*
X20800000Y-13962500D02*
X20950000Y-14112500D01*
X20950000Y-13962500D02*
X20800000Y-14112500D01*
X20928034Y-14090533D02*
X20928034Y-13984466D01*
X20821967Y-13984466D01*
X20821967Y-14090533D01*
X20928034Y-14090533D01*
X20800000Y-15867500D02*
X20950000Y-16017500D01*
X20950000Y-15867500D02*
X20800000Y-16017500D01*
X20928034Y-15995533D02*
X20928034Y-15889466D01*
X20821967Y-15889466D01*
X20821967Y-15995533D01*
X20928034Y-15995533D01*
X21435000Y-13708500D02*
X21585000Y-13858500D01*
X21585000Y-13708500D02*
X21435000Y-13858500D01*
X21563034Y-13836533D02*
X21563034Y-13730466D01*
X21456967Y-13730466D01*
X21456967Y-13836533D01*
X21563034Y-13836533D01*
X21435000Y-15613500D02*
X21585000Y-15763500D01*
X21585000Y-15613500D02*
X21435000Y-15763500D01*
X21563034Y-15741533D02*
X21563034Y-15635466D01*
X21456967Y-15635466D01*
X21456967Y-15741533D01*
X21563034Y-15741533D01*
X22705000Y-14062500D02*
X22855000Y-14212500D01*
X22855000Y-14062500D02*
X22705000Y-14212500D01*
X22833033Y-14190533D02*
X22833033Y-14084466D01*
X22726966Y-14084466D01*
X22726966Y-14190533D01*
X22833033Y-14190533D01*
X22705000Y-15967500D02*
X22855000Y-16117500D01*
X22855000Y-15967500D02*
X22705000Y-16117500D01*
X22833033Y-16095533D02*
X22833033Y-15989466D01*
X22726966Y-15989466D01*
X22726966Y-16095533D01*
X22833033Y-16095533D01*
X23340000Y-13808500D02*
X23490000Y-13958500D01*
X23490000Y-13808500D02*
X23340000Y-13958500D01*
X23468033Y-13936533D02*
X23468033Y-13830466D01*
X23361966Y-13830466D01*
X23361966Y-13936533D01*
X23468033Y-13936533D01*
X23340000Y-15713500D02*
X23490000Y-15863500D01*
X23490000Y-15713500D02*
X23340000Y-15863500D01*
X23468033Y-15841533D02*
X23468033Y-15735466D01*
X23361966Y-15735466D01*
X23361966Y-15841533D01*
X23468033Y-15841533D01*
X24610000Y-15966500D02*
X24760000Y-16116500D01*
X24760000Y-15966500D02*
X24610000Y-16116500D01*
X24738033Y-16094533D02*
X24738033Y-15988466D01*
X24631966Y-15988466D01*
X24631966Y-16094533D01*
X24738033Y-16094533D01*
X25245000Y-15712500D02*
X25395000Y-15862500D01*
X25395000Y-15712500D02*
X25245000Y-15862500D01*
X25373033Y-15840533D02*
X25373033Y-15734466D01*
X25266966Y-15734466D01*
X25266966Y-15840533D01*
X25373033Y-15840533D01*
D11*
X14703268Y-17788984D02*
X14703268Y-17588984D01*
X14703268Y-17588984D02*
X14750887Y-17588984D01*
X14750887Y-17588984D02*
X14779459Y-17598508D01*
X14779459Y-17598508D02*
X14798507Y-17617555D01*
X14798507Y-17617555D02*
X14808030Y-17636603D01*
X14808030Y-17636603D02*
X14817554Y-17674698D01*
X14817554Y-17674698D02*
X14817554Y-17703270D01*
X14817554Y-17703270D02*
X14808030Y-17741365D01*
X14808030Y-17741365D02*
X14798507Y-17760412D01*
X14798507Y-17760412D02*
X14779459Y-17779460D01*
X14779459Y-17779460D02*
X14750887Y-17788984D01*
X14750887Y-17788984D02*
X14703268Y-17788984D01*
X14903268Y-17788984D02*
X14903268Y-17655650D01*
X14903268Y-17693746D02*
X14912792Y-17674698D01*
X14912792Y-17674698D02*
X14922316Y-17665174D01*
X14922316Y-17665174D02*
X14941364Y-17655650D01*
X14941364Y-17655650D02*
X14960411Y-17655650D01*
X15027078Y-17788984D02*
X15027078Y-17655650D01*
X15027078Y-17588984D02*
X15017554Y-17598508D01*
X15017554Y-17598508D02*
X15027078Y-17608031D01*
X15027078Y-17608031D02*
X15036602Y-17598508D01*
X15036602Y-17598508D02*
X15027078Y-17588984D01*
X15027078Y-17588984D02*
X15027078Y-17608031D01*
X15150887Y-17788984D02*
X15131840Y-17779460D01*
X15131840Y-17779460D02*
X15122316Y-17760412D01*
X15122316Y-17760412D02*
X15122316Y-17588984D01*
X15255649Y-17788984D02*
X15236602Y-17779460D01*
X15236602Y-17779460D02*
X15227078Y-17760412D01*
X15227078Y-17760412D02*
X15227078Y-17588984D01*
X15484221Y-17788984D02*
X15484221Y-17588984D01*
X15484221Y-17588984D02*
X15550888Y-17731841D01*
X15550888Y-17731841D02*
X15617554Y-17588984D01*
X15617554Y-17588984D02*
X15617554Y-17788984D01*
X15798507Y-17788984D02*
X15798507Y-17684222D01*
X15798507Y-17684222D02*
X15788983Y-17665174D01*
X15788983Y-17665174D02*
X15769935Y-17655650D01*
X15769935Y-17655650D02*
X15731840Y-17655650D01*
X15731840Y-17655650D02*
X15712792Y-17665174D01*
X15798507Y-17779460D02*
X15779459Y-17788984D01*
X15779459Y-17788984D02*
X15731840Y-17788984D01*
X15731840Y-17788984D02*
X15712792Y-17779460D01*
X15712792Y-17779460D02*
X15703268Y-17760412D01*
X15703268Y-17760412D02*
X15703268Y-17741365D01*
X15703268Y-17741365D02*
X15712792Y-17722317D01*
X15712792Y-17722317D02*
X15731840Y-17712793D01*
X15731840Y-17712793D02*
X15779459Y-17712793D01*
X15779459Y-17712793D02*
X15798507Y-17703270D01*
X15893745Y-17655650D02*
X15893745Y-17855650D01*
X15893745Y-17665174D02*
X15912792Y-17655650D01*
X15912792Y-17655650D02*
X15950888Y-17655650D01*
X15950888Y-17655650D02*
X15969935Y-17665174D01*
X15969935Y-17665174D02*
X15979459Y-17674698D01*
X15979459Y-17674698D02*
X15988983Y-17693746D01*
X15988983Y-17693746D02*
X15988983Y-17750889D01*
X15988983Y-17750889D02*
X15979459Y-17769936D01*
X15979459Y-17769936D02*
X15969935Y-17779460D01*
X15969935Y-17779460D02*
X15950888Y-17788984D01*
X15950888Y-17788984D02*
X15912792Y-17788984D01*
X15912792Y-17788984D02*
X15893745Y-17779460D01*
X16074697Y-17769936D02*
X16084221Y-17779460D01*
X16084221Y-17779460D02*
X16074697Y-17788984D01*
X16074697Y-17788984D02*
X16065173Y-17779460D01*
X16065173Y-17779460D02*
X16074697Y-17769936D01*
X16074697Y-17769936D02*
X16074697Y-17788984D01*
X16074697Y-17665174D02*
X16084221Y-17674698D01*
X16084221Y-17674698D02*
X16074697Y-17684222D01*
X16074697Y-17684222D02*
X16065173Y-17674698D01*
X16065173Y-17674698D02*
X16074697Y-17665174D01*
X16074697Y-17665174D02*
X16074697Y-17684222D01*
D12*
X14402492Y-18097500D02*
X14442492Y-18137500D01*
X14442492Y-18097500D02*
X14402492Y-18137500D01*
D11*
X14741364Y-18008984D02*
X14760411Y-18008984D01*
X14760411Y-18008984D02*
X14779459Y-18018508D01*
X14779459Y-18018508D02*
X14788983Y-18028031D01*
X14788983Y-18028031D02*
X14798507Y-18047079D01*
X14798507Y-18047079D02*
X14808030Y-18085174D01*
X14808030Y-18085174D02*
X14808030Y-18132793D01*
X14808030Y-18132793D02*
X14798507Y-18170889D01*
X14798507Y-18170889D02*
X14788983Y-18189936D01*
X14788983Y-18189936D02*
X14779459Y-18199460D01*
X14779459Y-18199460D02*
X14760411Y-18208984D01*
X14760411Y-18208984D02*
X14741364Y-18208984D01*
X14741364Y-18208984D02*
X14722316Y-18199460D01*
X14722316Y-18199460D02*
X14712792Y-18189936D01*
X14712792Y-18189936D02*
X14703268Y-18170889D01*
X14703268Y-18170889D02*
X14693745Y-18132793D01*
X14693745Y-18132793D02*
X14693745Y-18085174D01*
X14693745Y-18085174D02*
X14703268Y-18047079D01*
X14703268Y-18047079D02*
X14712792Y-18028031D01*
X14712792Y-18028031D02*
X14722316Y-18018508D01*
X14722316Y-18018508D02*
X14741364Y-18008984D01*
X14893745Y-18189936D02*
X14903268Y-18199460D01*
X14903268Y-18199460D02*
X14893745Y-18208984D01*
X14893745Y-18208984D02*
X14884221Y-18199460D01*
X14884221Y-18199460D02*
X14893745Y-18189936D01*
X14893745Y-18189936D02*
X14893745Y-18208984D01*
X15074697Y-18075650D02*
X15074697Y-18208984D01*
X15027078Y-17999460D02*
X14979459Y-18142317D01*
X14979459Y-18142317D02*
X15103268Y-18142317D01*
X15217554Y-18008984D02*
X15236602Y-18008984D01*
X15236602Y-18008984D02*
X15255649Y-18018508D01*
X15255649Y-18018508D02*
X15265173Y-18028031D01*
X15265173Y-18028031D02*
X15274697Y-18047079D01*
X15274697Y-18047079D02*
X15284221Y-18085174D01*
X15284221Y-18085174D02*
X15284221Y-18132793D01*
X15284221Y-18132793D02*
X15274697Y-18170889D01*
X15274697Y-18170889D02*
X15265173Y-18189936D01*
X15265173Y-18189936D02*
X15255649Y-18199460D01*
X15255649Y-18199460D02*
X15236602Y-18208984D01*
X15236602Y-18208984D02*
X15217554Y-18208984D01*
X15217554Y-18208984D02*
X15198507Y-18199460D01*
X15198507Y-18199460D02*
X15188983Y-18189936D01*
X15188983Y-18189936D02*
X15179459Y-18170889D01*
X15179459Y-18170889D02*
X15169935Y-18132793D01*
X15169935Y-18132793D02*
X15169935Y-18085174D01*
X15169935Y-18085174D02*
X15179459Y-18047079D01*
X15179459Y-18047079D02*
X15188983Y-18028031D01*
X15188983Y-18028031D02*
X15198507Y-18018508D01*
X15198507Y-18018508D02*
X15217554Y-18008984D01*
X15408030Y-18008984D02*
X15427078Y-18008984D01*
X15427078Y-18008984D02*
X15446126Y-18018508D01*
X15446126Y-18018508D02*
X15455649Y-18028031D01*
X15455649Y-18028031D02*
X15465173Y-18047079D01*
X15465173Y-18047079D02*
X15474697Y-18085174D01*
X15474697Y-18085174D02*
X15474697Y-18132793D01*
X15474697Y-18132793D02*
X15465173Y-18170889D01*
X15465173Y-18170889D02*
X15455649Y-18189936D01*
X15455649Y-18189936D02*
X15446126Y-18199460D01*
X15446126Y-18199460D02*
X15427078Y-18208984D01*
X15427078Y-18208984D02*
X15408030Y-18208984D01*
X15408030Y-18208984D02*
X15388983Y-18199460D01*
X15388983Y-18199460D02*
X15379459Y-18189936D01*
X15379459Y-18189936D02*
X15369935Y-18170889D01*
X15369935Y-18170889D02*
X15360411Y-18132793D01*
X15360411Y-18132793D02*
X15360411Y-18085174D01*
X15360411Y-18085174D02*
X15369935Y-18047079D01*
X15369935Y-18047079D02*
X15379459Y-18028031D01*
X15379459Y-18028031D02*
X15388983Y-18018508D01*
X15388983Y-18018508D02*
X15408030Y-18008984D01*
X15560411Y-18208984D02*
X15560411Y-18075650D01*
X15560411Y-18094698D02*
X15569935Y-18085174D01*
X15569935Y-18085174D02*
X15588983Y-18075650D01*
X15588983Y-18075650D02*
X15617554Y-18075650D01*
X15617554Y-18075650D02*
X15636602Y-18085174D01*
X15636602Y-18085174D02*
X15646126Y-18104222D01*
X15646126Y-18104222D02*
X15646126Y-18208984D01*
X15646126Y-18104222D02*
X15655649Y-18085174D01*
X15655649Y-18085174D02*
X15674697Y-18075650D01*
X15674697Y-18075650D02*
X15703268Y-18075650D01*
X15703268Y-18075650D02*
X15722316Y-18085174D01*
X15722316Y-18085174D02*
X15731840Y-18104222D01*
X15731840Y-18104222D02*
X15731840Y-18208984D01*
X15827078Y-18208984D02*
X15827078Y-18075650D01*
X15827078Y-18094698D02*
X15836602Y-18085174D01*
X15836602Y-18085174D02*
X15855649Y-18075650D01*
X15855649Y-18075650D02*
X15884221Y-18075650D01*
X15884221Y-18075650D02*
X15903269Y-18085174D01*
X15903269Y-18085174D02*
X15912792Y-18104222D01*
X15912792Y-18104222D02*
X15912792Y-18208984D01*
X15912792Y-18104222D02*
X15922316Y-18085174D01*
X15922316Y-18085174D02*
X15941364Y-18075650D01*
X15941364Y-18075650D02*
X15969935Y-18075650D01*
X15969935Y-18075650D02*
X15988983Y-18085174D01*
X15988983Y-18085174D02*
X15998507Y-18104222D01*
X15998507Y-18104222D02*
X15998507Y-18208984D01*
X16388983Y-17999460D02*
X16217554Y-18256603D01*
X16646126Y-18008984D02*
X16665173Y-18008984D01*
X16665173Y-18008984D02*
X16684221Y-18018508D01*
X16684221Y-18018508D02*
X16693745Y-18028031D01*
X16693745Y-18028031D02*
X16703269Y-18047079D01*
X16703269Y-18047079D02*
X16712792Y-18085174D01*
X16712792Y-18085174D02*
X16712792Y-18132793D01*
X16712792Y-18132793D02*
X16703269Y-18170889D01*
X16703269Y-18170889D02*
X16693745Y-18189936D01*
X16693745Y-18189936D02*
X16684221Y-18199460D01*
X16684221Y-18199460D02*
X16665173Y-18208984D01*
X16665173Y-18208984D02*
X16646126Y-18208984D01*
X16646126Y-18208984D02*
X16627078Y-18199460D01*
X16627078Y-18199460D02*
X16617554Y-18189936D01*
X16617554Y-18189936D02*
X16608031Y-18170889D01*
X16608031Y-18170889D02*
X16598507Y-18132793D01*
X16598507Y-18132793D02*
X16598507Y-18085174D01*
X16598507Y-18085174D02*
X16608031Y-18047079D01*
X16608031Y-18047079D02*
X16617554Y-18028031D01*
X16617554Y-18028031D02*
X16627078Y-18018508D01*
X16627078Y-18018508D02*
X16646126Y-18008984D01*
X16798507Y-18189936D02*
X16808031Y-18199460D01*
X16808031Y-18199460D02*
X16798507Y-18208984D01*
X16798507Y-18208984D02*
X16788983Y-18199460D01*
X16788983Y-18199460D02*
X16798507Y-18189936D01*
X16798507Y-18189936D02*
X16798507Y-18208984D01*
X16931840Y-18008984D02*
X16950888Y-18008984D01*
X16950888Y-18008984D02*
X16969935Y-18018508D01*
X16969935Y-18018508D02*
X16979459Y-18028031D01*
X16979459Y-18028031D02*
X16988983Y-18047079D01*
X16988983Y-18047079D02*
X16998507Y-18085174D01*
X16998507Y-18085174D02*
X16998507Y-18132793D01*
X16998507Y-18132793D02*
X16988983Y-18170889D01*
X16988983Y-18170889D02*
X16979459Y-18189936D01*
X16979459Y-18189936D02*
X16969935Y-18199460D01*
X16969935Y-18199460D02*
X16950888Y-18208984D01*
X16950888Y-18208984D02*
X16931840Y-18208984D01*
X16931840Y-18208984D02*
X16912793Y-18199460D01*
X16912793Y-18199460D02*
X16903269Y-18189936D01*
X16903269Y-18189936D02*
X16893745Y-18170889D01*
X16893745Y-18170889D02*
X16884221Y-18132793D01*
X16884221Y-18132793D02*
X16884221Y-18085174D01*
X16884221Y-18085174D02*
X16893745Y-18047079D01*
X16893745Y-18047079D02*
X16903269Y-18028031D01*
X16903269Y-18028031D02*
X16912793Y-18018508D01*
X16912793Y-18018508D02*
X16931840Y-18008984D01*
X17188983Y-18208984D02*
X17074697Y-18208984D01*
X17131840Y-18208984D02*
X17131840Y-18008984D01*
X17131840Y-18008984D02*
X17112793Y-18037555D01*
X17112793Y-18037555D02*
X17093745Y-18056603D01*
X17093745Y-18056603D02*
X17074697Y-18066127D01*
X17369935Y-18008984D02*
X17274697Y-18008984D01*
X17274697Y-18008984D02*
X17265174Y-18104222D01*
X17265174Y-18104222D02*
X17274697Y-18094698D01*
X17274697Y-18094698D02*
X17293745Y-18085174D01*
X17293745Y-18085174D02*
X17341364Y-18085174D01*
X17341364Y-18085174D02*
X17360412Y-18094698D01*
X17360412Y-18094698D02*
X17369935Y-18104222D01*
X17369935Y-18104222D02*
X17379459Y-18123270D01*
X17379459Y-18123270D02*
X17379459Y-18170889D01*
X17379459Y-18170889D02*
X17369935Y-18189936D01*
X17369935Y-18189936D02*
X17360412Y-18199460D01*
X17360412Y-18199460D02*
X17341364Y-18208984D01*
X17341364Y-18208984D02*
X17293745Y-18208984D01*
X17293745Y-18208984D02*
X17274697Y-18199460D01*
X17274697Y-18199460D02*
X17265174Y-18189936D01*
X17446126Y-18008984D02*
X17579459Y-18008984D01*
X17579459Y-18008984D02*
X17493745Y-18208984D01*
X17646126Y-18008984D02*
X17646126Y-18047079D01*
X17722316Y-18008984D02*
X17722316Y-18047079D01*
X18017555Y-18285174D02*
X18008031Y-18275650D01*
X18008031Y-18275650D02*
X17988983Y-18247079D01*
X17988983Y-18247079D02*
X17979459Y-18228031D01*
X17979459Y-18228031D02*
X17969936Y-18199460D01*
X17969936Y-18199460D02*
X17960412Y-18151841D01*
X17960412Y-18151841D02*
X17960412Y-18113746D01*
X17960412Y-18113746D02*
X17969936Y-18066127D01*
X17969936Y-18066127D02*
X17979459Y-18037555D01*
X17979459Y-18037555D02*
X17988983Y-18018508D01*
X17988983Y-18018508D02*
X18008031Y-17989936D01*
X18008031Y-17989936D02*
X18017555Y-17980412D01*
X18103269Y-18208984D02*
X18141364Y-18208984D01*
X18141364Y-18208984D02*
X18160412Y-18199460D01*
X18160412Y-18199460D02*
X18169936Y-18189936D01*
X18169936Y-18189936D02*
X18188983Y-18161365D01*
X18188983Y-18161365D02*
X18198507Y-18123270D01*
X18198507Y-18123270D02*
X18198507Y-18047079D01*
X18198507Y-18047079D02*
X18188983Y-18028031D01*
X18188983Y-18028031D02*
X18179459Y-18018508D01*
X18179459Y-18018508D02*
X18160412Y-18008984D01*
X18160412Y-18008984D02*
X18122316Y-18008984D01*
X18122316Y-18008984D02*
X18103269Y-18018508D01*
X18103269Y-18018508D02*
X18093745Y-18028031D01*
X18093745Y-18028031D02*
X18084221Y-18047079D01*
X18084221Y-18047079D02*
X18084221Y-18094698D01*
X18084221Y-18094698D02*
X18093745Y-18113746D01*
X18093745Y-18113746D02*
X18103269Y-18123270D01*
X18103269Y-18123270D02*
X18122316Y-18132793D01*
X18122316Y-18132793D02*
X18160412Y-18132793D01*
X18160412Y-18132793D02*
X18179459Y-18123270D01*
X18179459Y-18123270D02*
X18188983Y-18113746D01*
X18188983Y-18113746D02*
X18198507Y-18094698D01*
X18436602Y-18208984D02*
X18436602Y-18008984D01*
X18522317Y-18208984D02*
X18522317Y-18104222D01*
X18522317Y-18104222D02*
X18512793Y-18085174D01*
X18512793Y-18085174D02*
X18493745Y-18075650D01*
X18493745Y-18075650D02*
X18465174Y-18075650D01*
X18465174Y-18075650D02*
X18446126Y-18085174D01*
X18446126Y-18085174D02*
X18436602Y-18094698D01*
X18646126Y-18208984D02*
X18627078Y-18199460D01*
X18627078Y-18199460D02*
X18617555Y-18189936D01*
X18617555Y-18189936D02*
X18608031Y-18170889D01*
X18608031Y-18170889D02*
X18608031Y-18113746D01*
X18608031Y-18113746D02*
X18617555Y-18094698D01*
X18617555Y-18094698D02*
X18627078Y-18085174D01*
X18627078Y-18085174D02*
X18646126Y-18075650D01*
X18646126Y-18075650D02*
X18674698Y-18075650D01*
X18674698Y-18075650D02*
X18693745Y-18085174D01*
X18693745Y-18085174D02*
X18703269Y-18094698D01*
X18703269Y-18094698D02*
X18712793Y-18113746D01*
X18712793Y-18113746D02*
X18712793Y-18170889D01*
X18712793Y-18170889D02*
X18703269Y-18189936D01*
X18703269Y-18189936D02*
X18693745Y-18199460D01*
X18693745Y-18199460D02*
X18674698Y-18208984D01*
X18674698Y-18208984D02*
X18646126Y-18208984D01*
X18827078Y-18208984D02*
X18808031Y-18199460D01*
X18808031Y-18199460D02*
X18798507Y-18180412D01*
X18798507Y-18180412D02*
X18798507Y-18008984D01*
X18979459Y-18199460D02*
X18960412Y-18208984D01*
X18960412Y-18208984D02*
X18922317Y-18208984D01*
X18922317Y-18208984D02*
X18903269Y-18199460D01*
X18903269Y-18199460D02*
X18893745Y-18180412D01*
X18893745Y-18180412D02*
X18893745Y-18104222D01*
X18893745Y-18104222D02*
X18903269Y-18085174D01*
X18903269Y-18085174D02*
X18922317Y-18075650D01*
X18922317Y-18075650D02*
X18960412Y-18075650D01*
X18960412Y-18075650D02*
X18979459Y-18085174D01*
X18979459Y-18085174D02*
X18988983Y-18104222D01*
X18988983Y-18104222D02*
X18988983Y-18123270D01*
X18988983Y-18123270D02*
X18893745Y-18142317D01*
X19065174Y-18199460D02*
X19084221Y-18208984D01*
X19084221Y-18208984D02*
X19122317Y-18208984D01*
X19122317Y-18208984D02*
X19141364Y-18199460D01*
X19141364Y-18199460D02*
X19150888Y-18180412D01*
X19150888Y-18180412D02*
X19150888Y-18170889D01*
X19150888Y-18170889D02*
X19141364Y-18151841D01*
X19141364Y-18151841D02*
X19122317Y-18142317D01*
X19122317Y-18142317D02*
X19093745Y-18142317D01*
X19093745Y-18142317D02*
X19074698Y-18132793D01*
X19074698Y-18132793D02*
X19065174Y-18113746D01*
X19065174Y-18113746D02*
X19065174Y-18104222D01*
X19065174Y-18104222D02*
X19074698Y-18085174D01*
X19074698Y-18085174D02*
X19093745Y-18075650D01*
X19093745Y-18075650D02*
X19122317Y-18075650D01*
X19122317Y-18075650D02*
X19141364Y-18085174D01*
X19217555Y-18285174D02*
X19227079Y-18275650D01*
X19227079Y-18275650D02*
X19246126Y-18247079D01*
X19246126Y-18247079D02*
X19255650Y-18228031D01*
X19255650Y-18228031D02*
X19265174Y-18199460D01*
X19265174Y-18199460D02*
X19274698Y-18151841D01*
X19274698Y-18151841D02*
X19274698Y-18113746D01*
X19274698Y-18113746D02*
X19265174Y-18066127D01*
X19265174Y-18066127D02*
X19255650Y-18037555D01*
X19255650Y-18037555D02*
X19246126Y-18018508D01*
X19246126Y-18018508D02*
X19227079Y-17989936D01*
X19227079Y-17989936D02*
X19217555Y-17980412D01*
D13*
X14442492Y-18381500D02*
G75*
G03*
X14442492Y-18381500I-40640J0D01*
G01*
D11*
X14741364Y-18272984D02*
X14760411Y-18272984D01*
X14760411Y-18272984D02*
X14779459Y-18282508D01*
X14779459Y-18282508D02*
X14788983Y-18292031D01*
X14788983Y-18292031D02*
X14798507Y-18311079D01*
X14798507Y-18311079D02*
X14808030Y-18349174D01*
X14808030Y-18349174D02*
X14808030Y-18396793D01*
X14808030Y-18396793D02*
X14798507Y-18434889D01*
X14798507Y-18434889D02*
X14788983Y-18453936D01*
X14788983Y-18453936D02*
X14779459Y-18463460D01*
X14779459Y-18463460D02*
X14760411Y-18472984D01*
X14760411Y-18472984D02*
X14741364Y-18472984D01*
X14741364Y-18472984D02*
X14722316Y-18463460D01*
X14722316Y-18463460D02*
X14712792Y-18453936D01*
X14712792Y-18453936D02*
X14703268Y-18434889D01*
X14703268Y-18434889D02*
X14693745Y-18396793D01*
X14693745Y-18396793D02*
X14693745Y-18349174D01*
X14693745Y-18349174D02*
X14703268Y-18311079D01*
X14703268Y-18311079D02*
X14712792Y-18292031D01*
X14712792Y-18292031D02*
X14722316Y-18282508D01*
X14722316Y-18282508D02*
X14741364Y-18272984D01*
X14893745Y-18453936D02*
X14903268Y-18463460D01*
X14903268Y-18463460D02*
X14893745Y-18472984D01*
X14893745Y-18472984D02*
X14884221Y-18463460D01*
X14884221Y-18463460D02*
X14893745Y-18453936D01*
X14893745Y-18453936D02*
X14893745Y-18472984D01*
X15017554Y-18358698D02*
X14998507Y-18349174D01*
X14998507Y-18349174D02*
X14988983Y-18339650D01*
X14988983Y-18339650D02*
X14979459Y-18320603D01*
X14979459Y-18320603D02*
X14979459Y-18311079D01*
X14979459Y-18311079D02*
X14988983Y-18292031D01*
X14988983Y-18292031D02*
X14998507Y-18282508D01*
X14998507Y-18282508D02*
X15017554Y-18272984D01*
X15017554Y-18272984D02*
X15055649Y-18272984D01*
X15055649Y-18272984D02*
X15074697Y-18282508D01*
X15074697Y-18282508D02*
X15084221Y-18292031D01*
X15084221Y-18292031D02*
X15093745Y-18311079D01*
X15093745Y-18311079D02*
X15093745Y-18320603D01*
X15093745Y-18320603D02*
X15084221Y-18339650D01*
X15084221Y-18339650D02*
X15074697Y-18349174D01*
X15074697Y-18349174D02*
X15055649Y-18358698D01*
X15055649Y-18358698D02*
X15017554Y-18358698D01*
X15017554Y-18358698D02*
X14998507Y-18368222D01*
X14998507Y-18368222D02*
X14988983Y-18377746D01*
X14988983Y-18377746D02*
X14979459Y-18396793D01*
X14979459Y-18396793D02*
X14979459Y-18434889D01*
X14979459Y-18434889D02*
X14988983Y-18453936D01*
X14988983Y-18453936D02*
X14998507Y-18463460D01*
X14998507Y-18463460D02*
X15017554Y-18472984D01*
X15017554Y-18472984D02*
X15055649Y-18472984D01*
X15055649Y-18472984D02*
X15074697Y-18463460D01*
X15074697Y-18463460D02*
X15084221Y-18453936D01*
X15084221Y-18453936D02*
X15093745Y-18434889D01*
X15093745Y-18434889D02*
X15093745Y-18396793D01*
X15093745Y-18396793D02*
X15084221Y-18377746D01*
X15084221Y-18377746D02*
X15074697Y-18368222D01*
X15074697Y-18368222D02*
X15055649Y-18358698D01*
X15284221Y-18472984D02*
X15169935Y-18472984D01*
X15227078Y-18472984D02*
X15227078Y-18272984D01*
X15227078Y-18272984D02*
X15208030Y-18301555D01*
X15208030Y-18301555D02*
X15188983Y-18320603D01*
X15188983Y-18320603D02*
X15169935Y-18330127D01*
X15350888Y-18272984D02*
X15474697Y-18272984D01*
X15474697Y-18272984D02*
X15408030Y-18349174D01*
X15408030Y-18349174D02*
X15436602Y-18349174D01*
X15436602Y-18349174D02*
X15455649Y-18358698D01*
X15455649Y-18358698D02*
X15465173Y-18368222D01*
X15465173Y-18368222D02*
X15474697Y-18387270D01*
X15474697Y-18387270D02*
X15474697Y-18434889D01*
X15474697Y-18434889D02*
X15465173Y-18453936D01*
X15465173Y-18453936D02*
X15455649Y-18463460D01*
X15455649Y-18463460D02*
X15436602Y-18472984D01*
X15436602Y-18472984D02*
X15379459Y-18472984D01*
X15379459Y-18472984D02*
X15360411Y-18463460D01*
X15360411Y-18463460D02*
X15350888Y-18453936D01*
X15560411Y-18472984D02*
X15560411Y-18339650D01*
X15560411Y-18358698D02*
X15569935Y-18349174D01*
X15569935Y-18349174D02*
X15588983Y-18339650D01*
X15588983Y-18339650D02*
X15617554Y-18339650D01*
X15617554Y-18339650D02*
X15636602Y-18349174D01*
X15636602Y-18349174D02*
X15646126Y-18368222D01*
X15646126Y-18368222D02*
X15646126Y-18472984D01*
X15646126Y-18368222D02*
X15655649Y-18349174D01*
X15655649Y-18349174D02*
X15674697Y-18339650D01*
X15674697Y-18339650D02*
X15703268Y-18339650D01*
X15703268Y-18339650D02*
X15722316Y-18349174D01*
X15722316Y-18349174D02*
X15731840Y-18368222D01*
X15731840Y-18368222D02*
X15731840Y-18472984D01*
X15827078Y-18472984D02*
X15827078Y-18339650D01*
X15827078Y-18358698D02*
X15836602Y-18349174D01*
X15836602Y-18349174D02*
X15855649Y-18339650D01*
X15855649Y-18339650D02*
X15884221Y-18339650D01*
X15884221Y-18339650D02*
X15903269Y-18349174D01*
X15903269Y-18349174D02*
X15912792Y-18368222D01*
X15912792Y-18368222D02*
X15912792Y-18472984D01*
X15912792Y-18368222D02*
X15922316Y-18349174D01*
X15922316Y-18349174D02*
X15941364Y-18339650D01*
X15941364Y-18339650D02*
X15969935Y-18339650D01*
X15969935Y-18339650D02*
X15988983Y-18349174D01*
X15988983Y-18349174D02*
X15998507Y-18368222D01*
X15998507Y-18368222D02*
X15998507Y-18472984D01*
X16388983Y-18263460D02*
X16217554Y-18520603D01*
X16646126Y-18272984D02*
X16665173Y-18272984D01*
X16665173Y-18272984D02*
X16684221Y-18282508D01*
X16684221Y-18282508D02*
X16693745Y-18292031D01*
X16693745Y-18292031D02*
X16703269Y-18311079D01*
X16703269Y-18311079D02*
X16712792Y-18349174D01*
X16712792Y-18349174D02*
X16712792Y-18396793D01*
X16712792Y-18396793D02*
X16703269Y-18434889D01*
X16703269Y-18434889D02*
X16693745Y-18453936D01*
X16693745Y-18453936D02*
X16684221Y-18463460D01*
X16684221Y-18463460D02*
X16665173Y-18472984D01*
X16665173Y-18472984D02*
X16646126Y-18472984D01*
X16646126Y-18472984D02*
X16627078Y-18463460D01*
X16627078Y-18463460D02*
X16617554Y-18453936D01*
X16617554Y-18453936D02*
X16608031Y-18434889D01*
X16608031Y-18434889D02*
X16598507Y-18396793D01*
X16598507Y-18396793D02*
X16598507Y-18349174D01*
X16598507Y-18349174D02*
X16608031Y-18311079D01*
X16608031Y-18311079D02*
X16617554Y-18292031D01*
X16617554Y-18292031D02*
X16627078Y-18282508D01*
X16627078Y-18282508D02*
X16646126Y-18272984D01*
X16798507Y-18453936D02*
X16808031Y-18463460D01*
X16808031Y-18463460D02*
X16798507Y-18472984D01*
X16798507Y-18472984D02*
X16788983Y-18463460D01*
X16788983Y-18463460D02*
X16798507Y-18453936D01*
X16798507Y-18453936D02*
X16798507Y-18472984D01*
X16931840Y-18272984D02*
X16950888Y-18272984D01*
X16950888Y-18272984D02*
X16969935Y-18282508D01*
X16969935Y-18282508D02*
X16979459Y-18292031D01*
X16979459Y-18292031D02*
X16988983Y-18311079D01*
X16988983Y-18311079D02*
X16998507Y-18349174D01*
X16998507Y-18349174D02*
X16998507Y-18396793D01*
X16998507Y-18396793D02*
X16988983Y-18434889D01*
X16988983Y-18434889D02*
X16979459Y-18453936D01*
X16979459Y-18453936D02*
X16969935Y-18463460D01*
X16969935Y-18463460D02*
X16950888Y-18472984D01*
X16950888Y-18472984D02*
X16931840Y-18472984D01*
X16931840Y-18472984D02*
X16912793Y-18463460D01*
X16912793Y-18463460D02*
X16903269Y-18453936D01*
X16903269Y-18453936D02*
X16893745Y-18434889D01*
X16893745Y-18434889D02*
X16884221Y-18396793D01*
X16884221Y-18396793D02*
X16884221Y-18349174D01*
X16884221Y-18349174D02*
X16893745Y-18311079D01*
X16893745Y-18311079D02*
X16903269Y-18292031D01*
X16903269Y-18292031D02*
X16912793Y-18282508D01*
X16912793Y-18282508D02*
X16931840Y-18272984D01*
X17065174Y-18272984D02*
X17188983Y-18272984D01*
X17188983Y-18272984D02*
X17122316Y-18349174D01*
X17122316Y-18349174D02*
X17150888Y-18349174D01*
X17150888Y-18349174D02*
X17169935Y-18358698D01*
X17169935Y-18358698D02*
X17179459Y-18368222D01*
X17179459Y-18368222D02*
X17188983Y-18387270D01*
X17188983Y-18387270D02*
X17188983Y-18434889D01*
X17188983Y-18434889D02*
X17179459Y-18453936D01*
X17179459Y-18453936D02*
X17169935Y-18463460D01*
X17169935Y-18463460D02*
X17150888Y-18472984D01*
X17150888Y-18472984D02*
X17093745Y-18472984D01*
X17093745Y-18472984D02*
X17074697Y-18463460D01*
X17074697Y-18463460D02*
X17065174Y-18453936D01*
X17265174Y-18292031D02*
X17274697Y-18282508D01*
X17274697Y-18282508D02*
X17293745Y-18272984D01*
X17293745Y-18272984D02*
X17341364Y-18272984D01*
X17341364Y-18272984D02*
X17360412Y-18282508D01*
X17360412Y-18282508D02*
X17369935Y-18292031D01*
X17369935Y-18292031D02*
X17379459Y-18311079D01*
X17379459Y-18311079D02*
X17379459Y-18330127D01*
X17379459Y-18330127D02*
X17369935Y-18358698D01*
X17369935Y-18358698D02*
X17255650Y-18472984D01*
X17255650Y-18472984D02*
X17379459Y-18472984D01*
X17503269Y-18272984D02*
X17522316Y-18272984D01*
X17522316Y-18272984D02*
X17541364Y-18282508D01*
X17541364Y-18282508D02*
X17550888Y-18292031D01*
X17550888Y-18292031D02*
X17560412Y-18311079D01*
X17560412Y-18311079D02*
X17569935Y-18349174D01*
X17569935Y-18349174D02*
X17569935Y-18396793D01*
X17569935Y-18396793D02*
X17560412Y-18434889D01*
X17560412Y-18434889D02*
X17550888Y-18453936D01*
X17550888Y-18453936D02*
X17541364Y-18463460D01*
X17541364Y-18463460D02*
X17522316Y-18472984D01*
X17522316Y-18472984D02*
X17503269Y-18472984D01*
X17503269Y-18472984D02*
X17484221Y-18463460D01*
X17484221Y-18463460D02*
X17474697Y-18453936D01*
X17474697Y-18453936D02*
X17465174Y-18434889D01*
X17465174Y-18434889D02*
X17455650Y-18396793D01*
X17455650Y-18396793D02*
X17455650Y-18349174D01*
X17455650Y-18349174D02*
X17465174Y-18311079D01*
X17465174Y-18311079D02*
X17474697Y-18292031D01*
X17474697Y-18292031D02*
X17484221Y-18282508D01*
X17484221Y-18282508D02*
X17503269Y-18272984D01*
X17646126Y-18272984D02*
X17646126Y-18311079D01*
X17722316Y-18272984D02*
X17722316Y-18311079D01*
X18017555Y-18549174D02*
X18008031Y-18539650D01*
X18008031Y-18539650D02*
X17988983Y-18511079D01*
X17988983Y-18511079D02*
X17979459Y-18492031D01*
X17979459Y-18492031D02*
X17969936Y-18463460D01*
X17969936Y-18463460D02*
X17960412Y-18415841D01*
X17960412Y-18415841D02*
X17960412Y-18377746D01*
X17960412Y-18377746D02*
X17969936Y-18330127D01*
X17969936Y-18330127D02*
X17979459Y-18301555D01*
X17979459Y-18301555D02*
X17988983Y-18282508D01*
X17988983Y-18282508D02*
X18008031Y-18253936D01*
X18008031Y-18253936D02*
X18017555Y-18244412D01*
X18179459Y-18339650D02*
X18179459Y-18472984D01*
X18131840Y-18263460D02*
X18084221Y-18406317D01*
X18084221Y-18406317D02*
X18208031Y-18406317D01*
X18436602Y-18472984D02*
X18436602Y-18272984D01*
X18522317Y-18472984D02*
X18522317Y-18368222D01*
X18522317Y-18368222D02*
X18512793Y-18349174D01*
X18512793Y-18349174D02*
X18493745Y-18339650D01*
X18493745Y-18339650D02*
X18465174Y-18339650D01*
X18465174Y-18339650D02*
X18446126Y-18349174D01*
X18446126Y-18349174D02*
X18436602Y-18358698D01*
X18646126Y-18472984D02*
X18627078Y-18463460D01*
X18627078Y-18463460D02*
X18617555Y-18453936D01*
X18617555Y-18453936D02*
X18608031Y-18434889D01*
X18608031Y-18434889D02*
X18608031Y-18377746D01*
X18608031Y-18377746D02*
X18617555Y-18358698D01*
X18617555Y-18358698D02*
X18627078Y-18349174D01*
X18627078Y-18349174D02*
X18646126Y-18339650D01*
X18646126Y-18339650D02*
X18674698Y-18339650D01*
X18674698Y-18339650D02*
X18693745Y-18349174D01*
X18693745Y-18349174D02*
X18703269Y-18358698D01*
X18703269Y-18358698D02*
X18712793Y-18377746D01*
X18712793Y-18377746D02*
X18712793Y-18434889D01*
X18712793Y-18434889D02*
X18703269Y-18453936D01*
X18703269Y-18453936D02*
X18693745Y-18463460D01*
X18693745Y-18463460D02*
X18674698Y-18472984D01*
X18674698Y-18472984D02*
X18646126Y-18472984D01*
X18827078Y-18472984D02*
X18808031Y-18463460D01*
X18808031Y-18463460D02*
X18798507Y-18444412D01*
X18798507Y-18444412D02*
X18798507Y-18272984D01*
X18979459Y-18463460D02*
X18960412Y-18472984D01*
X18960412Y-18472984D02*
X18922317Y-18472984D01*
X18922317Y-18472984D02*
X18903269Y-18463460D01*
X18903269Y-18463460D02*
X18893745Y-18444412D01*
X18893745Y-18444412D02*
X18893745Y-18368222D01*
X18893745Y-18368222D02*
X18903269Y-18349174D01*
X18903269Y-18349174D02*
X18922317Y-18339650D01*
X18922317Y-18339650D02*
X18960412Y-18339650D01*
X18960412Y-18339650D02*
X18979459Y-18349174D01*
X18979459Y-18349174D02*
X18988983Y-18368222D01*
X18988983Y-18368222D02*
X18988983Y-18387270D01*
X18988983Y-18387270D02*
X18893745Y-18406317D01*
X19065174Y-18463460D02*
X19084221Y-18472984D01*
X19084221Y-18472984D02*
X19122317Y-18472984D01*
X19122317Y-18472984D02*
X19141364Y-18463460D01*
X19141364Y-18463460D02*
X19150888Y-18444412D01*
X19150888Y-18444412D02*
X19150888Y-18434889D01*
X19150888Y-18434889D02*
X19141364Y-18415841D01*
X19141364Y-18415841D02*
X19122317Y-18406317D01*
X19122317Y-18406317D02*
X19093745Y-18406317D01*
X19093745Y-18406317D02*
X19074698Y-18396793D01*
X19074698Y-18396793D02*
X19065174Y-18377746D01*
X19065174Y-18377746D02*
X19065174Y-18368222D01*
X19065174Y-18368222D02*
X19074698Y-18349174D01*
X19074698Y-18349174D02*
X19093745Y-18339650D01*
X19093745Y-18339650D02*
X19122317Y-18339650D01*
X19122317Y-18339650D02*
X19141364Y-18349174D01*
X19217555Y-18549174D02*
X19227079Y-18539650D01*
X19227079Y-18539650D02*
X19246126Y-18511079D01*
X19246126Y-18511079D02*
X19255650Y-18492031D01*
X19255650Y-18492031D02*
X19265174Y-18463460D01*
X19265174Y-18463460D02*
X19274698Y-18415841D01*
X19274698Y-18415841D02*
X19274698Y-18377746D01*
X19274698Y-18377746D02*
X19265174Y-18330127D01*
X19265174Y-18330127D02*
X19255650Y-18301555D01*
X19255650Y-18301555D02*
X19246126Y-18282508D01*
X19246126Y-18282508D02*
X19227079Y-18253936D01*
X19227079Y-18253936D02*
X19217555Y-18244412D01*
D14*
X14392992Y-18596000D02*
X14392992Y-18695000D01*
X14343492Y-18645500D02*
X14442492Y-18645500D01*
D11*
X14741364Y-18536984D02*
X14760411Y-18536984D01*
X14760411Y-18536984D02*
X14779459Y-18546508D01*
X14779459Y-18546508D02*
X14788983Y-18556031D01*
X14788983Y-18556031D02*
X14798507Y-18575079D01*
X14798507Y-18575079D02*
X14808030Y-18613174D01*
X14808030Y-18613174D02*
X14808030Y-18660793D01*
X14808030Y-18660793D02*
X14798507Y-18698889D01*
X14798507Y-18698889D02*
X14788983Y-18717936D01*
X14788983Y-18717936D02*
X14779459Y-18727460D01*
X14779459Y-18727460D02*
X14760411Y-18736984D01*
X14760411Y-18736984D02*
X14741364Y-18736984D01*
X14741364Y-18736984D02*
X14722316Y-18727460D01*
X14722316Y-18727460D02*
X14712792Y-18717936D01*
X14712792Y-18717936D02*
X14703268Y-18698889D01*
X14703268Y-18698889D02*
X14693745Y-18660793D01*
X14693745Y-18660793D02*
X14693745Y-18613174D01*
X14693745Y-18613174D02*
X14703268Y-18575079D01*
X14703268Y-18575079D02*
X14712792Y-18556031D01*
X14712792Y-18556031D02*
X14722316Y-18546508D01*
X14722316Y-18546508D02*
X14741364Y-18536984D01*
X14893745Y-18717936D02*
X14903268Y-18727460D01*
X14903268Y-18727460D02*
X14893745Y-18736984D01*
X14893745Y-18736984D02*
X14884221Y-18727460D01*
X14884221Y-18727460D02*
X14893745Y-18717936D01*
X14893745Y-18717936D02*
X14893745Y-18736984D01*
X14998507Y-18736984D02*
X15036602Y-18736984D01*
X15036602Y-18736984D02*
X15055649Y-18727460D01*
X15055649Y-18727460D02*
X15065173Y-18717936D01*
X15065173Y-18717936D02*
X15084221Y-18689365D01*
X15084221Y-18689365D02*
X15093745Y-18651270D01*
X15093745Y-18651270D02*
X15093745Y-18575079D01*
X15093745Y-18575079D02*
X15084221Y-18556031D01*
X15084221Y-18556031D02*
X15074697Y-18546508D01*
X15074697Y-18546508D02*
X15055649Y-18536984D01*
X15055649Y-18536984D02*
X15017554Y-18536984D01*
X15017554Y-18536984D02*
X14998507Y-18546508D01*
X14998507Y-18546508D02*
X14988983Y-18556031D01*
X14988983Y-18556031D02*
X14979459Y-18575079D01*
X14979459Y-18575079D02*
X14979459Y-18622698D01*
X14979459Y-18622698D02*
X14988983Y-18641746D01*
X14988983Y-18641746D02*
X14998507Y-18651270D01*
X14998507Y-18651270D02*
X15017554Y-18660793D01*
X15017554Y-18660793D02*
X15055649Y-18660793D01*
X15055649Y-18660793D02*
X15074697Y-18651270D01*
X15074697Y-18651270D02*
X15084221Y-18641746D01*
X15084221Y-18641746D02*
X15093745Y-18622698D01*
X15188983Y-18736984D02*
X15227078Y-18736984D01*
X15227078Y-18736984D02*
X15246126Y-18727460D01*
X15246126Y-18727460D02*
X15255649Y-18717936D01*
X15255649Y-18717936D02*
X15274697Y-18689365D01*
X15274697Y-18689365D02*
X15284221Y-18651270D01*
X15284221Y-18651270D02*
X15284221Y-18575079D01*
X15284221Y-18575079D02*
X15274697Y-18556031D01*
X15274697Y-18556031D02*
X15265173Y-18546508D01*
X15265173Y-18546508D02*
X15246126Y-18536984D01*
X15246126Y-18536984D02*
X15208030Y-18536984D01*
X15208030Y-18536984D02*
X15188983Y-18546508D01*
X15188983Y-18546508D02*
X15179459Y-18556031D01*
X15179459Y-18556031D02*
X15169935Y-18575079D01*
X15169935Y-18575079D02*
X15169935Y-18622698D01*
X15169935Y-18622698D02*
X15179459Y-18641746D01*
X15179459Y-18641746D02*
X15188983Y-18651270D01*
X15188983Y-18651270D02*
X15208030Y-18660793D01*
X15208030Y-18660793D02*
X15246126Y-18660793D01*
X15246126Y-18660793D02*
X15265173Y-18651270D01*
X15265173Y-18651270D02*
X15274697Y-18641746D01*
X15274697Y-18641746D02*
X15284221Y-18622698D01*
X15408030Y-18536984D02*
X15427078Y-18536984D01*
X15427078Y-18536984D02*
X15446126Y-18546508D01*
X15446126Y-18546508D02*
X15455649Y-18556031D01*
X15455649Y-18556031D02*
X15465173Y-18575079D01*
X15465173Y-18575079D02*
X15474697Y-18613174D01*
X15474697Y-18613174D02*
X15474697Y-18660793D01*
X15474697Y-18660793D02*
X15465173Y-18698889D01*
X15465173Y-18698889D02*
X15455649Y-18717936D01*
X15455649Y-18717936D02*
X15446126Y-18727460D01*
X15446126Y-18727460D02*
X15427078Y-18736984D01*
X15427078Y-18736984D02*
X15408030Y-18736984D01*
X15408030Y-18736984D02*
X15388983Y-18727460D01*
X15388983Y-18727460D02*
X15379459Y-18717936D01*
X15379459Y-18717936D02*
X15369935Y-18698889D01*
X15369935Y-18698889D02*
X15360411Y-18660793D01*
X15360411Y-18660793D02*
X15360411Y-18613174D01*
X15360411Y-18613174D02*
X15369935Y-18575079D01*
X15369935Y-18575079D02*
X15379459Y-18556031D01*
X15379459Y-18556031D02*
X15388983Y-18546508D01*
X15388983Y-18546508D02*
X15408030Y-18536984D01*
X15560411Y-18736984D02*
X15560411Y-18603650D01*
X15560411Y-18622698D02*
X15569935Y-18613174D01*
X15569935Y-18613174D02*
X15588983Y-18603650D01*
X15588983Y-18603650D02*
X15617554Y-18603650D01*
X15617554Y-18603650D02*
X15636602Y-18613174D01*
X15636602Y-18613174D02*
X15646126Y-18632222D01*
X15646126Y-18632222D02*
X15646126Y-18736984D01*
X15646126Y-18632222D02*
X15655649Y-18613174D01*
X15655649Y-18613174D02*
X15674697Y-18603650D01*
X15674697Y-18603650D02*
X15703268Y-18603650D01*
X15703268Y-18603650D02*
X15722316Y-18613174D01*
X15722316Y-18613174D02*
X15731840Y-18632222D01*
X15731840Y-18632222D02*
X15731840Y-18736984D01*
X15827078Y-18736984D02*
X15827078Y-18603650D01*
X15827078Y-18622698D02*
X15836602Y-18613174D01*
X15836602Y-18613174D02*
X15855649Y-18603650D01*
X15855649Y-18603650D02*
X15884221Y-18603650D01*
X15884221Y-18603650D02*
X15903269Y-18613174D01*
X15903269Y-18613174D02*
X15912792Y-18632222D01*
X15912792Y-18632222D02*
X15912792Y-18736984D01*
X15912792Y-18632222D02*
X15922316Y-18613174D01*
X15922316Y-18613174D02*
X15941364Y-18603650D01*
X15941364Y-18603650D02*
X15969935Y-18603650D01*
X15969935Y-18603650D02*
X15988983Y-18613174D01*
X15988983Y-18613174D02*
X15998507Y-18632222D01*
X15998507Y-18632222D02*
X15998507Y-18736984D01*
X16388983Y-18527460D02*
X16217554Y-18784603D01*
X16646126Y-18536984D02*
X16665173Y-18536984D01*
X16665173Y-18536984D02*
X16684221Y-18546508D01*
X16684221Y-18546508D02*
X16693745Y-18556031D01*
X16693745Y-18556031D02*
X16703269Y-18575079D01*
X16703269Y-18575079D02*
X16712792Y-18613174D01*
X16712792Y-18613174D02*
X16712792Y-18660793D01*
X16712792Y-18660793D02*
X16703269Y-18698889D01*
X16703269Y-18698889D02*
X16693745Y-18717936D01*
X16693745Y-18717936D02*
X16684221Y-18727460D01*
X16684221Y-18727460D02*
X16665173Y-18736984D01*
X16665173Y-18736984D02*
X16646126Y-18736984D01*
X16646126Y-18736984D02*
X16627078Y-18727460D01*
X16627078Y-18727460D02*
X16617554Y-18717936D01*
X16617554Y-18717936D02*
X16608031Y-18698889D01*
X16608031Y-18698889D02*
X16598507Y-18660793D01*
X16598507Y-18660793D02*
X16598507Y-18613174D01*
X16598507Y-18613174D02*
X16608031Y-18575079D01*
X16608031Y-18575079D02*
X16617554Y-18556031D01*
X16617554Y-18556031D02*
X16627078Y-18546508D01*
X16627078Y-18546508D02*
X16646126Y-18536984D01*
X16798507Y-18717936D02*
X16808031Y-18727460D01*
X16808031Y-18727460D02*
X16798507Y-18736984D01*
X16798507Y-18736984D02*
X16788983Y-18727460D01*
X16788983Y-18727460D02*
X16798507Y-18717936D01*
X16798507Y-18717936D02*
X16798507Y-18736984D01*
X16931840Y-18536984D02*
X16950888Y-18536984D01*
X16950888Y-18536984D02*
X16969935Y-18546508D01*
X16969935Y-18546508D02*
X16979459Y-18556031D01*
X16979459Y-18556031D02*
X16988983Y-18575079D01*
X16988983Y-18575079D02*
X16998507Y-18613174D01*
X16998507Y-18613174D02*
X16998507Y-18660793D01*
X16998507Y-18660793D02*
X16988983Y-18698889D01*
X16988983Y-18698889D02*
X16979459Y-18717936D01*
X16979459Y-18717936D02*
X16969935Y-18727460D01*
X16969935Y-18727460D02*
X16950888Y-18736984D01*
X16950888Y-18736984D02*
X16931840Y-18736984D01*
X16931840Y-18736984D02*
X16912793Y-18727460D01*
X16912793Y-18727460D02*
X16903269Y-18717936D01*
X16903269Y-18717936D02*
X16893745Y-18698889D01*
X16893745Y-18698889D02*
X16884221Y-18660793D01*
X16884221Y-18660793D02*
X16884221Y-18613174D01*
X16884221Y-18613174D02*
X16893745Y-18575079D01*
X16893745Y-18575079D02*
X16903269Y-18556031D01*
X16903269Y-18556031D02*
X16912793Y-18546508D01*
X16912793Y-18546508D02*
X16931840Y-18536984D01*
X17065174Y-18536984D02*
X17188983Y-18536984D01*
X17188983Y-18536984D02*
X17122316Y-18613174D01*
X17122316Y-18613174D02*
X17150888Y-18613174D01*
X17150888Y-18613174D02*
X17169935Y-18622698D01*
X17169935Y-18622698D02*
X17179459Y-18632222D01*
X17179459Y-18632222D02*
X17188983Y-18651270D01*
X17188983Y-18651270D02*
X17188983Y-18698889D01*
X17188983Y-18698889D02*
X17179459Y-18717936D01*
X17179459Y-18717936D02*
X17169935Y-18727460D01*
X17169935Y-18727460D02*
X17150888Y-18736984D01*
X17150888Y-18736984D02*
X17093745Y-18736984D01*
X17093745Y-18736984D02*
X17074697Y-18727460D01*
X17074697Y-18727460D02*
X17065174Y-18717936D01*
X17284221Y-18736984D02*
X17322316Y-18736984D01*
X17322316Y-18736984D02*
X17341364Y-18727460D01*
X17341364Y-18727460D02*
X17350888Y-18717936D01*
X17350888Y-18717936D02*
X17369935Y-18689365D01*
X17369935Y-18689365D02*
X17379459Y-18651270D01*
X17379459Y-18651270D02*
X17379459Y-18575079D01*
X17379459Y-18575079D02*
X17369935Y-18556031D01*
X17369935Y-18556031D02*
X17360412Y-18546508D01*
X17360412Y-18546508D02*
X17341364Y-18536984D01*
X17341364Y-18536984D02*
X17303269Y-18536984D01*
X17303269Y-18536984D02*
X17284221Y-18546508D01*
X17284221Y-18546508D02*
X17274697Y-18556031D01*
X17274697Y-18556031D02*
X17265174Y-18575079D01*
X17265174Y-18575079D02*
X17265174Y-18622698D01*
X17265174Y-18622698D02*
X17274697Y-18641746D01*
X17274697Y-18641746D02*
X17284221Y-18651270D01*
X17284221Y-18651270D02*
X17303269Y-18660793D01*
X17303269Y-18660793D02*
X17341364Y-18660793D01*
X17341364Y-18660793D02*
X17360412Y-18651270D01*
X17360412Y-18651270D02*
X17369935Y-18641746D01*
X17369935Y-18641746D02*
X17379459Y-18622698D01*
X17503269Y-18536984D02*
X17522316Y-18536984D01*
X17522316Y-18536984D02*
X17541364Y-18546508D01*
X17541364Y-18546508D02*
X17550888Y-18556031D01*
X17550888Y-18556031D02*
X17560412Y-18575079D01*
X17560412Y-18575079D02*
X17569935Y-18613174D01*
X17569935Y-18613174D02*
X17569935Y-18660793D01*
X17569935Y-18660793D02*
X17560412Y-18698889D01*
X17560412Y-18698889D02*
X17550888Y-18717936D01*
X17550888Y-18717936D02*
X17541364Y-18727460D01*
X17541364Y-18727460D02*
X17522316Y-18736984D01*
X17522316Y-18736984D02*
X17503269Y-18736984D01*
X17503269Y-18736984D02*
X17484221Y-18727460D01*
X17484221Y-18727460D02*
X17474697Y-18717936D01*
X17474697Y-18717936D02*
X17465174Y-18698889D01*
X17465174Y-18698889D02*
X17455650Y-18660793D01*
X17455650Y-18660793D02*
X17455650Y-18613174D01*
X17455650Y-18613174D02*
X17465174Y-18575079D01*
X17465174Y-18575079D02*
X17474697Y-18556031D01*
X17474697Y-18556031D02*
X17484221Y-18546508D01*
X17484221Y-18546508D02*
X17503269Y-18536984D01*
X17646126Y-18536984D02*
X17646126Y-18575079D01*
X17722316Y-18536984D02*
X17722316Y-18575079D01*
X18017555Y-18813174D02*
X18008031Y-18803650D01*
X18008031Y-18803650D02*
X17988983Y-18775079D01*
X17988983Y-18775079D02*
X17979459Y-18756031D01*
X17979459Y-18756031D02*
X17969936Y-18727460D01*
X17969936Y-18727460D02*
X17960412Y-18679841D01*
X17960412Y-18679841D02*
X17960412Y-18641746D01*
X17960412Y-18641746D02*
X17969936Y-18594127D01*
X17969936Y-18594127D02*
X17979459Y-18565555D01*
X17979459Y-18565555D02*
X17988983Y-18546508D01*
X17988983Y-18546508D02*
X18008031Y-18517936D01*
X18008031Y-18517936D02*
X18017555Y-18508412D01*
X18084221Y-18556031D02*
X18093745Y-18546508D01*
X18093745Y-18546508D02*
X18112793Y-18536984D01*
X18112793Y-18536984D02*
X18160412Y-18536984D01*
X18160412Y-18536984D02*
X18179459Y-18546508D01*
X18179459Y-18546508D02*
X18188983Y-18556031D01*
X18188983Y-18556031D02*
X18198507Y-18575079D01*
X18198507Y-18575079D02*
X18198507Y-18594127D01*
X18198507Y-18594127D02*
X18188983Y-18622698D01*
X18188983Y-18622698D02*
X18074697Y-18736984D01*
X18074697Y-18736984D02*
X18198507Y-18736984D01*
X18436602Y-18736984D02*
X18436602Y-18536984D01*
X18522317Y-18736984D02*
X18522317Y-18632222D01*
X18522317Y-18632222D02*
X18512793Y-18613174D01*
X18512793Y-18613174D02*
X18493745Y-18603650D01*
X18493745Y-18603650D02*
X18465174Y-18603650D01*
X18465174Y-18603650D02*
X18446126Y-18613174D01*
X18446126Y-18613174D02*
X18436602Y-18622698D01*
X18646126Y-18736984D02*
X18627078Y-18727460D01*
X18627078Y-18727460D02*
X18617555Y-18717936D01*
X18617555Y-18717936D02*
X18608031Y-18698889D01*
X18608031Y-18698889D02*
X18608031Y-18641746D01*
X18608031Y-18641746D02*
X18617555Y-18622698D01*
X18617555Y-18622698D02*
X18627078Y-18613174D01*
X18627078Y-18613174D02*
X18646126Y-18603650D01*
X18646126Y-18603650D02*
X18674698Y-18603650D01*
X18674698Y-18603650D02*
X18693745Y-18613174D01*
X18693745Y-18613174D02*
X18703269Y-18622698D01*
X18703269Y-18622698D02*
X18712793Y-18641746D01*
X18712793Y-18641746D02*
X18712793Y-18698889D01*
X18712793Y-18698889D02*
X18703269Y-18717936D01*
X18703269Y-18717936D02*
X18693745Y-18727460D01*
X18693745Y-18727460D02*
X18674698Y-18736984D01*
X18674698Y-18736984D02*
X18646126Y-18736984D01*
X18827078Y-18736984D02*
X18808031Y-18727460D01*
X18808031Y-18727460D02*
X18798507Y-18708412D01*
X18798507Y-18708412D02*
X18798507Y-18536984D01*
X18979459Y-18727460D02*
X18960412Y-18736984D01*
X18960412Y-18736984D02*
X18922317Y-18736984D01*
X18922317Y-18736984D02*
X18903269Y-18727460D01*
X18903269Y-18727460D02*
X18893745Y-18708412D01*
X18893745Y-18708412D02*
X18893745Y-18632222D01*
X18893745Y-18632222D02*
X18903269Y-18613174D01*
X18903269Y-18613174D02*
X18922317Y-18603650D01*
X18922317Y-18603650D02*
X18960412Y-18603650D01*
X18960412Y-18603650D02*
X18979459Y-18613174D01*
X18979459Y-18613174D02*
X18988983Y-18632222D01*
X18988983Y-18632222D02*
X18988983Y-18651270D01*
X18988983Y-18651270D02*
X18893745Y-18670317D01*
X19065174Y-18727460D02*
X19084221Y-18736984D01*
X19084221Y-18736984D02*
X19122317Y-18736984D01*
X19122317Y-18736984D02*
X19141364Y-18727460D01*
X19141364Y-18727460D02*
X19150888Y-18708412D01*
X19150888Y-18708412D02*
X19150888Y-18698889D01*
X19150888Y-18698889D02*
X19141364Y-18679841D01*
X19141364Y-18679841D02*
X19122317Y-18670317D01*
X19122317Y-18670317D02*
X19093745Y-18670317D01*
X19093745Y-18670317D02*
X19074698Y-18660793D01*
X19074698Y-18660793D02*
X19065174Y-18641746D01*
X19065174Y-18641746D02*
X19065174Y-18632222D01*
X19065174Y-18632222D02*
X19074698Y-18613174D01*
X19074698Y-18613174D02*
X19093745Y-18603650D01*
X19093745Y-18603650D02*
X19122317Y-18603650D01*
X19122317Y-18603650D02*
X19141364Y-18613174D01*
X19217555Y-18813174D02*
X19227079Y-18803650D01*
X19227079Y-18803650D02*
X19246126Y-18775079D01*
X19246126Y-18775079D02*
X19255650Y-18756031D01*
X19255650Y-18756031D02*
X19265174Y-18727460D01*
X19265174Y-18727460D02*
X19274698Y-18679841D01*
X19274698Y-18679841D02*
X19274698Y-18641746D01*
X19274698Y-18641746D02*
X19265174Y-18594127D01*
X19265174Y-18594127D02*
X19255650Y-18565555D01*
X19255650Y-18565555D02*
X19246126Y-18546508D01*
X19246126Y-18546508D02*
X19227079Y-18517936D01*
X19227079Y-18517936D02*
X19217555Y-18508412D01*
D15*
X14427985Y-18944523D02*
X14427985Y-18874477D01*
X14357938Y-18874477D01*
X14357938Y-18944523D01*
X14427985Y-18944523D01*
D11*
X14741364Y-18800984D02*
X14760411Y-18800984D01*
X14760411Y-18800984D02*
X14779459Y-18810508D01*
X14779459Y-18810508D02*
X14788983Y-18820031D01*
X14788983Y-18820031D02*
X14798507Y-18839079D01*
X14798507Y-18839079D02*
X14808030Y-18877174D01*
X14808030Y-18877174D02*
X14808030Y-18924793D01*
X14808030Y-18924793D02*
X14798507Y-18962889D01*
X14798507Y-18962889D02*
X14788983Y-18981936D01*
X14788983Y-18981936D02*
X14779459Y-18991460D01*
X14779459Y-18991460D02*
X14760411Y-19000984D01*
X14760411Y-19000984D02*
X14741364Y-19000984D01*
X14741364Y-19000984D02*
X14722316Y-18991460D01*
X14722316Y-18991460D02*
X14712792Y-18981936D01*
X14712792Y-18981936D02*
X14703268Y-18962889D01*
X14703268Y-18962889D02*
X14693745Y-18924793D01*
X14693745Y-18924793D02*
X14693745Y-18877174D01*
X14693745Y-18877174D02*
X14703268Y-18839079D01*
X14703268Y-18839079D02*
X14712792Y-18820031D01*
X14712792Y-18820031D02*
X14722316Y-18810508D01*
X14722316Y-18810508D02*
X14741364Y-18800984D01*
X14893745Y-18981936D02*
X14903268Y-18991460D01*
X14903268Y-18991460D02*
X14893745Y-19000984D01*
X14893745Y-19000984D02*
X14884221Y-18991460D01*
X14884221Y-18991460D02*
X14893745Y-18981936D01*
X14893745Y-18981936D02*
X14893745Y-19000984D01*
X14998507Y-19000984D02*
X15036602Y-19000984D01*
X15036602Y-19000984D02*
X15055649Y-18991460D01*
X15055649Y-18991460D02*
X15065173Y-18981936D01*
X15065173Y-18981936D02*
X15084221Y-18953365D01*
X15084221Y-18953365D02*
X15093745Y-18915270D01*
X15093745Y-18915270D02*
X15093745Y-18839079D01*
X15093745Y-18839079D02*
X15084221Y-18820031D01*
X15084221Y-18820031D02*
X15074697Y-18810508D01*
X15074697Y-18810508D02*
X15055649Y-18800984D01*
X15055649Y-18800984D02*
X15017554Y-18800984D01*
X15017554Y-18800984D02*
X14998507Y-18810508D01*
X14998507Y-18810508D02*
X14988983Y-18820031D01*
X14988983Y-18820031D02*
X14979459Y-18839079D01*
X14979459Y-18839079D02*
X14979459Y-18886698D01*
X14979459Y-18886698D02*
X14988983Y-18905746D01*
X14988983Y-18905746D02*
X14998507Y-18915270D01*
X14998507Y-18915270D02*
X15017554Y-18924793D01*
X15017554Y-18924793D02*
X15055649Y-18924793D01*
X15055649Y-18924793D02*
X15074697Y-18915270D01*
X15074697Y-18915270D02*
X15084221Y-18905746D01*
X15084221Y-18905746D02*
X15093745Y-18886698D01*
X15188983Y-19000984D02*
X15227078Y-19000984D01*
X15227078Y-19000984D02*
X15246126Y-18991460D01*
X15246126Y-18991460D02*
X15255649Y-18981936D01*
X15255649Y-18981936D02*
X15274697Y-18953365D01*
X15274697Y-18953365D02*
X15284221Y-18915270D01*
X15284221Y-18915270D02*
X15284221Y-18839079D01*
X15284221Y-18839079D02*
X15274697Y-18820031D01*
X15274697Y-18820031D02*
X15265173Y-18810508D01*
X15265173Y-18810508D02*
X15246126Y-18800984D01*
X15246126Y-18800984D02*
X15208030Y-18800984D01*
X15208030Y-18800984D02*
X15188983Y-18810508D01*
X15188983Y-18810508D02*
X15179459Y-18820031D01*
X15179459Y-18820031D02*
X15169935Y-18839079D01*
X15169935Y-18839079D02*
X15169935Y-18886698D01*
X15169935Y-18886698D02*
X15179459Y-18905746D01*
X15179459Y-18905746D02*
X15188983Y-18915270D01*
X15188983Y-18915270D02*
X15208030Y-18924793D01*
X15208030Y-18924793D02*
X15246126Y-18924793D01*
X15246126Y-18924793D02*
X15265173Y-18915270D01*
X15265173Y-18915270D02*
X15274697Y-18905746D01*
X15274697Y-18905746D02*
X15284221Y-18886698D01*
X15474697Y-19000984D02*
X15360411Y-19000984D01*
X15417554Y-19000984D02*
X15417554Y-18800984D01*
X15417554Y-18800984D02*
X15398507Y-18829555D01*
X15398507Y-18829555D02*
X15379459Y-18848603D01*
X15379459Y-18848603D02*
X15360411Y-18858127D01*
X15560411Y-19000984D02*
X15560411Y-18867650D01*
X15560411Y-18886698D02*
X15569935Y-18877174D01*
X15569935Y-18877174D02*
X15588983Y-18867650D01*
X15588983Y-18867650D02*
X15617554Y-18867650D01*
X15617554Y-18867650D02*
X15636602Y-18877174D01*
X15636602Y-18877174D02*
X15646126Y-18896222D01*
X15646126Y-18896222D02*
X15646126Y-19000984D01*
X15646126Y-18896222D02*
X15655649Y-18877174D01*
X15655649Y-18877174D02*
X15674697Y-18867650D01*
X15674697Y-18867650D02*
X15703268Y-18867650D01*
X15703268Y-18867650D02*
X15722316Y-18877174D01*
X15722316Y-18877174D02*
X15731840Y-18896222D01*
X15731840Y-18896222D02*
X15731840Y-19000984D01*
X15827078Y-19000984D02*
X15827078Y-18867650D01*
X15827078Y-18886698D02*
X15836602Y-18877174D01*
X15836602Y-18877174D02*
X15855649Y-18867650D01*
X15855649Y-18867650D02*
X15884221Y-18867650D01*
X15884221Y-18867650D02*
X15903269Y-18877174D01*
X15903269Y-18877174D02*
X15912792Y-18896222D01*
X15912792Y-18896222D02*
X15912792Y-19000984D01*
X15912792Y-18896222D02*
X15922316Y-18877174D01*
X15922316Y-18877174D02*
X15941364Y-18867650D01*
X15941364Y-18867650D02*
X15969935Y-18867650D01*
X15969935Y-18867650D02*
X15988983Y-18877174D01*
X15988983Y-18877174D02*
X15998507Y-18896222D01*
X15998507Y-18896222D02*
X15998507Y-19000984D01*
X16388983Y-18791460D02*
X16217554Y-19048603D01*
X16646126Y-18800984D02*
X16665173Y-18800984D01*
X16665173Y-18800984D02*
X16684221Y-18810508D01*
X16684221Y-18810508D02*
X16693745Y-18820031D01*
X16693745Y-18820031D02*
X16703269Y-18839079D01*
X16703269Y-18839079D02*
X16712792Y-18877174D01*
X16712792Y-18877174D02*
X16712792Y-18924793D01*
X16712792Y-18924793D02*
X16703269Y-18962889D01*
X16703269Y-18962889D02*
X16693745Y-18981936D01*
X16693745Y-18981936D02*
X16684221Y-18991460D01*
X16684221Y-18991460D02*
X16665173Y-19000984D01*
X16665173Y-19000984D02*
X16646126Y-19000984D01*
X16646126Y-19000984D02*
X16627078Y-18991460D01*
X16627078Y-18991460D02*
X16617554Y-18981936D01*
X16617554Y-18981936D02*
X16608031Y-18962889D01*
X16608031Y-18962889D02*
X16598507Y-18924793D01*
X16598507Y-18924793D02*
X16598507Y-18877174D01*
X16598507Y-18877174D02*
X16608031Y-18839079D01*
X16608031Y-18839079D02*
X16617554Y-18820031D01*
X16617554Y-18820031D02*
X16627078Y-18810508D01*
X16627078Y-18810508D02*
X16646126Y-18800984D01*
X16798507Y-18981936D02*
X16808031Y-18991460D01*
X16808031Y-18991460D02*
X16798507Y-19000984D01*
X16798507Y-19000984D02*
X16788983Y-18991460D01*
X16788983Y-18991460D02*
X16798507Y-18981936D01*
X16798507Y-18981936D02*
X16798507Y-19000984D01*
X16931840Y-18800984D02*
X16950888Y-18800984D01*
X16950888Y-18800984D02*
X16969935Y-18810508D01*
X16969935Y-18810508D02*
X16979459Y-18820031D01*
X16979459Y-18820031D02*
X16988983Y-18839079D01*
X16988983Y-18839079D02*
X16998507Y-18877174D01*
X16998507Y-18877174D02*
X16998507Y-18924793D01*
X16998507Y-18924793D02*
X16988983Y-18962889D01*
X16988983Y-18962889D02*
X16979459Y-18981936D01*
X16979459Y-18981936D02*
X16969935Y-18991460D01*
X16969935Y-18991460D02*
X16950888Y-19000984D01*
X16950888Y-19000984D02*
X16931840Y-19000984D01*
X16931840Y-19000984D02*
X16912793Y-18991460D01*
X16912793Y-18991460D02*
X16903269Y-18981936D01*
X16903269Y-18981936D02*
X16893745Y-18962889D01*
X16893745Y-18962889D02*
X16884221Y-18924793D01*
X16884221Y-18924793D02*
X16884221Y-18877174D01*
X16884221Y-18877174D02*
X16893745Y-18839079D01*
X16893745Y-18839079D02*
X16903269Y-18820031D01*
X16903269Y-18820031D02*
X16912793Y-18810508D01*
X16912793Y-18810508D02*
X16931840Y-18800984D01*
X17065174Y-18800984D02*
X17188983Y-18800984D01*
X17188983Y-18800984D02*
X17122316Y-18877174D01*
X17122316Y-18877174D02*
X17150888Y-18877174D01*
X17150888Y-18877174D02*
X17169935Y-18886698D01*
X17169935Y-18886698D02*
X17179459Y-18896222D01*
X17179459Y-18896222D02*
X17188983Y-18915270D01*
X17188983Y-18915270D02*
X17188983Y-18962889D01*
X17188983Y-18962889D02*
X17179459Y-18981936D01*
X17179459Y-18981936D02*
X17169935Y-18991460D01*
X17169935Y-18991460D02*
X17150888Y-19000984D01*
X17150888Y-19000984D02*
X17093745Y-19000984D01*
X17093745Y-19000984D02*
X17074697Y-18991460D01*
X17074697Y-18991460D02*
X17065174Y-18981936D01*
X17284221Y-19000984D02*
X17322316Y-19000984D01*
X17322316Y-19000984D02*
X17341364Y-18991460D01*
X17341364Y-18991460D02*
X17350888Y-18981936D01*
X17350888Y-18981936D02*
X17369935Y-18953365D01*
X17369935Y-18953365D02*
X17379459Y-18915270D01*
X17379459Y-18915270D02*
X17379459Y-18839079D01*
X17379459Y-18839079D02*
X17369935Y-18820031D01*
X17369935Y-18820031D02*
X17360412Y-18810508D01*
X17360412Y-18810508D02*
X17341364Y-18800984D01*
X17341364Y-18800984D02*
X17303269Y-18800984D01*
X17303269Y-18800984D02*
X17284221Y-18810508D01*
X17284221Y-18810508D02*
X17274697Y-18820031D01*
X17274697Y-18820031D02*
X17265174Y-18839079D01*
X17265174Y-18839079D02*
X17265174Y-18886698D01*
X17265174Y-18886698D02*
X17274697Y-18905746D01*
X17274697Y-18905746D02*
X17284221Y-18915270D01*
X17284221Y-18915270D02*
X17303269Y-18924793D01*
X17303269Y-18924793D02*
X17341364Y-18924793D01*
X17341364Y-18924793D02*
X17360412Y-18915270D01*
X17360412Y-18915270D02*
X17369935Y-18905746D01*
X17369935Y-18905746D02*
X17379459Y-18886698D01*
X17503269Y-18800984D02*
X17522316Y-18800984D01*
X17522316Y-18800984D02*
X17541364Y-18810508D01*
X17541364Y-18810508D02*
X17550888Y-18820031D01*
X17550888Y-18820031D02*
X17560412Y-18839079D01*
X17560412Y-18839079D02*
X17569935Y-18877174D01*
X17569935Y-18877174D02*
X17569935Y-18924793D01*
X17569935Y-18924793D02*
X17560412Y-18962889D01*
X17560412Y-18962889D02*
X17550888Y-18981936D01*
X17550888Y-18981936D02*
X17541364Y-18991460D01*
X17541364Y-18991460D02*
X17522316Y-19000984D01*
X17522316Y-19000984D02*
X17503269Y-19000984D01*
X17503269Y-19000984D02*
X17484221Y-18991460D01*
X17484221Y-18991460D02*
X17474697Y-18981936D01*
X17474697Y-18981936D02*
X17465174Y-18962889D01*
X17465174Y-18962889D02*
X17455650Y-18924793D01*
X17455650Y-18924793D02*
X17455650Y-18877174D01*
X17455650Y-18877174D02*
X17465174Y-18839079D01*
X17465174Y-18839079D02*
X17474697Y-18820031D01*
X17474697Y-18820031D02*
X17484221Y-18810508D01*
X17484221Y-18810508D02*
X17503269Y-18800984D01*
X17646126Y-18800984D02*
X17646126Y-18839079D01*
X17722316Y-18800984D02*
X17722316Y-18839079D01*
X18017555Y-19077174D02*
X18008031Y-19067650D01*
X18008031Y-19067650D02*
X17988983Y-19039079D01*
X17988983Y-19039079D02*
X17979459Y-19020031D01*
X17979459Y-19020031D02*
X17969936Y-18991460D01*
X17969936Y-18991460D02*
X17960412Y-18943841D01*
X17960412Y-18943841D02*
X17960412Y-18905746D01*
X17960412Y-18905746D02*
X17969936Y-18858127D01*
X17969936Y-18858127D02*
X17979459Y-18829555D01*
X17979459Y-18829555D02*
X17988983Y-18810508D01*
X17988983Y-18810508D02*
X18008031Y-18781936D01*
X18008031Y-18781936D02*
X18017555Y-18772412D01*
X18084221Y-18820031D02*
X18093745Y-18810508D01*
X18093745Y-18810508D02*
X18112793Y-18800984D01*
X18112793Y-18800984D02*
X18160412Y-18800984D01*
X18160412Y-18800984D02*
X18179459Y-18810508D01*
X18179459Y-18810508D02*
X18188983Y-18820031D01*
X18188983Y-18820031D02*
X18198507Y-18839079D01*
X18198507Y-18839079D02*
X18198507Y-18858127D01*
X18198507Y-18858127D02*
X18188983Y-18886698D01*
X18188983Y-18886698D02*
X18074697Y-19000984D01*
X18074697Y-19000984D02*
X18198507Y-19000984D01*
X18369936Y-18867650D02*
X18369936Y-19000984D01*
X18322316Y-18791460D02*
X18274697Y-18934317D01*
X18274697Y-18934317D02*
X18398507Y-18934317D01*
X18627078Y-19000984D02*
X18627078Y-18800984D01*
X18712793Y-19000984D02*
X18712793Y-18896222D01*
X18712793Y-18896222D02*
X18703269Y-18877174D01*
X18703269Y-18877174D02*
X18684221Y-18867650D01*
X18684221Y-18867650D02*
X18655650Y-18867650D01*
X18655650Y-18867650D02*
X18636602Y-18877174D01*
X18636602Y-18877174D02*
X18627078Y-18886698D01*
X18836602Y-19000984D02*
X18817555Y-18991460D01*
X18817555Y-18991460D02*
X18808031Y-18981936D01*
X18808031Y-18981936D02*
X18798507Y-18962889D01*
X18798507Y-18962889D02*
X18798507Y-18905746D01*
X18798507Y-18905746D02*
X18808031Y-18886698D01*
X18808031Y-18886698D02*
X18817555Y-18877174D01*
X18817555Y-18877174D02*
X18836602Y-18867650D01*
X18836602Y-18867650D02*
X18865174Y-18867650D01*
X18865174Y-18867650D02*
X18884221Y-18877174D01*
X18884221Y-18877174D02*
X18893745Y-18886698D01*
X18893745Y-18886698D02*
X18903269Y-18905746D01*
X18903269Y-18905746D02*
X18903269Y-18962889D01*
X18903269Y-18962889D02*
X18893745Y-18981936D01*
X18893745Y-18981936D02*
X18884221Y-18991460D01*
X18884221Y-18991460D02*
X18865174Y-19000984D01*
X18865174Y-19000984D02*
X18836602Y-19000984D01*
X19017555Y-19000984D02*
X18998507Y-18991460D01*
X18998507Y-18991460D02*
X18988983Y-18972412D01*
X18988983Y-18972412D02*
X18988983Y-18800984D01*
X19169936Y-18991460D02*
X19150888Y-19000984D01*
X19150888Y-19000984D02*
X19112793Y-19000984D01*
X19112793Y-19000984D02*
X19093745Y-18991460D01*
X19093745Y-18991460D02*
X19084221Y-18972412D01*
X19084221Y-18972412D02*
X19084221Y-18896222D01*
X19084221Y-18896222D02*
X19093745Y-18877174D01*
X19093745Y-18877174D02*
X19112793Y-18867650D01*
X19112793Y-18867650D02*
X19150888Y-18867650D01*
X19150888Y-18867650D02*
X19169936Y-18877174D01*
X19169936Y-18877174D02*
X19179459Y-18896222D01*
X19179459Y-18896222D02*
X19179459Y-18915270D01*
X19179459Y-18915270D02*
X19084221Y-18934317D01*
X19255650Y-18991460D02*
X19274698Y-19000984D01*
X19274698Y-19000984D02*
X19312793Y-19000984D01*
X19312793Y-19000984D02*
X19331840Y-18991460D01*
X19331840Y-18991460D02*
X19341364Y-18972412D01*
X19341364Y-18972412D02*
X19341364Y-18962889D01*
X19341364Y-18962889D02*
X19331840Y-18943841D01*
X19331840Y-18943841D02*
X19312793Y-18934317D01*
X19312793Y-18934317D02*
X19284221Y-18934317D01*
X19284221Y-18934317D02*
X19265174Y-18924793D01*
X19265174Y-18924793D02*
X19255650Y-18905746D01*
X19255650Y-18905746D02*
X19255650Y-18896222D01*
X19255650Y-18896222D02*
X19265174Y-18877174D01*
X19265174Y-18877174D02*
X19284221Y-18867650D01*
X19284221Y-18867650D02*
X19312793Y-18867650D01*
X19312793Y-18867650D02*
X19331840Y-18877174D01*
X19408031Y-19077174D02*
X19417555Y-19067650D01*
X19417555Y-19067650D02*
X19436602Y-19039079D01*
X19436602Y-19039079D02*
X19446126Y-19020031D01*
X19446126Y-19020031D02*
X19455650Y-18991460D01*
X19455650Y-18991460D02*
X19465174Y-18943841D01*
X19465174Y-18943841D02*
X19465174Y-18905746D01*
X19465174Y-18905746D02*
X19455650Y-18858127D01*
X19455650Y-18858127D02*
X19446126Y-18829555D01*
X19446126Y-18829555D02*
X19436602Y-18810508D01*
X19436602Y-18810508D02*
X19417555Y-18781936D01*
X19417555Y-18781936D02*
X19408031Y-18772412D01*
D16*
X14392492Y-19223500D02*
X14442492Y-19173500D01*
X14392492Y-19123500D01*
X14342492Y-19173500D01*
X14392492Y-19223500D01*
D11*
X14808030Y-19264984D02*
X14693745Y-19264984D01*
X14750887Y-19264984D02*
X14750887Y-19064984D01*
X14750887Y-19064984D02*
X14731840Y-19093555D01*
X14731840Y-19093555D02*
X14712792Y-19112603D01*
X14712792Y-19112603D02*
X14693745Y-19122127D01*
X14893745Y-19245936D02*
X14903268Y-19255460D01*
X14903268Y-19255460D02*
X14893745Y-19264984D01*
X14893745Y-19264984D02*
X14884221Y-19255460D01*
X14884221Y-19255460D02*
X14893745Y-19245936D01*
X14893745Y-19245936D02*
X14893745Y-19264984D01*
X15027078Y-19064984D02*
X15046126Y-19064984D01*
X15046126Y-19064984D02*
X15065173Y-19074508D01*
X15065173Y-19074508D02*
X15074697Y-19084031D01*
X15074697Y-19084031D02*
X15084221Y-19103079D01*
X15084221Y-19103079D02*
X15093745Y-19141174D01*
X15093745Y-19141174D02*
X15093745Y-19188793D01*
X15093745Y-19188793D02*
X15084221Y-19226889D01*
X15084221Y-19226889D02*
X15074697Y-19245936D01*
X15074697Y-19245936D02*
X15065173Y-19255460D01*
X15065173Y-19255460D02*
X15046126Y-19264984D01*
X15046126Y-19264984D02*
X15027078Y-19264984D01*
X15027078Y-19264984D02*
X15008030Y-19255460D01*
X15008030Y-19255460D02*
X14998507Y-19245936D01*
X14998507Y-19245936D02*
X14988983Y-19226889D01*
X14988983Y-19226889D02*
X14979459Y-19188793D01*
X14979459Y-19188793D02*
X14979459Y-19141174D01*
X14979459Y-19141174D02*
X14988983Y-19103079D01*
X14988983Y-19103079D02*
X14998507Y-19084031D01*
X14998507Y-19084031D02*
X15008030Y-19074508D01*
X15008030Y-19074508D02*
X15027078Y-19064984D01*
X15217554Y-19064984D02*
X15236602Y-19064984D01*
X15236602Y-19064984D02*
X15255649Y-19074508D01*
X15255649Y-19074508D02*
X15265173Y-19084031D01*
X15265173Y-19084031D02*
X15274697Y-19103079D01*
X15274697Y-19103079D02*
X15284221Y-19141174D01*
X15284221Y-19141174D02*
X15284221Y-19188793D01*
X15284221Y-19188793D02*
X15274697Y-19226889D01*
X15274697Y-19226889D02*
X15265173Y-19245936D01*
X15265173Y-19245936D02*
X15255649Y-19255460D01*
X15255649Y-19255460D02*
X15236602Y-19264984D01*
X15236602Y-19264984D02*
X15217554Y-19264984D01*
X15217554Y-19264984D02*
X15198507Y-19255460D01*
X15198507Y-19255460D02*
X15188983Y-19245936D01*
X15188983Y-19245936D02*
X15179459Y-19226889D01*
X15179459Y-19226889D02*
X15169935Y-19188793D01*
X15169935Y-19188793D02*
X15169935Y-19141174D01*
X15169935Y-19141174D02*
X15179459Y-19103079D01*
X15179459Y-19103079D02*
X15188983Y-19084031D01*
X15188983Y-19084031D02*
X15198507Y-19074508D01*
X15198507Y-19074508D02*
X15217554Y-19064984D01*
X15408030Y-19064984D02*
X15427078Y-19064984D01*
X15427078Y-19064984D02*
X15446126Y-19074508D01*
X15446126Y-19074508D02*
X15455649Y-19084031D01*
X15455649Y-19084031D02*
X15465173Y-19103079D01*
X15465173Y-19103079D02*
X15474697Y-19141174D01*
X15474697Y-19141174D02*
X15474697Y-19188793D01*
X15474697Y-19188793D02*
X15465173Y-19226889D01*
X15465173Y-19226889D02*
X15455649Y-19245936D01*
X15455649Y-19245936D02*
X15446126Y-19255460D01*
X15446126Y-19255460D02*
X15427078Y-19264984D01*
X15427078Y-19264984D02*
X15408030Y-19264984D01*
X15408030Y-19264984D02*
X15388983Y-19255460D01*
X15388983Y-19255460D02*
X15379459Y-19245936D01*
X15379459Y-19245936D02*
X15369935Y-19226889D01*
X15369935Y-19226889D02*
X15360411Y-19188793D01*
X15360411Y-19188793D02*
X15360411Y-19141174D01*
X15360411Y-19141174D02*
X15369935Y-19103079D01*
X15369935Y-19103079D02*
X15379459Y-19084031D01*
X15379459Y-19084031D02*
X15388983Y-19074508D01*
X15388983Y-19074508D02*
X15408030Y-19064984D01*
X15560411Y-19264984D02*
X15560411Y-19131650D01*
X15560411Y-19150698D02*
X15569935Y-19141174D01*
X15569935Y-19141174D02*
X15588983Y-19131650D01*
X15588983Y-19131650D02*
X15617554Y-19131650D01*
X15617554Y-19131650D02*
X15636602Y-19141174D01*
X15636602Y-19141174D02*
X15646126Y-19160222D01*
X15646126Y-19160222D02*
X15646126Y-19264984D01*
X15646126Y-19160222D02*
X15655649Y-19141174D01*
X15655649Y-19141174D02*
X15674697Y-19131650D01*
X15674697Y-19131650D02*
X15703268Y-19131650D01*
X15703268Y-19131650D02*
X15722316Y-19141174D01*
X15722316Y-19141174D02*
X15731840Y-19160222D01*
X15731840Y-19160222D02*
X15731840Y-19264984D01*
X15827078Y-19264984D02*
X15827078Y-19131650D01*
X15827078Y-19150698D02*
X15836602Y-19141174D01*
X15836602Y-19141174D02*
X15855649Y-19131650D01*
X15855649Y-19131650D02*
X15884221Y-19131650D01*
X15884221Y-19131650D02*
X15903269Y-19141174D01*
X15903269Y-19141174D02*
X15912792Y-19160222D01*
X15912792Y-19160222D02*
X15912792Y-19264984D01*
X15912792Y-19160222D02*
X15922316Y-19141174D01*
X15922316Y-19141174D02*
X15941364Y-19131650D01*
X15941364Y-19131650D02*
X15969935Y-19131650D01*
X15969935Y-19131650D02*
X15988983Y-19141174D01*
X15988983Y-19141174D02*
X15998507Y-19160222D01*
X15998507Y-19160222D02*
X15998507Y-19264984D01*
X16388983Y-19055460D02*
X16217554Y-19312603D01*
X16646126Y-19064984D02*
X16665173Y-19064984D01*
X16665173Y-19064984D02*
X16684221Y-19074508D01*
X16684221Y-19074508D02*
X16693745Y-19084031D01*
X16693745Y-19084031D02*
X16703269Y-19103079D01*
X16703269Y-19103079D02*
X16712792Y-19141174D01*
X16712792Y-19141174D02*
X16712792Y-19188793D01*
X16712792Y-19188793D02*
X16703269Y-19226889D01*
X16703269Y-19226889D02*
X16693745Y-19245936D01*
X16693745Y-19245936D02*
X16684221Y-19255460D01*
X16684221Y-19255460D02*
X16665173Y-19264984D01*
X16665173Y-19264984D02*
X16646126Y-19264984D01*
X16646126Y-19264984D02*
X16627078Y-19255460D01*
X16627078Y-19255460D02*
X16617554Y-19245936D01*
X16617554Y-19245936D02*
X16608031Y-19226889D01*
X16608031Y-19226889D02*
X16598507Y-19188793D01*
X16598507Y-19188793D02*
X16598507Y-19141174D01*
X16598507Y-19141174D02*
X16608031Y-19103079D01*
X16608031Y-19103079D02*
X16617554Y-19084031D01*
X16617554Y-19084031D02*
X16627078Y-19074508D01*
X16627078Y-19074508D02*
X16646126Y-19064984D01*
X16798507Y-19245936D02*
X16808031Y-19255460D01*
X16808031Y-19255460D02*
X16798507Y-19264984D01*
X16798507Y-19264984D02*
X16788983Y-19255460D01*
X16788983Y-19255460D02*
X16798507Y-19245936D01*
X16798507Y-19245936D02*
X16798507Y-19264984D01*
X16931840Y-19064984D02*
X16950888Y-19064984D01*
X16950888Y-19064984D02*
X16969935Y-19074508D01*
X16969935Y-19074508D02*
X16979459Y-19084031D01*
X16979459Y-19084031D02*
X16988983Y-19103079D01*
X16988983Y-19103079D02*
X16998507Y-19141174D01*
X16998507Y-19141174D02*
X16998507Y-19188793D01*
X16998507Y-19188793D02*
X16988983Y-19226889D01*
X16988983Y-19226889D02*
X16979459Y-19245936D01*
X16979459Y-19245936D02*
X16969935Y-19255460D01*
X16969935Y-19255460D02*
X16950888Y-19264984D01*
X16950888Y-19264984D02*
X16931840Y-19264984D01*
X16931840Y-19264984D02*
X16912793Y-19255460D01*
X16912793Y-19255460D02*
X16903269Y-19245936D01*
X16903269Y-19245936D02*
X16893745Y-19226889D01*
X16893745Y-19226889D02*
X16884221Y-19188793D01*
X16884221Y-19188793D02*
X16884221Y-19141174D01*
X16884221Y-19141174D02*
X16893745Y-19103079D01*
X16893745Y-19103079D02*
X16903269Y-19084031D01*
X16903269Y-19084031D02*
X16912793Y-19074508D01*
X16912793Y-19074508D02*
X16931840Y-19064984D01*
X17065174Y-19064984D02*
X17188983Y-19064984D01*
X17188983Y-19064984D02*
X17122316Y-19141174D01*
X17122316Y-19141174D02*
X17150888Y-19141174D01*
X17150888Y-19141174D02*
X17169935Y-19150698D01*
X17169935Y-19150698D02*
X17179459Y-19160222D01*
X17179459Y-19160222D02*
X17188983Y-19179270D01*
X17188983Y-19179270D02*
X17188983Y-19226889D01*
X17188983Y-19226889D02*
X17179459Y-19245936D01*
X17179459Y-19245936D02*
X17169935Y-19255460D01*
X17169935Y-19255460D02*
X17150888Y-19264984D01*
X17150888Y-19264984D02*
X17093745Y-19264984D01*
X17093745Y-19264984D02*
X17074697Y-19255460D01*
X17074697Y-19255460D02*
X17065174Y-19245936D01*
X17284221Y-19264984D02*
X17322316Y-19264984D01*
X17322316Y-19264984D02*
X17341364Y-19255460D01*
X17341364Y-19255460D02*
X17350888Y-19245936D01*
X17350888Y-19245936D02*
X17369935Y-19217365D01*
X17369935Y-19217365D02*
X17379459Y-19179270D01*
X17379459Y-19179270D02*
X17379459Y-19103079D01*
X17379459Y-19103079D02*
X17369935Y-19084031D01*
X17369935Y-19084031D02*
X17360412Y-19074508D01*
X17360412Y-19074508D02*
X17341364Y-19064984D01*
X17341364Y-19064984D02*
X17303269Y-19064984D01*
X17303269Y-19064984D02*
X17284221Y-19074508D01*
X17284221Y-19074508D02*
X17274697Y-19084031D01*
X17274697Y-19084031D02*
X17265174Y-19103079D01*
X17265174Y-19103079D02*
X17265174Y-19150698D01*
X17265174Y-19150698D02*
X17274697Y-19169746D01*
X17274697Y-19169746D02*
X17284221Y-19179270D01*
X17284221Y-19179270D02*
X17303269Y-19188793D01*
X17303269Y-19188793D02*
X17341364Y-19188793D01*
X17341364Y-19188793D02*
X17360412Y-19179270D01*
X17360412Y-19179270D02*
X17369935Y-19169746D01*
X17369935Y-19169746D02*
X17379459Y-19150698D01*
X17550888Y-19131650D02*
X17550888Y-19264984D01*
X17503269Y-19055460D02*
X17455650Y-19198317D01*
X17455650Y-19198317D02*
X17579459Y-19198317D01*
X17646126Y-19064984D02*
X17646126Y-19103079D01*
X17722316Y-19064984D02*
X17722316Y-19103079D01*
X18017555Y-19341174D02*
X18008031Y-19331650D01*
X18008031Y-19331650D02*
X17988983Y-19303079D01*
X17988983Y-19303079D02*
X17979459Y-19284031D01*
X17979459Y-19284031D02*
X17969936Y-19255460D01*
X17969936Y-19255460D02*
X17960412Y-19207841D01*
X17960412Y-19207841D02*
X17960412Y-19169746D01*
X17960412Y-19169746D02*
X17969936Y-19122127D01*
X17969936Y-19122127D02*
X17979459Y-19093555D01*
X17979459Y-19093555D02*
X17988983Y-19074508D01*
X17988983Y-19074508D02*
X18008031Y-19045936D01*
X18008031Y-19045936D02*
X18017555Y-19036412D01*
X18188983Y-19064984D02*
X18093745Y-19064984D01*
X18093745Y-19064984D02*
X18084221Y-19160222D01*
X18084221Y-19160222D02*
X18093745Y-19150698D01*
X18093745Y-19150698D02*
X18112793Y-19141174D01*
X18112793Y-19141174D02*
X18160412Y-19141174D01*
X18160412Y-19141174D02*
X18179459Y-19150698D01*
X18179459Y-19150698D02*
X18188983Y-19160222D01*
X18188983Y-19160222D02*
X18198507Y-19179270D01*
X18198507Y-19179270D02*
X18198507Y-19226889D01*
X18198507Y-19226889D02*
X18188983Y-19245936D01*
X18188983Y-19245936D02*
X18179459Y-19255460D01*
X18179459Y-19255460D02*
X18160412Y-19264984D01*
X18160412Y-19264984D02*
X18112793Y-19264984D01*
X18112793Y-19264984D02*
X18093745Y-19255460D01*
X18093745Y-19255460D02*
X18084221Y-19245936D01*
X18436602Y-19264984D02*
X18436602Y-19064984D01*
X18522317Y-19264984D02*
X18522317Y-19160222D01*
X18522317Y-19160222D02*
X18512793Y-19141174D01*
X18512793Y-19141174D02*
X18493745Y-19131650D01*
X18493745Y-19131650D02*
X18465174Y-19131650D01*
X18465174Y-19131650D02*
X18446126Y-19141174D01*
X18446126Y-19141174D02*
X18436602Y-19150698D01*
X18646126Y-19264984D02*
X18627078Y-19255460D01*
X18627078Y-19255460D02*
X18617555Y-19245936D01*
X18617555Y-19245936D02*
X18608031Y-19226889D01*
X18608031Y-19226889D02*
X18608031Y-19169746D01*
X18608031Y-19169746D02*
X18617555Y-19150698D01*
X18617555Y-19150698D02*
X18627078Y-19141174D01*
X18627078Y-19141174D02*
X18646126Y-19131650D01*
X18646126Y-19131650D02*
X18674698Y-19131650D01*
X18674698Y-19131650D02*
X18693745Y-19141174D01*
X18693745Y-19141174D02*
X18703269Y-19150698D01*
X18703269Y-19150698D02*
X18712793Y-19169746D01*
X18712793Y-19169746D02*
X18712793Y-19226889D01*
X18712793Y-19226889D02*
X18703269Y-19245936D01*
X18703269Y-19245936D02*
X18693745Y-19255460D01*
X18693745Y-19255460D02*
X18674698Y-19264984D01*
X18674698Y-19264984D02*
X18646126Y-19264984D01*
X18827078Y-19264984D02*
X18808031Y-19255460D01*
X18808031Y-19255460D02*
X18798507Y-19236412D01*
X18798507Y-19236412D02*
X18798507Y-19064984D01*
X18979459Y-19255460D02*
X18960412Y-19264984D01*
X18960412Y-19264984D02*
X18922317Y-19264984D01*
X18922317Y-19264984D02*
X18903269Y-19255460D01*
X18903269Y-19255460D02*
X18893745Y-19236412D01*
X18893745Y-19236412D02*
X18893745Y-19160222D01*
X18893745Y-19160222D02*
X18903269Y-19141174D01*
X18903269Y-19141174D02*
X18922317Y-19131650D01*
X18922317Y-19131650D02*
X18960412Y-19131650D01*
X18960412Y-19131650D02*
X18979459Y-19141174D01*
X18979459Y-19141174D02*
X18988983Y-19160222D01*
X18988983Y-19160222D02*
X18988983Y-19179270D01*
X18988983Y-19179270D02*
X18893745Y-19198317D01*
X19065174Y-19255460D02*
X19084221Y-19264984D01*
X19084221Y-19264984D02*
X19122317Y-19264984D01*
X19122317Y-19264984D02*
X19141364Y-19255460D01*
X19141364Y-19255460D02*
X19150888Y-19236412D01*
X19150888Y-19236412D02*
X19150888Y-19226889D01*
X19150888Y-19226889D02*
X19141364Y-19207841D01*
X19141364Y-19207841D02*
X19122317Y-19198317D01*
X19122317Y-19198317D02*
X19093745Y-19198317D01*
X19093745Y-19198317D02*
X19074698Y-19188793D01*
X19074698Y-19188793D02*
X19065174Y-19169746D01*
X19065174Y-19169746D02*
X19065174Y-19160222D01*
X19065174Y-19160222D02*
X19074698Y-19141174D01*
X19074698Y-19141174D02*
X19093745Y-19131650D01*
X19093745Y-19131650D02*
X19122317Y-19131650D01*
X19122317Y-19131650D02*
X19141364Y-19141174D01*
X19217555Y-19341174D02*
X19227079Y-19331650D01*
X19227079Y-19331650D02*
X19246126Y-19303079D01*
X19246126Y-19303079D02*
X19255650Y-19284031D01*
X19255650Y-19284031D02*
X19265174Y-19255460D01*
X19265174Y-19255460D02*
X19274698Y-19207841D01*
X19274698Y-19207841D02*
X19274698Y-19169746D01*
X19274698Y-19169746D02*
X19265174Y-19122127D01*
X19265174Y-19122127D02*
X19255650Y-19093555D01*
X19255650Y-19093555D02*
X19246126Y-19074508D01*
X19246126Y-19074508D02*
X19227079Y-19045936D01*
X19227079Y-19045936D02*
X19217555Y-19036412D01*
D17*
X14333272Y-19382890D02*
X14442492Y-19492110D01*
X14442492Y-19382890D02*
X14333272Y-19492110D01*
X14442492Y-19437500D02*
G75*
G03*
X14442492Y-19437500I-54610J0D01*
G01*
D11*
X14808030Y-19528984D02*
X14693745Y-19528984D01*
X14750887Y-19528984D02*
X14750887Y-19328984D01*
X14750887Y-19328984D02*
X14731840Y-19357555D01*
X14731840Y-19357555D02*
X14712792Y-19376603D01*
X14712792Y-19376603D02*
X14693745Y-19386127D01*
X14893745Y-19509936D02*
X14903268Y-19519460D01*
X14903268Y-19519460D02*
X14893745Y-19528984D01*
X14893745Y-19528984D02*
X14884221Y-19519460D01*
X14884221Y-19519460D02*
X14893745Y-19509936D01*
X14893745Y-19509936D02*
X14893745Y-19528984D01*
X15027078Y-19328984D02*
X15046126Y-19328984D01*
X15046126Y-19328984D02*
X15065173Y-19338508D01*
X15065173Y-19338508D02*
X15074697Y-19348031D01*
X15074697Y-19348031D02*
X15084221Y-19367079D01*
X15084221Y-19367079D02*
X15093745Y-19405174D01*
X15093745Y-19405174D02*
X15093745Y-19452793D01*
X15093745Y-19452793D02*
X15084221Y-19490889D01*
X15084221Y-19490889D02*
X15074697Y-19509936D01*
X15074697Y-19509936D02*
X15065173Y-19519460D01*
X15065173Y-19519460D02*
X15046126Y-19528984D01*
X15046126Y-19528984D02*
X15027078Y-19528984D01*
X15027078Y-19528984D02*
X15008030Y-19519460D01*
X15008030Y-19519460D02*
X14998507Y-19509936D01*
X14998507Y-19509936D02*
X14988983Y-19490889D01*
X14988983Y-19490889D02*
X14979459Y-19452793D01*
X14979459Y-19452793D02*
X14979459Y-19405174D01*
X14979459Y-19405174D02*
X14988983Y-19367079D01*
X14988983Y-19367079D02*
X14998507Y-19348031D01*
X14998507Y-19348031D02*
X15008030Y-19338508D01*
X15008030Y-19338508D02*
X15027078Y-19328984D01*
X15188983Y-19528984D02*
X15227078Y-19528984D01*
X15227078Y-19528984D02*
X15246126Y-19519460D01*
X15246126Y-19519460D02*
X15255649Y-19509936D01*
X15255649Y-19509936D02*
X15274697Y-19481365D01*
X15274697Y-19481365D02*
X15284221Y-19443270D01*
X15284221Y-19443270D02*
X15284221Y-19367079D01*
X15284221Y-19367079D02*
X15274697Y-19348031D01*
X15274697Y-19348031D02*
X15265173Y-19338508D01*
X15265173Y-19338508D02*
X15246126Y-19328984D01*
X15246126Y-19328984D02*
X15208030Y-19328984D01*
X15208030Y-19328984D02*
X15188983Y-19338508D01*
X15188983Y-19338508D02*
X15179459Y-19348031D01*
X15179459Y-19348031D02*
X15169935Y-19367079D01*
X15169935Y-19367079D02*
X15169935Y-19414698D01*
X15169935Y-19414698D02*
X15179459Y-19433746D01*
X15179459Y-19433746D02*
X15188983Y-19443270D01*
X15188983Y-19443270D02*
X15208030Y-19452793D01*
X15208030Y-19452793D02*
X15246126Y-19452793D01*
X15246126Y-19452793D02*
X15265173Y-19443270D01*
X15265173Y-19443270D02*
X15274697Y-19433746D01*
X15274697Y-19433746D02*
X15284221Y-19414698D01*
X15360411Y-19348031D02*
X15369935Y-19338508D01*
X15369935Y-19338508D02*
X15388983Y-19328984D01*
X15388983Y-19328984D02*
X15436602Y-19328984D01*
X15436602Y-19328984D02*
X15455649Y-19338508D01*
X15455649Y-19338508D02*
X15465173Y-19348031D01*
X15465173Y-19348031D02*
X15474697Y-19367079D01*
X15474697Y-19367079D02*
X15474697Y-19386127D01*
X15474697Y-19386127D02*
X15465173Y-19414698D01*
X15465173Y-19414698D02*
X15350888Y-19528984D01*
X15350888Y-19528984D02*
X15474697Y-19528984D01*
X15560411Y-19528984D02*
X15560411Y-19395650D01*
X15560411Y-19414698D02*
X15569935Y-19405174D01*
X15569935Y-19405174D02*
X15588983Y-19395650D01*
X15588983Y-19395650D02*
X15617554Y-19395650D01*
X15617554Y-19395650D02*
X15636602Y-19405174D01*
X15636602Y-19405174D02*
X15646126Y-19424222D01*
X15646126Y-19424222D02*
X15646126Y-19528984D01*
X15646126Y-19424222D02*
X15655649Y-19405174D01*
X15655649Y-19405174D02*
X15674697Y-19395650D01*
X15674697Y-19395650D02*
X15703268Y-19395650D01*
X15703268Y-19395650D02*
X15722316Y-19405174D01*
X15722316Y-19405174D02*
X15731840Y-19424222D01*
X15731840Y-19424222D02*
X15731840Y-19528984D01*
X15827078Y-19528984D02*
X15827078Y-19395650D01*
X15827078Y-19414698D02*
X15836602Y-19405174D01*
X15836602Y-19405174D02*
X15855649Y-19395650D01*
X15855649Y-19395650D02*
X15884221Y-19395650D01*
X15884221Y-19395650D02*
X15903269Y-19405174D01*
X15903269Y-19405174D02*
X15912792Y-19424222D01*
X15912792Y-19424222D02*
X15912792Y-19528984D01*
X15912792Y-19424222D02*
X15922316Y-19405174D01*
X15922316Y-19405174D02*
X15941364Y-19395650D01*
X15941364Y-19395650D02*
X15969935Y-19395650D01*
X15969935Y-19395650D02*
X15988983Y-19405174D01*
X15988983Y-19405174D02*
X15998507Y-19424222D01*
X15998507Y-19424222D02*
X15998507Y-19528984D01*
X16388983Y-19319460D02*
X16217554Y-19576603D01*
X16646126Y-19328984D02*
X16665173Y-19328984D01*
X16665173Y-19328984D02*
X16684221Y-19338508D01*
X16684221Y-19338508D02*
X16693745Y-19348031D01*
X16693745Y-19348031D02*
X16703269Y-19367079D01*
X16703269Y-19367079D02*
X16712792Y-19405174D01*
X16712792Y-19405174D02*
X16712792Y-19452793D01*
X16712792Y-19452793D02*
X16703269Y-19490889D01*
X16703269Y-19490889D02*
X16693745Y-19509936D01*
X16693745Y-19509936D02*
X16684221Y-19519460D01*
X16684221Y-19519460D02*
X16665173Y-19528984D01*
X16665173Y-19528984D02*
X16646126Y-19528984D01*
X16646126Y-19528984D02*
X16627078Y-19519460D01*
X16627078Y-19519460D02*
X16617554Y-19509936D01*
X16617554Y-19509936D02*
X16608031Y-19490889D01*
X16608031Y-19490889D02*
X16598507Y-19452793D01*
X16598507Y-19452793D02*
X16598507Y-19405174D01*
X16598507Y-19405174D02*
X16608031Y-19367079D01*
X16608031Y-19367079D02*
X16617554Y-19348031D01*
X16617554Y-19348031D02*
X16627078Y-19338508D01*
X16627078Y-19338508D02*
X16646126Y-19328984D01*
X16798507Y-19509936D02*
X16808031Y-19519460D01*
X16808031Y-19519460D02*
X16798507Y-19528984D01*
X16798507Y-19528984D02*
X16788983Y-19519460D01*
X16788983Y-19519460D02*
X16798507Y-19509936D01*
X16798507Y-19509936D02*
X16798507Y-19528984D01*
X16931840Y-19328984D02*
X16950888Y-19328984D01*
X16950888Y-19328984D02*
X16969935Y-19338508D01*
X16969935Y-19338508D02*
X16979459Y-19348031D01*
X16979459Y-19348031D02*
X16988983Y-19367079D01*
X16988983Y-19367079D02*
X16998507Y-19405174D01*
X16998507Y-19405174D02*
X16998507Y-19452793D01*
X16998507Y-19452793D02*
X16988983Y-19490889D01*
X16988983Y-19490889D02*
X16979459Y-19509936D01*
X16979459Y-19509936D02*
X16969935Y-19519460D01*
X16969935Y-19519460D02*
X16950888Y-19528984D01*
X16950888Y-19528984D02*
X16931840Y-19528984D01*
X16931840Y-19528984D02*
X16912793Y-19519460D01*
X16912793Y-19519460D02*
X16903269Y-19509936D01*
X16903269Y-19509936D02*
X16893745Y-19490889D01*
X16893745Y-19490889D02*
X16884221Y-19452793D01*
X16884221Y-19452793D02*
X16884221Y-19405174D01*
X16884221Y-19405174D02*
X16893745Y-19367079D01*
X16893745Y-19367079D02*
X16903269Y-19348031D01*
X16903269Y-19348031D02*
X16912793Y-19338508D01*
X16912793Y-19338508D02*
X16931840Y-19328984D01*
X17169935Y-19395650D02*
X17169935Y-19528984D01*
X17122316Y-19319460D02*
X17074697Y-19462317D01*
X17074697Y-19462317D02*
X17198507Y-19462317D01*
X17255650Y-19328984D02*
X17379459Y-19328984D01*
X17379459Y-19328984D02*
X17312793Y-19405174D01*
X17312793Y-19405174D02*
X17341364Y-19405174D01*
X17341364Y-19405174D02*
X17360412Y-19414698D01*
X17360412Y-19414698D02*
X17369935Y-19424222D01*
X17369935Y-19424222D02*
X17379459Y-19443270D01*
X17379459Y-19443270D02*
X17379459Y-19490889D01*
X17379459Y-19490889D02*
X17369935Y-19509936D01*
X17369935Y-19509936D02*
X17360412Y-19519460D01*
X17360412Y-19519460D02*
X17341364Y-19528984D01*
X17341364Y-19528984D02*
X17284221Y-19528984D01*
X17284221Y-19528984D02*
X17265174Y-19519460D01*
X17265174Y-19519460D02*
X17255650Y-19509936D01*
X17503269Y-19328984D02*
X17522316Y-19328984D01*
X17522316Y-19328984D02*
X17541364Y-19338508D01*
X17541364Y-19338508D02*
X17550888Y-19348031D01*
X17550888Y-19348031D02*
X17560412Y-19367079D01*
X17560412Y-19367079D02*
X17569935Y-19405174D01*
X17569935Y-19405174D02*
X17569935Y-19452793D01*
X17569935Y-19452793D02*
X17560412Y-19490889D01*
X17560412Y-19490889D02*
X17550888Y-19509936D01*
X17550888Y-19509936D02*
X17541364Y-19519460D01*
X17541364Y-19519460D02*
X17522316Y-19528984D01*
X17522316Y-19528984D02*
X17503269Y-19528984D01*
X17503269Y-19528984D02*
X17484221Y-19519460D01*
X17484221Y-19519460D02*
X17474697Y-19509936D01*
X17474697Y-19509936D02*
X17465174Y-19490889D01*
X17465174Y-19490889D02*
X17455650Y-19452793D01*
X17455650Y-19452793D02*
X17455650Y-19405174D01*
X17455650Y-19405174D02*
X17465174Y-19367079D01*
X17465174Y-19367079D02*
X17474697Y-19348031D01*
X17474697Y-19348031D02*
X17484221Y-19338508D01*
X17484221Y-19338508D02*
X17503269Y-19328984D01*
X17646126Y-19328984D02*
X17646126Y-19367079D01*
X17722316Y-19328984D02*
X17722316Y-19367079D01*
X18017555Y-19605174D02*
X18008031Y-19595650D01*
X18008031Y-19595650D02*
X17988983Y-19567079D01*
X17988983Y-19567079D02*
X17979459Y-19548031D01*
X17979459Y-19548031D02*
X17969936Y-19519460D01*
X17969936Y-19519460D02*
X17960412Y-19471841D01*
X17960412Y-19471841D02*
X17960412Y-19433746D01*
X17960412Y-19433746D02*
X17969936Y-19386127D01*
X17969936Y-19386127D02*
X17979459Y-19357555D01*
X17979459Y-19357555D02*
X17988983Y-19338508D01*
X17988983Y-19338508D02*
X18008031Y-19309936D01*
X18008031Y-19309936D02*
X18017555Y-19300412D01*
X18084221Y-19348031D02*
X18093745Y-19338508D01*
X18093745Y-19338508D02*
X18112793Y-19328984D01*
X18112793Y-19328984D02*
X18160412Y-19328984D01*
X18160412Y-19328984D02*
X18179459Y-19338508D01*
X18179459Y-19338508D02*
X18188983Y-19348031D01*
X18188983Y-19348031D02*
X18198507Y-19367079D01*
X18198507Y-19367079D02*
X18198507Y-19386127D01*
X18198507Y-19386127D02*
X18188983Y-19414698D01*
X18188983Y-19414698D02*
X18074697Y-19528984D01*
X18074697Y-19528984D02*
X18198507Y-19528984D01*
X18369936Y-19395650D02*
X18369936Y-19528984D01*
X18322316Y-19319460D02*
X18274697Y-19462317D01*
X18274697Y-19462317D02*
X18398507Y-19462317D01*
X18627078Y-19528984D02*
X18627078Y-19328984D01*
X18712793Y-19528984D02*
X18712793Y-19424222D01*
X18712793Y-19424222D02*
X18703269Y-19405174D01*
X18703269Y-19405174D02*
X18684221Y-19395650D01*
X18684221Y-19395650D02*
X18655650Y-19395650D01*
X18655650Y-19395650D02*
X18636602Y-19405174D01*
X18636602Y-19405174D02*
X18627078Y-19414698D01*
X18836602Y-19528984D02*
X18817555Y-19519460D01*
X18817555Y-19519460D02*
X18808031Y-19509936D01*
X18808031Y-19509936D02*
X18798507Y-19490889D01*
X18798507Y-19490889D02*
X18798507Y-19433746D01*
X18798507Y-19433746D02*
X18808031Y-19414698D01*
X18808031Y-19414698D02*
X18817555Y-19405174D01*
X18817555Y-19405174D02*
X18836602Y-19395650D01*
X18836602Y-19395650D02*
X18865174Y-19395650D01*
X18865174Y-19395650D02*
X18884221Y-19405174D01*
X18884221Y-19405174D02*
X18893745Y-19414698D01*
X18893745Y-19414698D02*
X18903269Y-19433746D01*
X18903269Y-19433746D02*
X18903269Y-19490889D01*
X18903269Y-19490889D02*
X18893745Y-19509936D01*
X18893745Y-19509936D02*
X18884221Y-19519460D01*
X18884221Y-19519460D02*
X18865174Y-19528984D01*
X18865174Y-19528984D02*
X18836602Y-19528984D01*
X19017555Y-19528984D02*
X18998507Y-19519460D01*
X18998507Y-19519460D02*
X18988983Y-19500412D01*
X18988983Y-19500412D02*
X18988983Y-19328984D01*
X19169936Y-19519460D02*
X19150888Y-19528984D01*
X19150888Y-19528984D02*
X19112793Y-19528984D01*
X19112793Y-19528984D02*
X19093745Y-19519460D01*
X19093745Y-19519460D02*
X19084221Y-19500412D01*
X19084221Y-19500412D02*
X19084221Y-19424222D01*
X19084221Y-19424222D02*
X19093745Y-19405174D01*
X19093745Y-19405174D02*
X19112793Y-19395650D01*
X19112793Y-19395650D02*
X19150888Y-19395650D01*
X19150888Y-19395650D02*
X19169936Y-19405174D01*
X19169936Y-19405174D02*
X19179459Y-19424222D01*
X19179459Y-19424222D02*
X19179459Y-19443270D01*
X19179459Y-19443270D02*
X19084221Y-19462317D01*
X19255650Y-19519460D02*
X19274698Y-19528984D01*
X19274698Y-19528984D02*
X19312793Y-19528984D01*
X19312793Y-19528984D02*
X19331840Y-19519460D01*
X19331840Y-19519460D02*
X19341364Y-19500412D01*
X19341364Y-19500412D02*
X19341364Y-19490889D01*
X19341364Y-19490889D02*
X19331840Y-19471841D01*
X19331840Y-19471841D02*
X19312793Y-19462317D01*
X19312793Y-19462317D02*
X19284221Y-19462317D01*
X19284221Y-19462317D02*
X19265174Y-19452793D01*
X19265174Y-19452793D02*
X19255650Y-19433746D01*
X19255650Y-19433746D02*
X19255650Y-19424222D01*
X19255650Y-19424222D02*
X19265174Y-19405174D01*
X19265174Y-19405174D02*
X19284221Y-19395650D01*
X19284221Y-19395650D02*
X19312793Y-19395650D01*
X19312793Y-19395650D02*
X19331840Y-19405174D01*
X19408031Y-19605174D02*
X19417555Y-19595650D01*
X19417555Y-19595650D02*
X19436602Y-19567079D01*
X19436602Y-19567079D02*
X19446126Y-19548031D01*
X19446126Y-19548031D02*
X19455650Y-19519460D01*
X19455650Y-19519460D02*
X19465174Y-19471841D01*
X19465174Y-19471841D02*
X19465174Y-19433746D01*
X19465174Y-19433746D02*
X19455650Y-19386127D01*
X19455650Y-19386127D02*
X19446126Y-19357555D01*
X19446126Y-19357555D02*
X19436602Y-19338508D01*
X19436602Y-19338508D02*
X19417555Y-19309936D01*
X19417555Y-19309936D02*
X19408031Y-19300412D01*
D18*
X14312492Y-19636500D02*
X14442492Y-19766500D01*
X14442492Y-19636500D02*
X14312492Y-19766500D01*
X14377492Y-19636500D02*
X14377492Y-19766500D01*
X14312492Y-19701500D02*
X14442492Y-19701500D01*
D11*
X14808030Y-19792984D02*
X14693745Y-19792984D01*
X14750887Y-19792984D02*
X14750887Y-19592984D01*
X14750887Y-19592984D02*
X14731840Y-19621555D01*
X14731840Y-19621555D02*
X14712792Y-19640603D01*
X14712792Y-19640603D02*
X14693745Y-19650127D01*
X14893745Y-19773936D02*
X14903268Y-19783460D01*
X14903268Y-19783460D02*
X14893745Y-19792984D01*
X14893745Y-19792984D02*
X14884221Y-19783460D01*
X14884221Y-19783460D02*
X14893745Y-19773936D01*
X14893745Y-19773936D02*
X14893745Y-19792984D01*
X14969935Y-19592984D02*
X15093745Y-19592984D01*
X15093745Y-19592984D02*
X15027078Y-19669174D01*
X15027078Y-19669174D02*
X15055649Y-19669174D01*
X15055649Y-19669174D02*
X15074697Y-19678698D01*
X15074697Y-19678698D02*
X15084221Y-19688222D01*
X15084221Y-19688222D02*
X15093745Y-19707270D01*
X15093745Y-19707270D02*
X15093745Y-19754889D01*
X15093745Y-19754889D02*
X15084221Y-19773936D01*
X15084221Y-19773936D02*
X15074697Y-19783460D01*
X15074697Y-19783460D02*
X15055649Y-19792984D01*
X15055649Y-19792984D02*
X14998507Y-19792984D01*
X14998507Y-19792984D02*
X14979459Y-19783460D01*
X14979459Y-19783460D02*
X14969935Y-19773936D01*
X15217554Y-19592984D02*
X15236602Y-19592984D01*
X15236602Y-19592984D02*
X15255649Y-19602508D01*
X15255649Y-19602508D02*
X15265173Y-19612031D01*
X15265173Y-19612031D02*
X15274697Y-19631079D01*
X15274697Y-19631079D02*
X15284221Y-19669174D01*
X15284221Y-19669174D02*
X15284221Y-19716793D01*
X15284221Y-19716793D02*
X15274697Y-19754889D01*
X15274697Y-19754889D02*
X15265173Y-19773936D01*
X15265173Y-19773936D02*
X15255649Y-19783460D01*
X15255649Y-19783460D02*
X15236602Y-19792984D01*
X15236602Y-19792984D02*
X15217554Y-19792984D01*
X15217554Y-19792984D02*
X15198507Y-19783460D01*
X15198507Y-19783460D02*
X15188983Y-19773936D01*
X15188983Y-19773936D02*
X15179459Y-19754889D01*
X15179459Y-19754889D02*
X15169935Y-19716793D01*
X15169935Y-19716793D02*
X15169935Y-19669174D01*
X15169935Y-19669174D02*
X15179459Y-19631079D01*
X15179459Y-19631079D02*
X15188983Y-19612031D01*
X15188983Y-19612031D02*
X15198507Y-19602508D01*
X15198507Y-19602508D02*
X15217554Y-19592984D01*
X15408030Y-19592984D02*
X15427078Y-19592984D01*
X15427078Y-19592984D02*
X15446126Y-19602508D01*
X15446126Y-19602508D02*
X15455649Y-19612031D01*
X15455649Y-19612031D02*
X15465173Y-19631079D01*
X15465173Y-19631079D02*
X15474697Y-19669174D01*
X15474697Y-19669174D02*
X15474697Y-19716793D01*
X15474697Y-19716793D02*
X15465173Y-19754889D01*
X15465173Y-19754889D02*
X15455649Y-19773936D01*
X15455649Y-19773936D02*
X15446126Y-19783460D01*
X15446126Y-19783460D02*
X15427078Y-19792984D01*
X15427078Y-19792984D02*
X15408030Y-19792984D01*
X15408030Y-19792984D02*
X15388983Y-19783460D01*
X15388983Y-19783460D02*
X15379459Y-19773936D01*
X15379459Y-19773936D02*
X15369935Y-19754889D01*
X15369935Y-19754889D02*
X15360411Y-19716793D01*
X15360411Y-19716793D02*
X15360411Y-19669174D01*
X15360411Y-19669174D02*
X15369935Y-19631079D01*
X15369935Y-19631079D02*
X15379459Y-19612031D01*
X15379459Y-19612031D02*
X15388983Y-19602508D01*
X15388983Y-19602508D02*
X15408030Y-19592984D01*
X15560411Y-19792984D02*
X15560411Y-19659650D01*
X15560411Y-19678698D02*
X15569935Y-19669174D01*
X15569935Y-19669174D02*
X15588983Y-19659650D01*
X15588983Y-19659650D02*
X15617554Y-19659650D01*
X15617554Y-19659650D02*
X15636602Y-19669174D01*
X15636602Y-19669174D02*
X15646126Y-19688222D01*
X15646126Y-19688222D02*
X15646126Y-19792984D01*
X15646126Y-19688222D02*
X15655649Y-19669174D01*
X15655649Y-19669174D02*
X15674697Y-19659650D01*
X15674697Y-19659650D02*
X15703268Y-19659650D01*
X15703268Y-19659650D02*
X15722316Y-19669174D01*
X15722316Y-19669174D02*
X15731840Y-19688222D01*
X15731840Y-19688222D02*
X15731840Y-19792984D01*
X15827078Y-19792984D02*
X15827078Y-19659650D01*
X15827078Y-19678698D02*
X15836602Y-19669174D01*
X15836602Y-19669174D02*
X15855649Y-19659650D01*
X15855649Y-19659650D02*
X15884221Y-19659650D01*
X15884221Y-19659650D02*
X15903269Y-19669174D01*
X15903269Y-19669174D02*
X15912792Y-19688222D01*
X15912792Y-19688222D02*
X15912792Y-19792984D01*
X15912792Y-19688222D02*
X15922316Y-19669174D01*
X15922316Y-19669174D02*
X15941364Y-19659650D01*
X15941364Y-19659650D02*
X15969935Y-19659650D01*
X15969935Y-19659650D02*
X15988983Y-19669174D01*
X15988983Y-19669174D02*
X15998507Y-19688222D01*
X15998507Y-19688222D02*
X15998507Y-19792984D01*
X16388983Y-19583460D02*
X16217554Y-19840603D01*
X16646126Y-19592984D02*
X16665173Y-19592984D01*
X16665173Y-19592984D02*
X16684221Y-19602508D01*
X16684221Y-19602508D02*
X16693745Y-19612031D01*
X16693745Y-19612031D02*
X16703269Y-19631079D01*
X16703269Y-19631079D02*
X16712792Y-19669174D01*
X16712792Y-19669174D02*
X16712792Y-19716793D01*
X16712792Y-19716793D02*
X16703269Y-19754889D01*
X16703269Y-19754889D02*
X16693745Y-19773936D01*
X16693745Y-19773936D02*
X16684221Y-19783460D01*
X16684221Y-19783460D02*
X16665173Y-19792984D01*
X16665173Y-19792984D02*
X16646126Y-19792984D01*
X16646126Y-19792984D02*
X16627078Y-19783460D01*
X16627078Y-19783460D02*
X16617554Y-19773936D01*
X16617554Y-19773936D02*
X16608031Y-19754889D01*
X16608031Y-19754889D02*
X16598507Y-19716793D01*
X16598507Y-19716793D02*
X16598507Y-19669174D01*
X16598507Y-19669174D02*
X16608031Y-19631079D01*
X16608031Y-19631079D02*
X16617554Y-19612031D01*
X16617554Y-19612031D02*
X16627078Y-19602508D01*
X16627078Y-19602508D02*
X16646126Y-19592984D01*
X16798507Y-19773936D02*
X16808031Y-19783460D01*
X16808031Y-19783460D02*
X16798507Y-19792984D01*
X16798507Y-19792984D02*
X16788983Y-19783460D01*
X16788983Y-19783460D02*
X16798507Y-19773936D01*
X16798507Y-19773936D02*
X16798507Y-19792984D01*
X16931840Y-19592984D02*
X16950888Y-19592984D01*
X16950888Y-19592984D02*
X16969935Y-19602508D01*
X16969935Y-19602508D02*
X16979459Y-19612031D01*
X16979459Y-19612031D02*
X16988983Y-19631079D01*
X16988983Y-19631079D02*
X16998507Y-19669174D01*
X16998507Y-19669174D02*
X16998507Y-19716793D01*
X16998507Y-19716793D02*
X16988983Y-19754889D01*
X16988983Y-19754889D02*
X16979459Y-19773936D01*
X16979459Y-19773936D02*
X16969935Y-19783460D01*
X16969935Y-19783460D02*
X16950888Y-19792984D01*
X16950888Y-19792984D02*
X16931840Y-19792984D01*
X16931840Y-19792984D02*
X16912793Y-19783460D01*
X16912793Y-19783460D02*
X16903269Y-19773936D01*
X16903269Y-19773936D02*
X16893745Y-19754889D01*
X16893745Y-19754889D02*
X16884221Y-19716793D01*
X16884221Y-19716793D02*
X16884221Y-19669174D01*
X16884221Y-19669174D02*
X16893745Y-19631079D01*
X16893745Y-19631079D02*
X16903269Y-19612031D01*
X16903269Y-19612031D02*
X16912793Y-19602508D01*
X16912793Y-19602508D02*
X16931840Y-19592984D01*
X17179459Y-19592984D02*
X17084221Y-19592984D01*
X17084221Y-19592984D02*
X17074697Y-19688222D01*
X17074697Y-19688222D02*
X17084221Y-19678698D01*
X17084221Y-19678698D02*
X17103269Y-19669174D01*
X17103269Y-19669174D02*
X17150888Y-19669174D01*
X17150888Y-19669174D02*
X17169935Y-19678698D01*
X17169935Y-19678698D02*
X17179459Y-19688222D01*
X17179459Y-19688222D02*
X17188983Y-19707270D01*
X17188983Y-19707270D02*
X17188983Y-19754889D01*
X17188983Y-19754889D02*
X17179459Y-19773936D01*
X17179459Y-19773936D02*
X17169935Y-19783460D01*
X17169935Y-19783460D02*
X17150888Y-19792984D01*
X17150888Y-19792984D02*
X17103269Y-19792984D01*
X17103269Y-19792984D02*
X17084221Y-19783460D01*
X17084221Y-19783460D02*
X17074697Y-19773936D01*
X17379459Y-19792984D02*
X17265174Y-19792984D01*
X17322316Y-19792984D02*
X17322316Y-19592984D01*
X17322316Y-19592984D02*
X17303269Y-19621555D01*
X17303269Y-19621555D02*
X17284221Y-19640603D01*
X17284221Y-19640603D02*
X17265174Y-19650127D01*
X17455650Y-19612031D02*
X17465174Y-19602508D01*
X17465174Y-19602508D02*
X17484221Y-19592984D01*
X17484221Y-19592984D02*
X17531840Y-19592984D01*
X17531840Y-19592984D02*
X17550888Y-19602508D01*
X17550888Y-19602508D02*
X17560412Y-19612031D01*
X17560412Y-19612031D02*
X17569935Y-19631079D01*
X17569935Y-19631079D02*
X17569935Y-19650127D01*
X17569935Y-19650127D02*
X17560412Y-19678698D01*
X17560412Y-19678698D02*
X17446126Y-19792984D01*
X17446126Y-19792984D02*
X17569935Y-19792984D01*
X17646126Y-19592984D02*
X17646126Y-19631079D01*
X17722316Y-19592984D02*
X17722316Y-19631079D01*
X18017555Y-19869174D02*
X18008031Y-19859650D01*
X18008031Y-19859650D02*
X17988983Y-19831079D01*
X17988983Y-19831079D02*
X17979459Y-19812031D01*
X17979459Y-19812031D02*
X17969936Y-19783460D01*
X17969936Y-19783460D02*
X17960412Y-19735841D01*
X17960412Y-19735841D02*
X17960412Y-19697746D01*
X17960412Y-19697746D02*
X17969936Y-19650127D01*
X17969936Y-19650127D02*
X17979459Y-19621555D01*
X17979459Y-19621555D02*
X17988983Y-19602508D01*
X17988983Y-19602508D02*
X18008031Y-19573936D01*
X18008031Y-19573936D02*
X18017555Y-19564412D01*
X18084221Y-19612031D02*
X18093745Y-19602508D01*
X18093745Y-19602508D02*
X18112793Y-19592984D01*
X18112793Y-19592984D02*
X18160412Y-19592984D01*
X18160412Y-19592984D02*
X18179459Y-19602508D01*
X18179459Y-19602508D02*
X18188983Y-19612031D01*
X18188983Y-19612031D02*
X18198507Y-19631079D01*
X18198507Y-19631079D02*
X18198507Y-19650127D01*
X18198507Y-19650127D02*
X18188983Y-19678698D01*
X18188983Y-19678698D02*
X18074697Y-19792984D01*
X18074697Y-19792984D02*
X18198507Y-19792984D01*
X18436602Y-19792984D02*
X18436602Y-19592984D01*
X18522317Y-19792984D02*
X18522317Y-19688222D01*
X18522317Y-19688222D02*
X18512793Y-19669174D01*
X18512793Y-19669174D02*
X18493745Y-19659650D01*
X18493745Y-19659650D02*
X18465174Y-19659650D01*
X18465174Y-19659650D02*
X18446126Y-19669174D01*
X18446126Y-19669174D02*
X18436602Y-19678698D01*
X18646126Y-19792984D02*
X18627078Y-19783460D01*
X18627078Y-19783460D02*
X18617555Y-19773936D01*
X18617555Y-19773936D02*
X18608031Y-19754889D01*
X18608031Y-19754889D02*
X18608031Y-19697746D01*
X18608031Y-19697746D02*
X18617555Y-19678698D01*
X18617555Y-19678698D02*
X18627078Y-19669174D01*
X18627078Y-19669174D02*
X18646126Y-19659650D01*
X18646126Y-19659650D02*
X18674698Y-19659650D01*
X18674698Y-19659650D02*
X18693745Y-19669174D01*
X18693745Y-19669174D02*
X18703269Y-19678698D01*
X18703269Y-19678698D02*
X18712793Y-19697746D01*
X18712793Y-19697746D02*
X18712793Y-19754889D01*
X18712793Y-19754889D02*
X18703269Y-19773936D01*
X18703269Y-19773936D02*
X18693745Y-19783460D01*
X18693745Y-19783460D02*
X18674698Y-19792984D01*
X18674698Y-19792984D02*
X18646126Y-19792984D01*
X18827078Y-19792984D02*
X18808031Y-19783460D01*
X18808031Y-19783460D02*
X18798507Y-19764412D01*
X18798507Y-19764412D02*
X18798507Y-19592984D01*
X18979459Y-19783460D02*
X18960412Y-19792984D01*
X18960412Y-19792984D02*
X18922317Y-19792984D01*
X18922317Y-19792984D02*
X18903269Y-19783460D01*
X18903269Y-19783460D02*
X18893745Y-19764412D01*
X18893745Y-19764412D02*
X18893745Y-19688222D01*
X18893745Y-19688222D02*
X18903269Y-19669174D01*
X18903269Y-19669174D02*
X18922317Y-19659650D01*
X18922317Y-19659650D02*
X18960412Y-19659650D01*
X18960412Y-19659650D02*
X18979459Y-19669174D01*
X18979459Y-19669174D02*
X18988983Y-19688222D01*
X18988983Y-19688222D02*
X18988983Y-19707270D01*
X18988983Y-19707270D02*
X18893745Y-19726317D01*
X19065174Y-19783460D02*
X19084221Y-19792984D01*
X19084221Y-19792984D02*
X19122317Y-19792984D01*
X19122317Y-19792984D02*
X19141364Y-19783460D01*
X19141364Y-19783460D02*
X19150888Y-19764412D01*
X19150888Y-19764412D02*
X19150888Y-19754889D01*
X19150888Y-19754889D02*
X19141364Y-19735841D01*
X19141364Y-19735841D02*
X19122317Y-19726317D01*
X19122317Y-19726317D02*
X19093745Y-19726317D01*
X19093745Y-19726317D02*
X19074698Y-19716793D01*
X19074698Y-19716793D02*
X19065174Y-19697746D01*
X19065174Y-19697746D02*
X19065174Y-19688222D01*
X19065174Y-19688222D02*
X19074698Y-19669174D01*
X19074698Y-19669174D02*
X19093745Y-19659650D01*
X19093745Y-19659650D02*
X19122317Y-19659650D01*
X19122317Y-19659650D02*
X19141364Y-19669174D01*
X19217555Y-19869174D02*
X19227079Y-19859650D01*
X19227079Y-19859650D02*
X19246126Y-19831079D01*
X19246126Y-19831079D02*
X19255650Y-19812031D01*
X19255650Y-19812031D02*
X19265174Y-19783460D01*
X19265174Y-19783460D02*
X19274698Y-19735841D01*
X19274698Y-19735841D02*
X19274698Y-19697746D01*
X19274698Y-19697746D02*
X19265174Y-19650127D01*
X19265174Y-19650127D02*
X19255650Y-19621555D01*
X19255650Y-19621555D02*
X19246126Y-19602508D01*
X19246126Y-19602508D02*
X19227079Y-19573936D01*
X19227079Y-19573936D02*
X19217555Y-19564412D01*
D19*
X14292492Y-19890500D02*
X14442492Y-20040500D01*
X14442492Y-19890500D02*
X14292492Y-20040500D01*
X14420525Y-20018534D02*
X14420525Y-19912467D01*
X14314458Y-19912467D01*
X14314458Y-20018534D01*
X14420525Y-20018534D01*
D11*
X14808030Y-20056984D02*
X14693745Y-20056984D01*
X14750887Y-20056984D02*
X14750887Y-19856984D01*
X14750887Y-19856984D02*
X14731840Y-19885555D01*
X14731840Y-19885555D02*
X14712792Y-19904603D01*
X14712792Y-19904603D02*
X14693745Y-19914127D01*
X14893745Y-20037936D02*
X14903268Y-20047460D01*
X14903268Y-20047460D02*
X14893745Y-20056984D01*
X14893745Y-20056984D02*
X14884221Y-20047460D01*
X14884221Y-20047460D02*
X14893745Y-20037936D01*
X14893745Y-20037936D02*
X14893745Y-20056984D01*
X15084221Y-19856984D02*
X14988983Y-19856984D01*
X14988983Y-19856984D02*
X14979459Y-19952222D01*
X14979459Y-19952222D02*
X14988983Y-19942698D01*
X14988983Y-19942698D02*
X15008030Y-19933174D01*
X15008030Y-19933174D02*
X15055649Y-19933174D01*
X15055649Y-19933174D02*
X15074697Y-19942698D01*
X15074697Y-19942698D02*
X15084221Y-19952222D01*
X15084221Y-19952222D02*
X15093745Y-19971270D01*
X15093745Y-19971270D02*
X15093745Y-20018889D01*
X15093745Y-20018889D02*
X15084221Y-20037936D01*
X15084221Y-20037936D02*
X15074697Y-20047460D01*
X15074697Y-20047460D02*
X15055649Y-20056984D01*
X15055649Y-20056984D02*
X15008030Y-20056984D01*
X15008030Y-20056984D02*
X14988983Y-20047460D01*
X14988983Y-20047460D02*
X14979459Y-20037936D01*
X15217554Y-19856984D02*
X15236602Y-19856984D01*
X15236602Y-19856984D02*
X15255649Y-19866508D01*
X15255649Y-19866508D02*
X15265173Y-19876031D01*
X15265173Y-19876031D02*
X15274697Y-19895079D01*
X15274697Y-19895079D02*
X15284221Y-19933174D01*
X15284221Y-19933174D02*
X15284221Y-19980793D01*
X15284221Y-19980793D02*
X15274697Y-20018889D01*
X15274697Y-20018889D02*
X15265173Y-20037936D01*
X15265173Y-20037936D02*
X15255649Y-20047460D01*
X15255649Y-20047460D02*
X15236602Y-20056984D01*
X15236602Y-20056984D02*
X15217554Y-20056984D01*
X15217554Y-20056984D02*
X15198507Y-20047460D01*
X15198507Y-20047460D02*
X15188983Y-20037936D01*
X15188983Y-20037936D02*
X15179459Y-20018889D01*
X15179459Y-20018889D02*
X15169935Y-19980793D01*
X15169935Y-19980793D02*
X15169935Y-19933174D01*
X15169935Y-19933174D02*
X15179459Y-19895079D01*
X15179459Y-19895079D02*
X15188983Y-19876031D01*
X15188983Y-19876031D02*
X15198507Y-19866508D01*
X15198507Y-19866508D02*
X15217554Y-19856984D01*
X15408030Y-19856984D02*
X15427078Y-19856984D01*
X15427078Y-19856984D02*
X15446126Y-19866508D01*
X15446126Y-19866508D02*
X15455649Y-19876031D01*
X15455649Y-19876031D02*
X15465173Y-19895079D01*
X15465173Y-19895079D02*
X15474697Y-19933174D01*
X15474697Y-19933174D02*
X15474697Y-19980793D01*
X15474697Y-19980793D02*
X15465173Y-20018889D01*
X15465173Y-20018889D02*
X15455649Y-20037936D01*
X15455649Y-20037936D02*
X15446126Y-20047460D01*
X15446126Y-20047460D02*
X15427078Y-20056984D01*
X15427078Y-20056984D02*
X15408030Y-20056984D01*
X15408030Y-20056984D02*
X15388983Y-20047460D01*
X15388983Y-20047460D02*
X15379459Y-20037936D01*
X15379459Y-20037936D02*
X15369935Y-20018889D01*
X15369935Y-20018889D02*
X15360411Y-19980793D01*
X15360411Y-19980793D02*
X15360411Y-19933174D01*
X15360411Y-19933174D02*
X15369935Y-19895079D01*
X15369935Y-19895079D02*
X15379459Y-19876031D01*
X15379459Y-19876031D02*
X15388983Y-19866508D01*
X15388983Y-19866508D02*
X15408030Y-19856984D01*
X15560411Y-20056984D02*
X15560411Y-19923650D01*
X15560411Y-19942698D02*
X15569935Y-19933174D01*
X15569935Y-19933174D02*
X15588983Y-19923650D01*
X15588983Y-19923650D02*
X15617554Y-19923650D01*
X15617554Y-19923650D02*
X15636602Y-19933174D01*
X15636602Y-19933174D02*
X15646126Y-19952222D01*
X15646126Y-19952222D02*
X15646126Y-20056984D01*
X15646126Y-19952222D02*
X15655649Y-19933174D01*
X15655649Y-19933174D02*
X15674697Y-19923650D01*
X15674697Y-19923650D02*
X15703268Y-19923650D01*
X15703268Y-19923650D02*
X15722316Y-19933174D01*
X15722316Y-19933174D02*
X15731840Y-19952222D01*
X15731840Y-19952222D02*
X15731840Y-20056984D01*
X15827078Y-20056984D02*
X15827078Y-19923650D01*
X15827078Y-19942698D02*
X15836602Y-19933174D01*
X15836602Y-19933174D02*
X15855649Y-19923650D01*
X15855649Y-19923650D02*
X15884221Y-19923650D01*
X15884221Y-19923650D02*
X15903269Y-19933174D01*
X15903269Y-19933174D02*
X15912792Y-19952222D01*
X15912792Y-19952222D02*
X15912792Y-20056984D01*
X15912792Y-19952222D02*
X15922316Y-19933174D01*
X15922316Y-19933174D02*
X15941364Y-19923650D01*
X15941364Y-19923650D02*
X15969935Y-19923650D01*
X15969935Y-19923650D02*
X15988983Y-19933174D01*
X15988983Y-19933174D02*
X15998507Y-19952222D01*
X15998507Y-19952222D02*
X15998507Y-20056984D01*
X16388983Y-19847460D02*
X16217554Y-20104603D01*
X16646126Y-19856984D02*
X16665173Y-19856984D01*
X16665173Y-19856984D02*
X16684221Y-19866508D01*
X16684221Y-19866508D02*
X16693745Y-19876031D01*
X16693745Y-19876031D02*
X16703269Y-19895079D01*
X16703269Y-19895079D02*
X16712792Y-19933174D01*
X16712792Y-19933174D02*
X16712792Y-19980793D01*
X16712792Y-19980793D02*
X16703269Y-20018889D01*
X16703269Y-20018889D02*
X16693745Y-20037936D01*
X16693745Y-20037936D02*
X16684221Y-20047460D01*
X16684221Y-20047460D02*
X16665173Y-20056984D01*
X16665173Y-20056984D02*
X16646126Y-20056984D01*
X16646126Y-20056984D02*
X16627078Y-20047460D01*
X16627078Y-20047460D02*
X16617554Y-20037936D01*
X16617554Y-20037936D02*
X16608031Y-20018889D01*
X16608031Y-20018889D02*
X16598507Y-19980793D01*
X16598507Y-19980793D02*
X16598507Y-19933174D01*
X16598507Y-19933174D02*
X16608031Y-19895079D01*
X16608031Y-19895079D02*
X16617554Y-19876031D01*
X16617554Y-19876031D02*
X16627078Y-19866508D01*
X16627078Y-19866508D02*
X16646126Y-19856984D01*
X16798507Y-20037936D02*
X16808031Y-20047460D01*
X16808031Y-20047460D02*
X16798507Y-20056984D01*
X16798507Y-20056984D02*
X16788983Y-20047460D01*
X16788983Y-20047460D02*
X16798507Y-20037936D01*
X16798507Y-20037936D02*
X16798507Y-20056984D01*
X16931840Y-19856984D02*
X16950888Y-19856984D01*
X16950888Y-19856984D02*
X16969935Y-19866508D01*
X16969935Y-19866508D02*
X16979459Y-19876031D01*
X16979459Y-19876031D02*
X16988983Y-19895079D01*
X16988983Y-19895079D02*
X16998507Y-19933174D01*
X16998507Y-19933174D02*
X16998507Y-19980793D01*
X16998507Y-19980793D02*
X16988983Y-20018889D01*
X16988983Y-20018889D02*
X16979459Y-20037936D01*
X16979459Y-20037936D02*
X16969935Y-20047460D01*
X16969935Y-20047460D02*
X16950888Y-20056984D01*
X16950888Y-20056984D02*
X16931840Y-20056984D01*
X16931840Y-20056984D02*
X16912793Y-20047460D01*
X16912793Y-20047460D02*
X16903269Y-20037936D01*
X16903269Y-20037936D02*
X16893745Y-20018889D01*
X16893745Y-20018889D02*
X16884221Y-19980793D01*
X16884221Y-19980793D02*
X16884221Y-19933174D01*
X16884221Y-19933174D02*
X16893745Y-19895079D01*
X16893745Y-19895079D02*
X16903269Y-19876031D01*
X16903269Y-19876031D02*
X16912793Y-19866508D01*
X16912793Y-19866508D02*
X16931840Y-19856984D01*
X17179459Y-19856984D02*
X17084221Y-19856984D01*
X17084221Y-19856984D02*
X17074697Y-19952222D01*
X17074697Y-19952222D02*
X17084221Y-19942698D01*
X17084221Y-19942698D02*
X17103269Y-19933174D01*
X17103269Y-19933174D02*
X17150888Y-19933174D01*
X17150888Y-19933174D02*
X17169935Y-19942698D01*
X17169935Y-19942698D02*
X17179459Y-19952222D01*
X17179459Y-19952222D02*
X17188983Y-19971270D01*
X17188983Y-19971270D02*
X17188983Y-20018889D01*
X17188983Y-20018889D02*
X17179459Y-20037936D01*
X17179459Y-20037936D02*
X17169935Y-20047460D01*
X17169935Y-20047460D02*
X17150888Y-20056984D01*
X17150888Y-20056984D02*
X17103269Y-20056984D01*
X17103269Y-20056984D02*
X17084221Y-20047460D01*
X17084221Y-20047460D02*
X17074697Y-20037936D01*
X17284221Y-20056984D02*
X17322316Y-20056984D01*
X17322316Y-20056984D02*
X17341364Y-20047460D01*
X17341364Y-20047460D02*
X17350888Y-20037936D01*
X17350888Y-20037936D02*
X17369935Y-20009365D01*
X17369935Y-20009365D02*
X17379459Y-19971270D01*
X17379459Y-19971270D02*
X17379459Y-19895079D01*
X17379459Y-19895079D02*
X17369935Y-19876031D01*
X17369935Y-19876031D02*
X17360412Y-19866508D01*
X17360412Y-19866508D02*
X17341364Y-19856984D01*
X17341364Y-19856984D02*
X17303269Y-19856984D01*
X17303269Y-19856984D02*
X17284221Y-19866508D01*
X17284221Y-19866508D02*
X17274697Y-19876031D01*
X17274697Y-19876031D02*
X17265174Y-19895079D01*
X17265174Y-19895079D02*
X17265174Y-19942698D01*
X17265174Y-19942698D02*
X17274697Y-19961746D01*
X17274697Y-19961746D02*
X17284221Y-19971270D01*
X17284221Y-19971270D02*
X17303269Y-19980793D01*
X17303269Y-19980793D02*
X17341364Y-19980793D01*
X17341364Y-19980793D02*
X17360412Y-19971270D01*
X17360412Y-19971270D02*
X17369935Y-19961746D01*
X17369935Y-19961746D02*
X17379459Y-19942698D01*
X17569935Y-20056984D02*
X17455650Y-20056984D01*
X17512793Y-20056984D02*
X17512793Y-19856984D01*
X17512793Y-19856984D02*
X17493745Y-19885555D01*
X17493745Y-19885555D02*
X17474697Y-19904603D01*
X17474697Y-19904603D02*
X17455650Y-19914127D01*
X17646126Y-19856984D02*
X17646126Y-19895079D01*
X17722316Y-19856984D02*
X17722316Y-19895079D01*
X18017555Y-20133174D02*
X18008031Y-20123650D01*
X18008031Y-20123650D02*
X17988983Y-20095079D01*
X17988983Y-20095079D02*
X17979459Y-20076031D01*
X17979459Y-20076031D02*
X17969936Y-20047460D01*
X17969936Y-20047460D02*
X17960412Y-19999841D01*
X17960412Y-19999841D02*
X17960412Y-19961746D01*
X17960412Y-19961746D02*
X17969936Y-19914127D01*
X17969936Y-19914127D02*
X17979459Y-19885555D01*
X17979459Y-19885555D02*
X17988983Y-19866508D01*
X17988983Y-19866508D02*
X18008031Y-19837936D01*
X18008031Y-19837936D02*
X18017555Y-19828412D01*
X18084221Y-19876031D02*
X18093745Y-19866508D01*
X18093745Y-19866508D02*
X18112793Y-19856984D01*
X18112793Y-19856984D02*
X18160412Y-19856984D01*
X18160412Y-19856984D02*
X18179459Y-19866508D01*
X18179459Y-19866508D02*
X18188983Y-19876031D01*
X18188983Y-19876031D02*
X18198507Y-19895079D01*
X18198507Y-19895079D02*
X18198507Y-19914127D01*
X18198507Y-19914127D02*
X18188983Y-19942698D01*
X18188983Y-19942698D02*
X18074697Y-20056984D01*
X18074697Y-20056984D02*
X18198507Y-20056984D01*
X18274697Y-19876031D02*
X18284221Y-19866508D01*
X18284221Y-19866508D02*
X18303269Y-19856984D01*
X18303269Y-19856984D02*
X18350888Y-19856984D01*
X18350888Y-19856984D02*
X18369936Y-19866508D01*
X18369936Y-19866508D02*
X18379459Y-19876031D01*
X18379459Y-19876031D02*
X18388983Y-19895079D01*
X18388983Y-19895079D02*
X18388983Y-19914127D01*
X18388983Y-19914127D02*
X18379459Y-19942698D01*
X18379459Y-19942698D02*
X18265174Y-20056984D01*
X18265174Y-20056984D02*
X18388983Y-20056984D01*
X18627078Y-20056984D02*
X18627078Y-19856984D01*
X18712793Y-20056984D02*
X18712793Y-19952222D01*
X18712793Y-19952222D02*
X18703269Y-19933174D01*
X18703269Y-19933174D02*
X18684221Y-19923650D01*
X18684221Y-19923650D02*
X18655650Y-19923650D01*
X18655650Y-19923650D02*
X18636602Y-19933174D01*
X18636602Y-19933174D02*
X18627078Y-19942698D01*
X18836602Y-20056984D02*
X18817555Y-20047460D01*
X18817555Y-20047460D02*
X18808031Y-20037936D01*
X18808031Y-20037936D02*
X18798507Y-20018889D01*
X18798507Y-20018889D02*
X18798507Y-19961746D01*
X18798507Y-19961746D02*
X18808031Y-19942698D01*
X18808031Y-19942698D02*
X18817555Y-19933174D01*
X18817555Y-19933174D02*
X18836602Y-19923650D01*
X18836602Y-19923650D02*
X18865174Y-19923650D01*
X18865174Y-19923650D02*
X18884221Y-19933174D01*
X18884221Y-19933174D02*
X18893745Y-19942698D01*
X18893745Y-19942698D02*
X18903269Y-19961746D01*
X18903269Y-19961746D02*
X18903269Y-20018889D01*
X18903269Y-20018889D02*
X18893745Y-20037936D01*
X18893745Y-20037936D02*
X18884221Y-20047460D01*
X18884221Y-20047460D02*
X18865174Y-20056984D01*
X18865174Y-20056984D02*
X18836602Y-20056984D01*
X19017555Y-20056984D02*
X18998507Y-20047460D01*
X18998507Y-20047460D02*
X18988983Y-20028412D01*
X18988983Y-20028412D02*
X18988983Y-19856984D01*
X19169936Y-20047460D02*
X19150888Y-20056984D01*
X19150888Y-20056984D02*
X19112793Y-20056984D01*
X19112793Y-20056984D02*
X19093745Y-20047460D01*
X19093745Y-20047460D02*
X19084221Y-20028412D01*
X19084221Y-20028412D02*
X19084221Y-19952222D01*
X19084221Y-19952222D02*
X19093745Y-19933174D01*
X19093745Y-19933174D02*
X19112793Y-19923650D01*
X19112793Y-19923650D02*
X19150888Y-19923650D01*
X19150888Y-19923650D02*
X19169936Y-19933174D01*
X19169936Y-19933174D02*
X19179459Y-19952222D01*
X19179459Y-19952222D02*
X19179459Y-19971270D01*
X19179459Y-19971270D02*
X19084221Y-19990317D01*
X19255650Y-20047460D02*
X19274698Y-20056984D01*
X19274698Y-20056984D02*
X19312793Y-20056984D01*
X19312793Y-20056984D02*
X19331840Y-20047460D01*
X19331840Y-20047460D02*
X19341364Y-20028412D01*
X19341364Y-20028412D02*
X19341364Y-20018889D01*
X19341364Y-20018889D02*
X19331840Y-19999841D01*
X19331840Y-19999841D02*
X19312793Y-19990317D01*
X19312793Y-19990317D02*
X19284221Y-19990317D01*
X19284221Y-19990317D02*
X19265174Y-19980793D01*
X19265174Y-19980793D02*
X19255650Y-19961746D01*
X19255650Y-19961746D02*
X19255650Y-19952222D01*
X19255650Y-19952222D02*
X19265174Y-19933174D01*
X19265174Y-19933174D02*
X19284221Y-19923650D01*
X19284221Y-19923650D02*
X19312793Y-19923650D01*
X19312793Y-19923650D02*
X19331840Y-19933174D01*
X19408031Y-20133174D02*
X19417555Y-20123650D01*
X19417555Y-20123650D02*
X19436602Y-20095079D01*
X19436602Y-20095079D02*
X19446126Y-20076031D01*
X19446126Y-20076031D02*
X19455650Y-20047460D01*
X19455650Y-20047460D02*
X19465174Y-19999841D01*
X19465174Y-19999841D02*
X19465174Y-19961746D01*
X19465174Y-19961746D02*
X19455650Y-19914127D01*
X19455650Y-19914127D02*
X19446126Y-19885555D01*
X19446126Y-19885555D02*
X19436602Y-19866508D01*
X19436602Y-19866508D02*
X19417555Y-19837936D01*
X19417555Y-19837936D02*
X19408031Y-19828412D01*
M02*
